<?xml version="1.0" ?><svg id="Icons" style="enable-background:new 0 0 32 32;" version="1.1" viewBox="0 0 32 32" xml:space="preserve" xmlns="http://www.w3.org/2000/svg" xmlns:xlink="http://www.w3.org/1999/xlink"><style type="text/css">
	.st0{fill:none;stroke:#000000;stroke-width:2;stroke-linecap:round;stroke-linejoin:round;stroke-miterlimit:10;}
</style><circle cx="13" cy="18" r="4"/><path d="M30,23.8l-2.1-3.4c-0.4-0.7-0.3-1.6,0.2-2.2c1.3-1.4,1.3-3.5,0-4.9l-0.9-0.9C27,12.1,26.8,12,26.5,12H25V9.1  c1.2,0.2,2.4,0.7,3.3,1.6c0.2,0.2,0.5,0.3,0.7,0.3s0.5-0.1,0.7-0.3c0.4-0.4,0.4-1,0-1.4C28.2,7.8,26.3,7,24.2,7H22c-0.6,0-1,0.4-1,1  s0.4,1,1,1h1v3h-1.5c-0.3,0-0.5,0.1-0.7,0.3l-0.9,0.9c-1.3,1.4-1.3,3.5,0,4.9c0.6,0.6,0.7,1.5,0.2,2.2L18,23.8  c-0.8,1.3-0.8,2.8-0.1,4.1c0.7,1.3,2.1,2.1,3.6,2.1h5c1.5,0,2.8-0.8,3.6-2.1C30.8,26.6,30.7,25,30,23.8z M21.4,14.6L22,14H26  l0.6,0.6c0.6,0.6,0.6,1.5,0,2.1c-1.1,1.2-1.3,2.8-0.7,4.3h-3.9c0.7-1.4,0.4-3.1-0.7-4.3C20.8,16.2,20.8,15.2,21.4,14.6z"/><g><path d="M16.2,28.9c-1-1.8-1-4-0.1-5.8c-0.9,0.6-2,0.9-3.1,0.9c-3.3,0-6-2.7-6-6s2.7-6,6-6c1.7,0,3.2,0.7,4.3,1.8   c0.2-0.7,0.6-1.4,1.2-1.9l0.9-0.9c0.2-0.2,0.5-0.4,0.8-0.6C19.4,9.8,19,8.9,19,8c0-0.1,0-0.2,0-0.4c-1.8-1-3.9-1.6-6-1.6   C6.4,6,1,11.4,1,18s5.4,12,12,12c1.2,0,2.4-0.2,3.6-0.6C16.4,29.3,16.3,29.1,16.2,28.9z"/></g></svg>