<svg viewBox="0 0 48 48" xmlns="http://www.w3.org/2000/svg" xmlns:xlink="http://www.w3.org/1999/xlink" width="48" height="48">
	<path fill="#000000" id="i-424" d="M18.811,17.982c0.229,0.043,0.442,0.063,0.643,0.063c2.63,0,3.017-2.977,3.357-5.602c0.057-0.428,0.112-0.861,0.179-1.293 c0.248-1.635,0.462-4.611-0.897-6.193C21.554,4.33,20.83,4,20,4c-2.792,0-5.241,3.395-5.864,5.74 c-0.543,2.031-0.301,4.076,0.664,5.613C15.669,16.738,17.055,17.646,18.811,17.982z M16.067,10.256C16.567,8.381,18.518,6,20,6 c0.245,0,0.417,0.078,0.575,0.262c0.586,0.68,0.756,2.48,0.436,4.588c-0.066,0.447-0.125,0.895-0.183,1.336 c-0.303,2.332-0.562,3.859-1.375,3.859c-0.085,0-0.175-0.01-0.27-0.027c-1.211-0.23-2.116-0.813-2.69-1.727 C15.823,13.223,15.667,11.752,16.067,10.256z M28.907,17.992c0.147,0.012,0.271,0.008,0.434,0.018c3.51,0,5.387-3.592,5.646-6.934 c0.151-1.957-0.588-4.072-1.93-5.523C32.13,4.553,31.033,4,29.97,4c-2.975,0-3.442,3.24-3.855,6.1l-0.109,0.75 c-0.451,2.986-0.246,4.834,0.664,5.988C27.2,17.512,27.974,17.912,28.907,17.992z M27.982,11.148l0.111-0.762 C28.488,7.656,28.81,6,29.97,6c0.492,0,1.083,0.332,1.619,0.912c0.766,0.826,1.536,2.314,1.404,4.01 c-0.197,2.547-1.534,5.268-3.915,5.078c-0.498-0.043-0.71-0.236-0.839-0.4C27.722,14.943,27.634,13.445,27.982,11.148z M12.815,28.857c1.13,0,2.129-0.396,2.888-1.146c0.635-0.627,2.601-2.986,1.244-6.998c-0.46-1.359-2.757-4.773-5.454-4.773 c-0.25,0-0.498,0.029-0.737,0.09C7.924,16.74,7,21.455,7,23c0,2.146,0.879,3.869,2.474,4.85 C9.964,28.154,11.272,28.857,12.815,28.857C12.815,28.857,12.814,28.857,12.815,28.857z M9,23c0-1.326,0.87-4.686,2.243-5.031 c0.08-0.02,0.162-0.029,0.25-0.029c1.388,0,3.215,2.396,3.56,3.414c0.958,2.832-0.21,4.395-0.756,4.936 c-0.388,0.383-0.873,0.568-1.482,0.568c-0.841,0-1.734-0.365-2.292-0.709C9.513,25.525,9,24.467,9,23z M38.495,17.137 c-0.436-0.256-0.931-0.385-1.473-0.385c-2.426,0-5.135,2.607-5.855,3.695c-1.624,2.445-3.645,5.49-0.874,8.26 c1.028,1.027,2.333,1.549,3.878,1.549c0.657,0,1.356-0.098,2.082-0.291c1.622-0.441,2.324-1.514,3.387-3.135l0.183-0.277 c0.871-1.318,1.087-2.652,1.165-4.51C41.057,20.42,40.928,18.57,38.495,17.137z M38.989,21.957 c-0.066,1.545-0.218,2.559-0.837,3.494l-0.187,0.283c-1.046,1.598-1.386,2.068-2.234,2.299c-0.552,0.148-1.077,0.223-1.561,0.223 c-1.01,0-1.815-0.314-2.464-0.963c-1.297-1.297-1.075-2.424,1.126-5.74c0.636-0.959,2.842-2.801,4.189-2.801 c0.184,0,0.335,0.037,0.459,0.109C38.851,19.668,39.053,20.468,38.989,21.957z M32.368,33.111c-1.642-1.408-4.124-3.537-5.543-5.666 c-0.148-0.221-0.287-0.49-0.434-0.77c-0.563-1.068-1.414-2.686-3.208-2.686c-0.094,0-0.188,0.004-0.291,0.014 c-1.154,0.117-1.869,0.957-2.859,2.117c-1.102,1.291-2.61,3.061-5.589,5.047c-3.176,2.117-3.863,4.496-2.376,8.211 c0.908,2.268,2.703,3.467,5.187,3.467c1.394,0,2.731-0.361,3.708-0.625c0.365-0.098,0.818-0.219,0.9-0.23 c0.272,0.037,1.098,0.34,1.826,0.609c1.691,0.625,3.799,1.4,5.302,1.4c2.387,0,4.563-1.838,5.442-3.654 c0.647-1.344,1.732-3.594-0.738-6.055C33.418,34.014,32.949,33.609,32.368,33.111z M32.591,39.564 C32.115,40.547,30.644,42,28.992,42c-1.146,0-3.148-0.738-4.611-1.275c-1.125-0.416-1.784-0.654-2.254-0.716l-0.21-0.015 c-0.381,0-0.84,0.125-1.474,0.297c-0.868,0.234-2.059,0.555-3.187,0.555c-1.667,0-2.726-0.701-3.33-2.211 c-1.129-2.818-0.733-4.229,1.628-5.803c3.212-2.141,4.891-4.111,6.001-5.414c0.662-0.775,1.184-1.387,1.628-1.428 c0.545,0,0.923,0.641,1.438,1.619c0.182,0.342,0.355,0.67,0.539,0.945c1.572,2.357,4.18,4.594,5.905,6.074 c0.532,0.457,0.964,0.824,1.22,1.08C33.748,37.164,33.28,38.134,32.591,39.564z" />
</svg>
