<?xml version="1.0" encoding="UTF-8"?>
<!DOCTYPE svg PUBLIC "-//W3C//DTD SVG 1.1//EN" "http://www.w3.org/Graphics/SVG/1.1/DTD/svg11.dtd">
<!-- Creator: CorelDRAW -->
<svg xmlns="http://www.w3.org/2000/svg" xml:space="preserve" width="9.0612mm" height="7.1048mm" version="1.1" style="shape-rendering:geometricPrecision; text-rendering:geometricPrecision; image-rendering:optimizeQuality; fill-rule:evenodd; clip-rule:evenodd"
viewBox="0 0 1604.69 1258.22"
 xmlns:xlink="http://www.w3.org/1999/xlink"
 xmlns:xodm="http://www.corel.com/coreldraw/odm/2003">
 <defs>
  <style type="text/css">
   <![CDATA[
    .fil0 {fill:black}
   ]]>
  </style>
 </defs>
 <g id="Layer_x0020_1">
  <metadata id="CorelCorpID_0Corel-Layer"/>
  <g id="_2629913055312">
   <path class="fil0" d="M182.35 173.23l1239.98 0 0 911.75 -1239.98 0 0 -911.75zm-182.35 -54.7l54.7 0 0 109.41 -54.7 0 0 118.53 54.7 0 0 109.41 -54.7 0 0 118.53 54.7 0 0 109.41 -54.7 0 0 118.53 54.7 0 0 109.41 -54.7 0 0 118.53 54.7 0 0 109.41 -54.7 0 0 118.53 118.53 0 0 -54.7 1367.63 0 0 54.7 118.53 0 0 -118.53 -54.7 0 0 -109.41 54.7 0 0 -118.53 -54.7 0 0 -109.41 54.7 0 0 -118.53 -54.7 0 0 -109.41 54.7 0 0 -118.53 -54.7 0 0 -109.41 54.7 0 0 -118.53 -54.7 0 0 -109.41 54.7 0 0 -118.53 -118.53 0 0 54.7 -1367.63 0 0 -54.7 -118.53 0 0 118.53z"/>
   <path class="fil0" d="M1148.81 857.05l54.7 0 0 -54.7 54.7 0 0 109.41 -109.41 0 0 -54.7zm-802.34 -54.7l54.7 0 0 54.7 54.7 0 0 54.7 -109.41 0 0 -109.41zm63.82 -227.94l54.7 0 0 -54.7 54.7 0 0 -54.7 54.7 0 0 -63.82 63.82 0 0 -54.7 328.23 0 0 54.7 63.82 0 0 63.82 54.7 0 0 54.7 54.7 0 0 54.7 54.7 0 0 109.41 -54.7 0 0 54.7 -54.7 0 0 54.7 -54.7 0 0 63.82 -63.82 0 0 54.7 -328.23 0 0 -54.7 -63.82 0 0 -63.82 -54.7 0 0 -54.7 -54.7 0 0 -54.7 -54.7 0 0 -109.41zm738.52 -227.94l109.41 0 0 109.41 -54.7 0 0 -54.7 -54.7 0 0 -54.7zm-747.64 109.41l-54.7 0 0 -109.41 109.41 0 0 54.7 -54.7 0 0 54.7zm-173.23 574.4l1148.81 0 0 -802.34 -1148.81 0 0 802.34z"/>
   <path class="fil0" d="M738.52 483.24l0 27.34 -54.7 0 0 54.7c-64.2,0 -54.7,-7.93 -54.7,100.29 0,32.43 17.76,27.36 54.7,27.36l0 54.7 54.7 0c0,64.2 -7.93,54.7 100.29,54.7 32.43,0 27.36,-17.76 27.36,-54.7l54.7 0 0 -54.7c64.2,0 54.7,7.93 54.7,-100.29 0,-32.43 -17.76,-27.36 -54.7,-27.36l0 -54.7 -54.7 0c0,-64.2 7.93,-54.7 -100.29,-54.7 -21.02,0 -27.36,6.34 -27.36,27.36z"/>
  </g>
 </g>
</svg>
