<?xml version="1.0" encoding="UTF-8"?>
<!DOCTYPE svg PUBLIC "-//W3C//DTD SVG 1.1//EN" "http://www.w3.org/Graphics/SVG/1.1/DTD/svg11.dtd">
<!-- Creator: CorelDRAW -->
<svg xmlns="http://www.w3.org/2000/svg" xml:space="preserve" width="12.0024mm" height="12.009mm" version="1.1" style="shape-rendering:geometricPrecision; text-rendering:geometricPrecision; image-rendering:optimizeQuality; fill-rule:evenodd; clip-rule:evenodd"
viewBox="0 0 4840.97 4843.63"
 xmlns:xlink="http://www.w3.org/1999/xlink"
 xmlns:xodm="http://www.corel.com/coreldraw/odm/2003">
 <defs>
  <style type="text/css">
   <![CDATA[
    .fil0 {fill:black}
   ]]>
  </style>
 </defs>
 <g id="Layer_x0020_1">
  <metadata id="CorelCorpID_0Corel-Layer"/>
  <path class="fil0" d="M895.56 1382.35c140.08,-32.63 245.75,-138.34 278.38,-278.38l2408.39 0 0 3170.85 -2408.39 0c-32.02,-137.42 -143.02,-246.8 -278.38,-278.34l0 -2614.13zm1183.34 1309.75l162.79 -169.44c96.56,61.71 98.41,136.41 166.7,154.64l0 24.2c-70.54,18.84 -59.85,83.97 -169.44,157.34l-160.04 -166.74zm293.18 -293.14l227 -232.93 526.35 520.38 -520.42 526.39 -235.87 -229.98c37.79,-54.97 87.16,-93.21 133.06,-139.11 160.24,-160.28 162.5,-146.13 6.05,-302.58 -46.83,-46.79 -100.95,-89.58 -136.17,-142.18zm-508.32 266.24c0,147.66 151.73,179.81 242.08,314.68 -11.82,44.17 -185.78,218.12 -229.98,229.94l-523.37 -517.44 520.38 -526.39c59.09,17.99 88.98,72.04 122.21,113.74 35.53,44.53 79.74,72.92 110.76,119.23 -34.81,51.95 -242.08,222.88 -242.08,266.24zm-726.12 12.1c0,66.91 52.64,94.94 134.35,180.33l400.83 397.89c33.03,30.25 59.65,57.96 91.23,90.31 120.44,123.46 116.56,119.47 302.42,-66.43 49.69,-49.69 119.75,-131.08 172.47,-166.42 131.41,88.01 256.32,314.68 375.18,314.68 49.81,0 726.16,-676.35 726.16,-726.16 0,-95.19 -253.45,-307.9 -347.96,-402.41 -419.71,-419.67 -354.33,-426.28 -580.92,-199.69 -49.69,49.69 -119.71,131.08 -172.47,166.42 -131.41,-88.01 -256.32,-314.68 -375.18,-314.68 -41.83,0 -489.28,471.13 -553.7,535.55 -32.83,32.83 -172.43,150.16 -172.43,190.62zm2989.31 1367.58c0,117.61 130.64,72.08 215.99,122.9 266.76,158.75 98.13,506.43 -119.19,506.43 -133.06,0 -260.43,-62.32 -330.25,-129.63 -276.2,-266.44 -113.14,-778.03 330.25,-778.03 130.16,0 270.56,80.91 328.88,155.2 86.11,109.71 106.84,186.1 106.84,377.28 -53.89,-39.49 -36.95,-132.94 -148.67,-226.55 -121.69,-101.96 -383.85,-182.91 -383.85,-27.59zm-363.08 -266.24l0 -3037.75c0,-233.69 -2.26,-262.41 103.41,-404.87 144.96,-195.33 494.93,-231.84 681.92,-5.28 100.23,121.4 110.31,183.48 110.27,398.05l0 3049.85c-62.56,-41.91 -80.71,-78.09 -179.81,-122.77 -175.97,-79.42 -368.65,-80.99 -546.44,1.69 -69.45,32.31 -111.84,82.56 -169.36,121.08zm-3049.81 -2456.83l0 2735.17c0,150.48 135.72,61.47 239.66,171.78 98.13,104.14 -1.9,224.94 183.19,228.33 276.04,5.08 558.9,-0.73 835.79,-0.73 552.69,0 1105.34,0 1658.02,0 110.23,208.28 70.22,105.83 145.24,217.84l-3291.89 0 0 -3957.51 3098.25 0 0 205.74 -2468.89 0c-190.94,0 0.69,237.08 -299.6,293.47 -53.12,10 -99.78,37.63 -99.78,105.92zm2880.37 -786.66l-3182.95 0c-147.06,0 -108.9,180.17 -108.9,375.18l-193.64 0c-135.52,0 -141.57,181.54 -12.14,181.54l205.78 0 0 302.58c-129.75,0 -306.65,-30.49 -299.19,95.35 6.74,113.78 178.88,86.15 299.19,86.15l0 302.58 -205.78 0c-134.11,0 -116.52,181.54 12.14,181.54l193.64 0 0 302.58c-101.16,0 -345.41,-32.35 -295.36,112.89 30.53,88.69 188.56,68.61 295.36,68.61l0 302.58c-135.04,0 -302.58,-31.58 -302.58,84.7 0,116.32 167.54,84.74 302.58,84.74l0 314.64 -229.98 0c-80.99,0 -108.94,169.44 24.2,169.44l205.78 0 0 302.58 -169.44 0c-174.4,0 -160.53,181.54 -36.34,181.54l205.78 0 0 302.54 -193.64 0c-135.52,0 -141.57,181.54 -12.14,181.54l205.78 0c0,122.17 -31.66,375.18 72.6,375.18l3884.87 0c151.05,0 314.04,-98.09 414.83,-202.43 92.36,-95.67 166.09,-266.4 166.09,-451.09l0 -3521.83c0,-192.91 -65.95,-356.18 -160.12,-457.1 -431.28,-461.98 -1077.42,-79.98 -1086.42,323.96z"/>
 </g>
</svg>
