<?xml version="1.0" encoding="UTF-8"?>
<!DOCTYPE svg PUBLIC "-//W3C//DTD SVG 1.1//EN" "http://www.w3.org/Graphics/SVG/1.1/DTD/svg11.dtd">
<!-- Creator: CorelDRAW -->
<svg xmlns="http://www.w3.org/2000/svg" xml:space="preserve" width="7.9512mm" height="5.3749mm" version="1.1" style="shape-rendering:geometricPrecision; text-rendering:geometricPrecision; image-rendering:optimizeQuality; fill-rule:evenodd; clip-rule:evenodd"
viewBox="0 0 109.82 74.24"
 xmlns:xlink="http://www.w3.org/1999/xlink"
 xmlns:xodm="http://www.corel.com/coreldraw/odm/2003">
 <defs>
  <style type="text/css">
   <![CDATA[
    .fil0 {fill:black}
   ]]>
  </style>
 </defs>
 <g id="Layer_x0020_1">
  <metadata id="CorelCorpID_0Corel-Layer"/>
  <path class="fil0" d="M35.88 37.16c0,3.89 0.58,4.02 0.58,6.94l10.42 0c-0.31,-3.75 -1.45,-7.5 -0.27,-13 4.97,-23.12 38.63,-30.35 50.83,-5.15 3.34,6.9 3.47,15.02 0.19,22.02 -4.6,9.8 -14.19,16.39 -25.28,16.39 -0.19,2.33 -1.12,4.28 -2.49,5.61l-5.03 3.65c6.32,0.52 11.23,1.15 16.89,-0.17 23.71,-5.55 34.01,-30.59 24.7,-52.42 -2.78,-6.53 -10.64,-14.33 -17.29,-17.44 -24.76,-11.57 -53.25,6.23 -53.25,33.57zm-35.88 11.57c0.07,3.34 1.12,3.61 5.39,5.61 2.01,0.94 6.63,2.29 9.08,2.5 0.14,1.63 -0.01,2.31 1.74,2.31l37.04 0 0 -2.31c2.16,-0.05 5.74,-0.78 8.87,-2.1 2.06,-0.87 3.93,-2 5.09,-3.36 2.03,-2.4 0.05,-3.22 -2.38,-3.22 -8.16,0 -61.39,-0.75 -64.82,0.58zm0 15.05c0.05,2.41 0.12,2.42 1.59,3.62 2.88,2.34 9.21,4.18 12.88,4.49 0.14,1.63 -0.01,2.31 1.74,2.31l35.88 0c1.75,0 1.6,-0.68 1.74,-2.31 2.87,-0.24 10.29,-2.05 13.3,-5.46 2.11,-2.39 0.17,-3.22 -2.31,-3.22 -8.16,0 -61.39,-0.75 -64.82,0.58zm50.35 -28.36l0.58 8.68c5.76,0 17.15,-1.07 19.76,1.66 5.99,6.28 -5.39,12.16 -5.87,12.81 5.76,1.34 3.72,1.16 9.84,1.16 10.44,0 20.84,-10.39 20.84,-20.84l0 -3.47c0,-10.44 -10.39,-20.84 -20.84,-20.84l-3.47 0c-10.37,0 -20.84,10.47 -20.84,20.84z"/>
 </g>
</svg>
