<svg xmlns="http://www.w3.org/2000/svg" xml:space="preserve" width="48" height="48" style="shape-rendering:geometricPrecision; text-rendering:geometricPrecision; image-rendering:optimizeQuality; fill-rule:evenodd; clip-rule:evenodd"
viewBox="0 0 288.77 236.88"
 xmlns:xlink="http://www.w3.org/1999/xlink"
 xmlns:xodm="http://www.corel.com/coreldraw/odm/2003">
 <g id="Layer_x0020_1">
  <path class="fil0" d="M226.73 172.58l42.86 0c0,7.61 3.25,22.66 3.95,31.02l-50.76 0c0,-4.48 3.95,-27.26 3.95,-31.02zm-201.35 11.28l166.94 0c-0.16,7.23 -7.28,14.96 -14.24,17.9 -2.63,1.11 -5.33,1.84 -8.88,1.84l-120.7 0c-11.76,0 -21.8,-9.39 -23.12,-19.74zm201.91 -56.4l41.17 0c1.27,5.45 1.69,12.2 2.57,18.3 0.88,6 2.03,12.69 2.51,18.36l-50.76 0 2.22 -18.08c0.43,-3.05 0.76,-5.91 1.19,-8.96 0.4,-2.84 1.09,-6.52 1.09,-9.62zm-201.91 0l166.94 0c-0.6,7.28 -6.88,14.11 -13.71,17.31 -7.02,3.28 -20.01,1.87 -29.72,1.87 -9.88,0 -57.27,-0.54 -62.56,0.04 -4.87,0.54 -6.67,5.27 -3.02,8.01 2.78,2.09 10.53,0.97 14.82,0.97l94.19 0c-0.85,10.18 -11.5,19.74 -24.82,19.74l-117.88 0c-12.43,0 -23.41,-9.67 -24.25,-19.74l38.92 0c4.42,0.02 9.02,0.33 9.02,-3.95 0,-6.05 -6.92,-5.08 -12.97,-5.07 -10.84,0 -21.37,1.35 -28.91,-7.19 -1.38,-1.56 -2.68,-3.46 -3.7,-5.33 -2.07,-3.79 -1.69,-5.16 -2.36,-6.66zm208.68 -84.6l29.33 0 10.15 75.58 -50.76 0 8.77 -66.8c0.26,-1.79 0.56,-3.64 0.68,-4.95 0.2,-2.03 -0.35,-3.82 1.82,-3.82zm-175.4 40.61c0,-19.92 10.16,-36.32 27.25,-45.51 19.62,-10.55 46.5,-5.67 61.73,12.92 27.23,33.25 -2.21,65.76 -2.69,67.55l-67.71 0.03c-4.14,0.04 -3.6,0.16 -5.78,-2.12 -7.42,-7.75 -12.81,-20.72 -12.81,-32.88zm3.38 34.97l-18.05 0c-13.61,-25.73 -12.03,-55.84 5.07,-79.53 23.58,-32.67 71.26,-41.29 106.37,-13.87 4.87,3.8 5.82,5.57 9.11,8.94 9.91,10.18 18.2,29.92 18.2,44.97 0,17.06 -1.22,24.74 -9.03,39.48l-17.48 0c0.77,-2.87 16.66,-20.75 10.28,-48.63 -10.21,-44.56 -64.25,-60.15 -95.58,-32.17 -2.41,2.15 -3.48,2.6 -5.5,5.22 -1.47,1.91 -3.01,3.64 -4.52,5.64 -11.88,15.71 -14.17,38.44 -6.53,56.73 2.92,6.99 4.02,7.77 7.66,13.21zm-36.09 -36.09c0,10.14 1.77,18.84 4.77,27.94 0.93,2.83 2.51,5.52 3.12,8.16 -15.28,0 -17.49,-1.86 -17.49,6.77 0,10.62 5.89,15.9 9.59,21.43 -9.82,0 -9.59,1.01 -9.59,7.89 0,10.68 7.66,17.14 10.15,20.87 -9.61,0 -10.15,-0.56 -10.15,7.33 0,11.16 8.06,17.74 10.15,20.87 -6.74,0 -19.47,-1.06 -23.27,1.55 -1.68,1.15 -3.24,2.63 -3.24,5.22l0 19.74c0,3.39 3.38,6.77 6.77,6.77l207.55 0c5.9,0 4.67,-8.46 0.57,-8.46l-206.42 0 0 -15.79 271.85 0 0 15.79 -50.2 0c-4.13,0 -4.71,8.46 0,8.46l51.89 0c3.39,0 6.77,-3.38 6.77,-6.77l0 -19.74c0,-3.01 -2.33,-4.56 -4.38,-5.77 -2.11,-1.25 -0.96,0.59 -1.83,-1.56l-0.31 -0.82c-0.03,-0.1 -0.1,-0.31 -0.13,-0.44 -1.2,-5.17 -2.33,-21.7 -4.08,-29.2 7.56,-0.17 4.07,-8.63 2.77,-20.26 -0.44,-3.95 -1.1,-8.32 -1.68,-12.42l-1.66 -12.44c8,-0.66 5.15,-7.97 3.21,-21.26l-7.06 -52.73c-2.82,-23.47 0.58,-19.64 -41.27,-19.64 -4.52,0 -7.14,2.71 -8.12,6.54l-10.49 78.06c-0.33,2.83 -2.06,8.86 5.08,9.02 -0.78,1.63 -4.15,30.01 -5.04,36.13 -0.69,4.71 -1.53,8.54 3.92,8.99 0,4.65 -1.22,10.75 -1.86,15.63 -0.28,2.16 -0.71,4.79 -1.01,7.45 -0.27,2.39 -1.03,5.56 -1.08,7.94l-22 0 5.06 -6.79c2.44,-4.27 6.41,-14.17 4.38,-18.97 -1.47,-3.46 -5.37,-2.45 -10,-2.45 2.2,-3.28 6.62,-5.5 9.27,-15.55 3.53,-13.4 -0.57,-13.22 -8.7,-13.22 0.84,-1.26 1.9,-2.34 2.99,-3.78 5.04,-6.69 11.17,-22.68 3.11,-24.31 -2.51,-0.51 -10.88,-0.11 -13.99,-0.11 0.41,-1.78 0.77,-1.93 1.45,-3.62 0.65,-1.61 0.91,-2.54 1.53,-4.11 1.13,-2.85 1.62,-5.07 2.43,-8.29 4.65,-18.5 2.65,-36.5 -4.69,-53.52 -2.77,-6.43 -7.25,-13.04 -11.44,-18.45 -13.04,-16.86 -38.37,-30.45 -59.79,-30.45 -16.18,0 -26.25,0.96 -40.8,8.27 -9.43,4.74 -12.83,7.35 -20.55,14.41l-1.48 1.34c-0.08,0.08 -0.2,0.2 -0.28,0.29 -0.02,0.02 -0.64,0.73 -0.79,0.9 -6.82,7.54 -11.99,13.34 -16.26,23.78 -3.87,9.44 -7.25,19.88 -7.25,33.36z"/>
 </g>
</svg>
