<?xml version="1.0" ?><svg height="36" id="svg4488" version="1.1" width="36" xmlns="http://www.w3.org/2000/svg" xmlns:cc="http://creativecommons.org/ns#" xmlns:dc="http://purl.org/dc/elements/1.1/" xmlns:inkscape="http://www.inkscape.org/namespaces/inkscape" xmlns:rdf="http://www.w3.org/1999/02/22-rdf-syntax-ns#" xmlns:sodipodi="http://sodipodi.sourceforge.net/DTD/sodipodi-0.dtd" xmlns:svg="http://www.w3.org/2000/svg"><defs id="defs4490"/><g id="layer1" transform="translate(0,-1016.3622)"><path d="m 11.82227,1018.3622 c -0.40738,0 -0.82227,0.4381 -0.82227,1.1074 l 0,7.8926 14,0 0,-7.8926 c 0,-0.6693 -0.41683,-1.1074 -0.82422,-1.1074 l -12.35351,0 z m 10.68359,0.9824 1,0 c 0.67616,-0.01 0.67616,1.01 0,1 l -1,0 c -0.67616,0.01 -0.67616,-1.01 0,-1 z m -10.01367,1 0,0.01 c 0.28146,0 0.51081,0.2244 0.50781,0.5059 l 0,4 c 0.005,0.3381 -0.24761,0.5078 -0.5,0.5078 -0.25239,0 -0.5,-0.012 -0.5,-0.012 l 0,-4.9941 c 0,0 0.21684,-0.014 0.49219,-0.014 z M 11,1028.3622 l 0,1 2,0 c 0.41667,0 0.57622,-0.086 0.69532,-0.1894 0.11909,-0.1038 0.21504,-0.2799 0.33789,-0.5313 0.0413,-0.084 0.0975,-0.1828 0.15039,-0.2793 l -3.1836,0 z m 5,0 c -0.4298,0 -0.6027,0.088 -0.72656,0.1934 -0.12386,0.1051 -0.22029,0.2767 -0.3418,0.5254 -0.1215,0.2486 -0.26678,0.5744 -0.57812,0.8457 -0.31135,0.2712 -0.77018,0.4355 -1.35352,0.4355 l -2,0 0,15.8926 c 0,0.6693 0.4149,1.1074 0.82227,1.1074 l 12.35351,0 c 0.4074,0 0.82422,-0.4381 0.82422,-1.1074 l 0,-17.8926 -9,0 z m -3.50781,4 0,0.01 c 0.28146,0 0.51081,0.2244 0.50781,0.5059 l 0,4 c 0.005,0.3381 -0.24761,0.5058 -0.5,0.5058 -0.25239,0 -0.5,-0.012 -0.5,-0.012 l 0,-4.9922 c 0,0 0.21684,-0.014 0.49219,-0.014 z m 0.008,16 0,1 11,0 0,-1 -11,0 z" id="rect4369" style="font-size:medium;font-style:normal;font-variant:normal;font-weight:normal;font-stretch:normal;text-indent:0;text-align:start;text-decoration:none;line-height:normal;letter-spacing:normal;word-spacing:normal;text-transform:none;direction:ltr;block-progression:tb;writing-mode:lr-tb;text-anchor:start;baseline-shift:baseline;color:#000000;fill:#000000;fill-opacity:1;fill-rule:nonzero;stroke:none;visibility:visible;display:inline;overflow:visible;enable-background:accumulate;font-family:sans-serif"/></g></svg>