<?xml version="1.0" encoding="UTF-8"?>
<!DOCTYPE svg PUBLIC "-//W3C//DTD SVG 1.1//EN" "http://www.w3.org/Graphics/SVG/1.1/DTD/svg11.dtd">
<!-- Creator: CorelDRAW -->
<svg xmlns="http://www.w3.org/2000/svg" xml:space="preserve" width="9.5517mm" height="9.5287mm" version="1.1" style="shape-rendering:geometricPrecision; text-rendering:geometricPrecision; image-rendering:optimizeQuality; fill-rule:evenodd; clip-rule:evenodd"
viewBox="0 0 112.21 111.94"
 xmlns:xlink="http://www.w3.org/1999/xlink"
 xmlns:xodm="http://www.corel.com/coreldraw/odm/2003">
 <defs>
  <style type="text/css">
   <![CDATA[
    .fil0 {fill:black}
   ]]>
  </style>
 </defs>
 <g id="Layer_x0020_1">
  <metadata id="CorelCorpID_0Corel-Layer"/>
  <g id="_2630186417872">
   <path class="fil0" d="M7.28 91.17l27.24 0c0.62,0 0.81,-0.19 0.81,-0.81l0 -25.62 27.78 0 0 -29.67 28.05 0 0 -28.05 13.76 0 0 97.92 -97.65 0 0 -13.76zm76.61 -86.05l0 22.93 -24.82 0c-1.71,0 -2.97,1.72 -2.97,3.51l0 26.17 -24.82 0c-1.92,0 -3.24,1.75 -3.24,3.78l0 22.39 -24.55 0c-1.94,0 -3.51,1.96 -3.51,4.05l0 20.23c0,1.95 1.36,3.78 3.24,3.78l105.74 0c1.92,0 3.24,-1.75 3.24,-3.78l0 -104.39c0,-2.25 -1.53,-3.78 -3.78,-3.78l-20.77 0c-2.87,0 -3.78,2.22 -3.78,5.12z"/>
   <path class="fil0" d="M14.57 49.36c0,-4.78 0.9,-12.3 -1.41,-14.78 -3.88,-4.17 -9.38,-1.05 -9.38,3.45l0 24.01c0,3.41 2.13,5.66 5.66,5.66 2.87,0 5.93,-3.91 8.43,-6.41l48.15 -48.15c1.98,-1.97 2.76,-2.59 2.76,-5.6 0,-2.58 -2.44,-4.86 -5.39,-4.86 -2.86,0 -5.33,3.31 -6.95,4.92 -4.14,4.14 -40.46,40.79 -41.88,41.74z"/>
   <path class="fil0" d="M63.12 93.6l29.94 0c-0.22,-0.93 -4.59,-8.27 -5.41,-9.7l-9.16 -16.2c-1.1,0.29 -0.99,0.89 -2.17,2.95l-5.65 9.72c-2.41,4.46 -5.16,8.7 -7.55,13.22z"/>
  </g>
 </g>
</svg>
