<svg xmlns="http://www.w3.org/2000/svg" xml:space="preserve" width="48" height="48" version="1.1" style="shape-rendering:geometricPrecision; text-rendering:geometricPrecision; image-rendering:optimizeQuality; fill-rule:evenodd; clip-rule:evenodd"
viewBox="0 0 87.78 123.27"
 xmlns:xlink="http://www.w3.org/1999/xlink"
 xmlns:xodm="http://www.corel.com/coreldraw/odm/2003">
 <g id="Layer_x0020_1">
  <path class="fil0" d="M43.89 0c12.07,0 23.05,4.94 31,12.89 7.95,7.95 12.89,18.93 12.89,31l0 7.38 0 14.25 0 4.37 0 13.83 0 3.5 0 13.83 0 22.23 -4.7 0 -63.24 0 -19.85 0 0 -79.38c0,-12.07 4.94,-23.05 12.89,-31 7.95,-7.95 18.93,-12.89 31,-12.89zm-0.45 18.94l-10.53 10.4c3.65,1.48 7.17,2.37 10.53,2.55 3.36,-0.19 6.87,-1.07 10.53,-2.55l-10.53 -10.4zm-1.81 -14.66l0 -0.02c-10.02,0.57 -19.07,4.9 -25.77,11.6 -7.2,7.2 -11.66,17.12 -11.66,28.03l0 75.19 12.01 0 0 -14.17c0,-1 0.41,-1.91 1.07,-2.57l0.01 -0.01c0.66,-0.66 1.57,-1.07 2.57,-1.07l14.37 0c-0,-0.07 -0.01,-0.15 -0.01,-0.22l0 -13.83c0,-0.98 0.4,-1.87 1.04,-2.51 0.64,-0.64 1.53,-1.04 2.51,-1.04l13.95 0 0 -13.78c0,-0.98 0.4,-1.87 1.04,-2.51 0.64,-0.64 1.53,-1.04 2.51,-1.04l14.13 0c-0.07,-0.26 -0.1,-0.54 -0.1,-0.82l0 -14.25c0,-0.92 0.38,-1.76 0.98,-2.36 0.6,-0.6 1.44,-0.98 2.36,-0.98l10.97 0 0 -4.04c0,-10.92 -4.47,-20.84 -11.66,-28.03 -6.77,-6.77 -15.95,-11.12 -26.1,-11.61l0 0.04 0 10.8 13.62 13c1.14,1.2 0.9,2.7 -0.02,3.48 -4.66,3.18 -9.65,4.61 -14.92,4.56 -0.35,-0 -0.71,-0.02 -1.06,-0.03 -0.36,0.02 -0.71,0.03 -1.06,0.03 -5.27,0.06 -10.27,-1.37 -14.92,-4.56 -0.91,-0.78 -1.16,-2.28 -0.02,-3.48l14.19 -13.54 0 -10.25zm-0.11 39.71c0,-1.16 0.94,-2.1 2.1,-2.1 1.16,0 2.1,0.94 2.1,2.1l0 7.88c0,1.16 -0.94,2.1 -2.1,2.1 -1.16,0 -2.1,-0.94 -2.1,-2.1l0 -7.88zm15.97 -5.63c-0.67,-0.94 -1.98,-1.16 -2.92,-0.49 -0.94,0.67 -1.16,1.98 -0.49,2.92l4.75 6.67c0.67,0.94 1.98,1.16 2.92,0.49 0.94,-0.67 1.16,-1.98 0.49,-2.92l-4.75 -6.67zm-27.63 0.05c0.67,-0.94 1.98,-1.16 2.92,-0.49 0.94,0.67 1.16,1.98 0.49,2.92l-4.74 6.67c-0.67,0.94 -1.98,1.16 -2.92,0.49 -0.94,-0.67 -1.16,-1.98 -0.49,-2.92l4.74 -6.67zm53.73 13.73l-10.11 0 0 12.53 10.11 0 0 -12.53zm0 18.41l-27.69 0 0 12.53 27.69 0 0 -12.53zm0 17.33l-45.18 0 0 12.53 45.18 0 0 -12.53zm-1.05 17.6l-62.14 0 0 13.62 62.14 0 0 -13.62z"/>
 </g>
</svg>
