<?xml version="1.0" encoding="UTF-8"?>
<!DOCTYPE svg PUBLIC "-//W3C//DTD SVG 1.1//EN" "http://www.w3.org/Graphics/SVG/1.1/DTD/svg11.dtd">
<!-- Creator: CorelDRAW -->
<svg xmlns="http://www.w3.org/2000/svg" xml:space="preserve" width="3.3693mm" height="5.9767mm" version="1.1" style="shape-rendering:geometricPrecision; text-rendering:geometricPrecision; image-rendering:optimizeQuality; fill-rule:evenodd; clip-rule:evenodd"
viewBox="0 0 9.1 16.14"
 xmlns:xlink="http://www.w3.org/1999/xlink"
 xmlns:xodm="http://www.corel.com/coreldraw/odm/2003">
 <defs>
  <style type="text/css">
   <![CDATA[
    .fil0 {fill:#2B2A29}
   ]]>
  </style>
 </defs>
 <g id="Layer_x0020_1">
  <metadata id="CorelCorpID_0Corel-Layer"/>
  <path class="fil0" d="M1.68 9.42c-0.24,0 -0.47,-0.18 -0.47,-0.41l0 -1.26c0,-0.61 0.91,-0.6 0.91,0l0 1.2c0,0.26 -0.19,0.47 -0.44,0.47zm-1.67 5.23c0,0.46 0.57,0.41 0.82,0.41 0,0.57 -0.11,1.07 0.54,1.07 0.52,0 0.41,-0.74 0.41,-1.07l5.48 0c0,0.59 -0.1,1.07 0.54,1.07 0.52,0 0.41,-0.74 0.41,-1.07 0.27,0 0.88,0.06 0.88,-0.41l0 -8.35 -9.08 0 0 8.35z"/>
  <path class="fil0" d="M0.53 0l8.05 0c0.29,0 0.53,0.24 0.53,0.53l0 4.26 -0.01 0 0 0.53 -9.08 0 0 -0.53 -0.01 0 0 -4.26c0,-0.29 0.24,-0.53 0.53,-0.53zm1.16 4.46c-0.24,0 -0.47,-0.18 -0.47,-0.41l0 -1.26c0,-0.61 0.91,-0.6 0.91,0l0 1.2c0,0.26 -0.19,0.47 -0.44,0.47z"/>
 </g>
</svg>
