<?xml version="1.0" encoding="UTF-8"?>
<!DOCTYPE svg PUBLIC "-//W3C//DTD SVG 1.1//EN" "http://www.w3.org/Graphics/SVG/1.1/DTD/svg11.dtd">
<!-- Creator: CorelDRAW -->
<svg xmlns="http://www.w3.org/2000/svg" xml:space="preserve" width="7.0485mm" height="10.8091mm" version="1.1" style="shape-rendering:geometricPrecision; text-rendering:geometricPrecision; image-rendering:optimizeQuality; fill-rule:evenodd; clip-rule:evenodd"
viewBox="0 0 34.51 52.92"
 xmlns:xlink="http://www.w3.org/1999/xlink"
 xmlns:xodm="http://www.corel.com/coreldraw/odm/2003">
 <defs>
  <style type="text/css">
   <![CDATA[
    .fil0 {fill:#2B2A29}
   ]]>
  </style>
 </defs>
 <g id="Layer_x0020_1">
  <metadata id="CorelCorpID_0Corel-Layer"/>
  <path class="fil0" d="M34.45 5.8c-0.13,0.4 -0.51,0.68 -0.95,0.68 -0.55,0 -1,-0.45 -1,-1l0 -2.61c-0.02,-0.22 -0.12,-0.43 -0.28,-0.59 -0.18,-0.18 -0.42,-0.28 -0.67,-0.28l-28.59 0c-0.25,0 -0.49,0.1 -0.67,0.28 -0.18,0.18 -0.28,0.42 -0.28,0.67l0 17.1c0,0.06 0.02,0.11 0.06,0.15 0.04,0.04 0.09,0.06 0.15,0.06l30.06 0c0.06,0 0.11,-0.02 0.15,-0.06 0.04,-0.04 0.06,-0.09 0.06,-0.15l0 -6.41c-0,-0.03 -0,-0.06 -0,-0.09l0 -4.58c0,-0.55 0.45,-1 1,-1 0.48,0 0.88,0.34 0.98,0.79l0.03 0 0 41.21c0,0.78 -0.31,1.53 -0.87,2.09 -0.55,0.55 -1.3,0.87 -2.09,0.87l-28.59 0c-0.79,0 -1.53,-0.31 -2.09,-0.87 -0.55,-0.56 -0.87,-1.3 -0.87,-2.09l0 -0.78c-0.01,-0.05 -0.01,-0.11 -0.01,-0.16l0 -4.58c0,-0.55 0.45,-1 1,-1 0.43,0 0.8,0.28 0.94,0.66l0.07 0 0 5.86c0,0.25 0.1,0.49 0.28,0.67 0.18,0.18 0.42,0.28 0.67,0.28l28.59 0c0.25,0 0.49,-0.1 0.67,-0.28 0.18,-0.18 0.28,-0.42 0.28,-0.67l0 -27.71c-0.07,0.01 -0.14,0.01 -0.22,0.01l-21.22 0 -1.4 2.83 -0.12 0.24c-0.25,0.5 -0.51,0.77 -1.12,0.77l-6.42 0 0 15.04 -0.01 0c-0.01,0.54 -0.46,0.97 -1,0.97 -0.55,0 -1,-0.45 -1,-1l0 -4.58c0,-0.05 0,-0.11 0.01,-0.16l0 -34.15c0,-0.59 0.23,-1.15 0.65,-1.57 0.42,-0.42 0.98,-0.65 1.57,-0.65l30.06 0c0.59,0 1.15,0.23 1.57,0.65 0.42,0.42 0.65,0.98 0.65,1.57l0 3.58 -0.06 0zm-31.26 1.05c0,-2.9 4.95,-3.55 4.95,0.62l0 6.67c0,4.17 -4.95,3.52 -4.95,0.62l0 -7.91zm-1.17 17.26l5.92 0 0.9 -1.83 -6.82 0 0 1.83zm3.79 -9.3c0.16,-1.09 0.13,-6.75 -0.02,-8.01 -0.13,-0.03 -0.26,-0.06 -0.32,-0.02 -0.01,0.02 -0.01,0.06 -0.01,0.08l0 7.91c0,0.02 -0,0.06 0.01,0.08 0.05,0.04 0.2,0.01 0.33,-0.03z"/>
 </g>
</svg>
