<svg aria-hidden="true" xmlns="http://www.w3.org/2000/svg" xmlns:xlink="http://www.w3.org/1999/xlink"><symbol viewBox="0 0 16 16" id="collection_info" xmlns="http://www.w3.org/2000/svg">
  <path fill-rule="evenodd" d="M10.854 7.146a.5.5 0 0 1 0 .708l-3 3a.5.5 0 0 1-.708 0l-1.5-1.5a.5.5 0 1 1 .708-.708L7.5 9.793l2.646-2.647a.5.5 0 0 1 .708 0z"/>
  <path d="M4 1.5H3a2 2 0 0 0-2 2V14a2 2 0 0 0 2 2h10a2 2 0 0 0 2-2V3.5a2 2 0 0 0-2-2h-1v1h1a1 1 0 0 1 1 1V14a1 1 0 0 1-1 1H3a1 1 0 0 1-1-1V3.5a1 1 0 0 1 1-1h1v-1z"/>
  <path d="M9.5 1a.5.5 0 0 1 .5.5v1a.5.5 0 0 1-.5.5h-3a.5.5 0 0 1-.5-.5v-1a.5.5 0 0 1 .5-.5h3zm-3-1A1.5 1.5 0 0 0 5 1.5v1A1.5 1.5 0 0 0 6.5 4h3A1.5 1.5 0 0 0 11 2.5v-1A1.5 1.5 0 0 0 9.5 0h-3z"/>
</symbol><symbol viewBox="0 0 16 16" id="communication" xmlns="http://www.w3.org/2000/svg">
  <path d="M5 8a1 1 0 1 1-2 0 1 1 0 0 1 2 0zm4 0a1 1 0 1 1-2 0 1 1 0 0 1 2 0zm3 1a1 1 0 1 0 0-2 1 1 0 0 0 0 2z"/>
  <path d="m2.165 15.803.02-.004c1.83-.363 2.948-.842 3.468-1.105A9.06 9.06 0 0 0 8 15c4.418 0 8-3.134 8-7s-3.582-7-8-7-8 3.134-8 7c0 1.76.743 3.37 1.97 4.6a10.437 10.437 0 0 1-.524 2.318l-.003.011a10.722 10.722 0 0 1-.244.637c-.079.186.074.394.273.362a21.673 21.673 0 0 0 .693-.125zm.8-3.108a1 1 0 0 0-.287-.801C1.618 10.83 1 9.468 1 8c0-3.192 3.004-6 7-6s7 2.808 7 6c0 3.193-3.004 6-7 6a8.06 8.06 0 0 1-2.088-.272 1 1 0 0 0-.711.074c-.387.196-1.24.57-2.634.893a10.97 10.97 0 0 0 .398-2z"/>
</symbol><symbol viewBox="0 0 16 16" id="design" xmlns="http://www.w3.org/2000/svg">
  <path d="M6 1v3H1V1h5zM1 0a1 1 0 0 0-1 1v3a1 1 0 0 0 1 1h5a1 1 0 0 0 1-1V1a1 1 0 0 0-1-1H1zm14 12v3h-5v-3h5zm-5-1a1 1 0 0 0-1 1v3a1 1 0 0 0 1 1h5a1 1 0 0 0 1-1v-3a1 1 0 0 0-1-1h-5zM6 8v7H1V8h5zM1 7a1 1 0 0 0-1 1v7a1 1 0 0 0 1 1h5a1 1 0 0 0 1-1V8a1 1 0 0 0-1-1H1zm14-6v7h-5V1h5zm-5-1a1 1 0 0 0-1 1v7a1 1 0 0 0 1 1h5a1 1 0 0 0 1-1V1a1 1 0 0 0-1-1h-5z"/>
</symbol><symbol viewBox="0 0 16 16" id="email" xmlns="http://www.w3.org/2000/svg">
   <path d="M.05 3.555A2 2 0 0 1 2 2h12a2 2 0 0 1 1.95 1.555L8 8.414.05 3.555ZM0 4.697v7.104l5.803-3.558L0 4.697ZM6.761 8.83l-6.57 4.027A2 2 0 0 0 2 14h12a2 2 0 0 0 1.808-1.144l-6.57-4.027L8 9.586l-1.239-.757Zm3.436-.586L16 11.801V4.697l-5.803 3.546Z"/>
</symbol><symbol viewBox="0 0 16 16" id="phone" xmlns="http://www.w3.org/2000/svg">
   <path fill-rule="evenodd" d="M1.885.511a1.745 1.745 0 0 1 2.61.163L6.29 2.98c.329.423.445.974.315 1.494l-.547 2.19a.678.678 0 0 0 .178.643l2.457 2.457a.678.678 0 0 0 .644.178l2.189-.547a1.745 1.745 0 0 1 1.494.315l2.306 1.794c.829.645.905 1.87.163 2.611l-1.034 1.034c-.74.74-1.846 1.065-2.877.702a18.634 18.634 0 0 1-7.01-4.42 18.634 18.634 0 0 1-4.42-7.009c-.362-1.03-.037-2.137.703-2.877L1.885.511z"/>
</symbol><symbol viewBox="0 0 16 16" id="point" xmlns="http://www.w3.org/2000/svg">
   <path d="M8 16s6-5.686 6-10A6 6 0 0 0 2 6c0 4.314 6 10 6 10zm0-7a3 3 0 1 1 0-6 3 3 0 0 1 0 6z"/>
</symbol><symbol viewBox="0 0 16 16" id="service" xmlns="http://www.w3.org/2000/svg">
  <path d="M8 16A8 8 0 1 0 8 0a8 8 0 0 0 0 16zm6.43-5.228a7.025 7.025 0 0 1-3.658 3.658l-1.115-2.788a4.015 4.015 0 0 0 1.985-1.985l2.788 1.115zM5.228 14.43a7.025 7.025 0 0 1-3.658-3.658l2.788-1.115a4.015 4.015 0 0 0 1.985 1.985L5.228 14.43zm9.202-9.202-2.788 1.115a4.015 4.015 0 0 0-1.985-1.985l1.115-2.788a7.025 7.025 0 0 1 3.658 3.658zm-8.087-.87a4.015 4.015 0 0 0-1.985 1.985L1.57 5.228A7.025 7.025 0 0 1 5.228 1.57l1.115 2.788zM8 11a3 3 0 1 1 0-6 3 3 0 0 1 0 6z"/>
</symbol><symbol viewBox="0 0 16 16" id="tools" xmlns="http://www.w3.org/2000/svg">
  <path d="M16 4.5a4.492 4.492 0 0 1-1.703 3.526L13 5l2.959-1.11c.027.2.041.403.041.61Z"/>
  <path d="M11.5 9c.653 0 1.273-.139 1.833-.39L12 5.5 11 3l3.826-1.53A4.5 4.5 0 0 0 7.29 6.092l-6.116 5.096a2.583 2.583 0 1 0 3.638 3.638L9.908 8.71A4.49 4.49 0 0 0 11.5 9Zm-1.292-4.361-.596.893.809-.27a.25.25 0 0 1 .287.377l-.596.893.809-.27.158.475-1.5.5a.25.25 0 0 1-.287-.376l.596-.893-.809.27a.25.25 0 0 1-.287-.377l.596-.893-.809.27-.158-.475 1.5-.5a.25.25 0 0 1 .287.376ZM3 14a1 1 0 1 1 0-2 1 1 0 0 1 0 2Z"/>
</symbol></svg>