<!DOCTYPE svg PUBLIC "-//W3C//DTD SVG 1.1//EN" "http://www.w3.org/Graphics/SVG/1.1/DTD/svg11.dtd"><svg aria-hidden="true" xmlns="http://www.w3.org/2000/svg" xmlns:xlink="http://www.w3.org/1999/xlink"><symbol viewBox="0 0 512 512" id="Basement" xmlns="http://www.w3.org/2000/svg">
	<path d="M128.73 195.32l-82.81-51.76c-8.04-5.02-18.99-2.17-22.93 6.45A254.19 254.19 0 0 0 .54 239.28C-.05 248.37 7.59 256 16.69 256h97.13c7.96 0 14.08-6.25 15.01-14.16 1.09-9.33 3.24-18.33 6.24-26.94 2.56-7.34.25-15.46-6.34-19.58zM319.03 8C298.86 2.82 277.77 0 256 0s-42.86 2.82-63.03 8c-9.17 2.35-13.91 12.6-10.39 21.39l37.47 104.03A16.003 16.003 0 0 0 235.1 144h41.8c6.75 0 12.77-4.23 15.05-10.58l37.47-104.03c3.52-8.79-1.22-19.03-10.39-21.39zM112 288H16c-8.84 0-16 7.16-16 16v64c0 8.84 7.16 16 16 16h96c8.84 0 16-7.16 16-16v-64c0-8.84-7.16-16-16-16zm0 128H16c-8.84 0-16 7.16-16 16v64c0 8.84 7.16 16 16 16h96c8.84 0 16-7.16 16-16v-64c0-8.84-7.16-16-16-16zm77.31-283.67l-36.32-90.8c-3.53-8.83-14.13-12.99-22.42-8.31a257.308 257.308 0 0 0-71.61 59.89c-6.06 7.32-3.85 18.48 4.22 23.52l82.93 51.83c6.51 4.07 14.66 2.62 20.11-2.79 5.18-5.15 10.79-9.85 16.79-14.05 6.28-4.41 9.15-12.17 6.3-19.29zM398.18 256h97.13c9.1 0 16.74-7.63 16.15-16.72a254.135 254.135 0 0 0-22.45-89.27c-3.94-8.62-14.89-11.47-22.93-6.45l-82.81 51.76c-6.59 4.12-8.9 12.24-6.34 19.58 3.01 8.61 5.15 17.62 6.24 26.94.93 7.91 7.05 14.16 15.01 14.16zm54.85-162.89a257.308 257.308 0 0 0-71.61-59.89c-8.28-4.68-18.88-.52-22.42 8.31l-36.32 90.8c-2.85 7.12.02 14.88 6.3 19.28 6 4.2 11.61 8.9 16.79 14.05 5.44 5.41 13.6 6.86 20.11 2.79l82.93-51.83c8.07-5.03 10.29-16.19 4.22-23.51zM496 288h-96c-8.84 0-16 7.16-16 16v64c0 8.84 7.16 16 16 16h96c8.84 0 16-7.16 16-16v-64c0-8.84-7.16-16-16-16zm0 128h-96c-8.84 0-16 7.16-16 16v64c0 8.84 7.16 16 16 16h96c8.84 0 16-7.16 16-16v-64c0-8.84-7.16-16-16-16zM240 177.62V472c0 4.42 3.58 8 8 8h16c4.42 0 8-3.58 8-8V177.62c-5.23-.89-10.52-1.62-16-1.62s-10.77.73-16 1.62zm-64 41.51V472c0 4.42 3.58 8 8 8h16c4.42 0 8-3.58 8-8V189.36c-12.78 7.45-23.84 17.47-32 29.77zm128-29.77V472c0 4.42 3.58 8 8 8h16c4.42 0 8-3.58 8-8V219.13c-8.16-12.3-19.22-22.32-32-29.77z"/>
</symbol><symbol id="Dishes" viewBox="0 0 32 32" xml:space="preserve" xmlns="http://www.w3.org/2000/svg"><style type="text/css">.st0{fill:none;stroke:#000000;stroke-width:2;stroke-linecap:round;stroke-linejoin:round;stroke-miterlimit:10;}</style><circle cx="13" cy="18" r="4"/><path d="M30,23.8l-2.1-3.4c-0.4-0.7-0.3-1.6,0.2-2.2c1.3-1.4,1.3-3.5,0-4.9l-0.9-0.9C27,12.1,26.8,12,26.5,12H25V9.1  c1.2,0.2,2.4,0.7,3.3,1.6c0.2,0.2,0.5,0.3,0.7,0.3s0.5-0.1,0.7-0.3c0.4-0.4,0.4-1,0-1.4C28.2,7.8,26.3,7,24.2,7H22c-0.6,0-1,0.4-1,1  s0.4,1,1,1h1v3h-1.5c-0.3,0-0.5,0.1-0.7,0.3l-0.9,0.9c-1.3,1.4-1.3,3.5,0,4.9c0.6,0.6,0.7,1.5,0.2,2.2L18,23.8  c-0.8,1.3-0.8,2.8-0.1,4.1c0.7,1.3,2.1,2.1,3.6,2.1h5c1.5,0,2.8-0.8,3.6-2.1C30.8,26.6,30.7,25,30,23.8z M21.4,14.6L22,14H26  l0.6,0.6c0.6,0.6,0.6,1.5,0,2.1c-1.1,1.2-1.3,2.8-0.7,4.3h-3.9c0.7-1.4,0.4-3.1-0.7-4.3C20.8,16.2,20.8,15.2,21.4,14.6z"/><g><path d="M16.2,28.9c-1-1.8-1-4-0.1-5.8c-0.9,0.6-2,0.9-3.1,0.9c-3.3,0-6-2.7-6-6s2.7-6,6-6c1.7,0,3.2,0.7,4.3,1.8   c0.2-0.7,0.6-1.4,1.2-1.9l0.9-0.9c0.2-0.2,0.5-0.4,0.8-0.6C19.4,9.8,19,8.9,19,8c0-0.1,0-0.2,0-0.4c-1.8-1-3.9-1.6-6-1.6   C6.4,6,1,11.4,1,18s5.4,12,12,12c1.2,0,2.4-0.2,3.6-0.6C16.4,29.3,16.3,29.1,16.2,28.9z"/></g></symbol><symbol id="Stains" viewBox="0 0 512 512" enable-background="new 0 0 512 512" xml:space="preserve" xmlns="http://www.w3.org/2000/svg">
	<g>
		<g>
			<g>
				<g>
					<g>
						<path d="M487.8,430.7c-30.9,0-61.9,0-92.8,0c-63.5,0-127,0-190.5,0c-52.1,0-104.1,0-156.2,0c-8,0-16,0-24,0       c2.5,2.5,5,5,7.5,7.5c0-24.5,0-49,0-73.6c0-9.6,0-19.2,0-28.8c0-20,6.7-39.8,19.1-55.5c13.6-17.1,32.8-28.3,54.1-32.5       c7.4-1.4,15-1.4,22.5-1.4c21.9,0,43.9,0,65.8,0c59.2,0,118.4,0,177.7,0c6.2,0,12.4,0,18.7,0c14.6,0,28.8,3,41.9,9.6       c18.9,9.6,34.2,26.1,42.2,45.7c5.3,13.1,6.6,26.5,6.6,40.5c0,31.9,0,63.9,0,95.8c0,9.7,15,9.7,15,0c0-24.5,0-49,0-73.6       c0-9.6,0-19.2,0-28.8c0-21.1-6.4-42-18.4-59.3c-20.3-29.4-53.5-45-88.8-45c-19.6,0-39.2,0-58.8,0c-60.3,0-120.7,0-181,0       c-18.4,0-37.1-1.1-55,3.7c-44.9,12-76.1,54.4-76.4,100.4c-0.2,34.2,0,68.4,0,102.5c0,4.1,3.4,7.5,7.5,7.5c30.9,0,61.9,0,92.8,0       c63.5,0,127,0,190.5,0c52.1,0,104.1,0,156.2,0c8,0,16,0,24,0C497.5,445.7,497.5,430.7,487.8,430.7z"/>
					</g>
				</g>
				<g>
					<g>
						<g>
							<g>
								<path d="M26.2,375.9c30.9-7.1,62.8-17.8,94.8-12.6c18.5,3,35.9,8.9,55,9.5c18.9,0.5,36.8-4.4,55.1-8.4         c15.1-3.4,31.1-3.4,46.4-0.7c7.1,1.2,14.1,3.1,21.1,4.7c23.1,5.3,45.7,5.5,68.9,0.2c6.7-1.5,13.3-3.2,20-4.6         c15.2-3.1,31.2-2.9,46.4,0c12.7,2.4,25.2,5.8,37.8,8.6c4.8,1.1,9.5,2.2,14.3,3.3c9.4,2.2,13.4-12.3,4-14.5         c-31.1-7.2-62.9-17.5-95.2-13.7c-18.5,2.2-36.1,8.8-54.8,9.9c-18.9,1.1-36.6-3.7-54.8-7.7c-15.3-3.4-31.2-3.9-46.8-1.9         c-8.5,1.1-16.8,3.2-25.2,5.1c-9.8,2.3-19.5,4.2-29.6,4.6c-11.8,0.5-23.3-1-34.8-3.7c-22.3-5.1-43.9-9.2-66.9-5.8         c-14,2-27.8,5.9-41.5,9c-6,1.4-12,2.8-18,4.1C12.8,363.7,16.8,378.1,26.2,375.9L26.2,375.9z"/>
							</g>
						</g>
					</g>
				</g>
			</g>
			<g>
				<g>
					<path d="M48.7,281c0-46.3,0-92.7,0-139c0-37.8,37-60.7,71.6-60.7c16,0,32,0,48,0c61.2,0,122.5,0,183.7,0c13.9,0,27.8-0.1,41.7,0      c21.8,0.2,44.7,9.6,58.2,27.2c8.3,10.8,11.4,23.1,11.4,36.5c0,45.3,0,90.7,0,136c0,9.7,15,9.7,15,0c0-46.3,0-92.7,0-139      c0-44.8-41.4-74-83.1-75.6c-14.1-0.6-28.3,0-42.4,0c-61.2,0-122.5,0-183.7,0c-16.2,0-32.5,0-48.7,0c-41.4,0-83.2,27.1-86.6,70.9      c-0.6,7.2-0.1,14.6-0.1,21.8c0,14.7,0,29.4,0,44.1c0,25.5,0,50.9,0,76.4c0,0.5,0,1,0,1.5C33.7,290.7,48.7,290.7,48.7,281      L48.7,281z"/>
				</g>
			</g>
		</g>
		<g>
			<g>
				<path d="M229.9,231.6c-24.2,0-48.4,0-72.6,0c-11,0-22,0-33,0c-3.4,0-6.1-1.4-6.1-5.2c0-5.3,0-10.7,0-16c0-12.3,0-24.7,0-37     c0-4.4,4-4.7,7.3-4.7c4.6,0,9.3,0,13.9,0c28.5,0,57,0,85.5,0c3.8,0,9.3-0.8,9.6,4.7c0.3,5.5,0,11.1,0,16.6c0,9.4,0,18.7,0,28.1     C234.5,222.2,236.3,231.2,229.9,231.6c-9.6,0.5-9.7,15.5,0,15c11-0.6,19.7-8.8,19.7-20c0-5.1,0-10.2,0-15.3c0-12.6,0-25.2,0-37.9     c0-10.7-8.9-19.8-19.7-19.8c-2.7,0-5.3,0-8,0c-14,0-28,0-42,0c-14.9,0-29.8,0-44.7,0c-11.9,0-25.2-1-30.6,12.6     c-1.9,4.8-1.3,10.2-1.3,15.2c0,7.7,0,15.4,0,23.1c0,6.6,0,13.1,0,19.7c0,8.2,2.6,15,9.7,19.7c6.1,4,15.9,2.7,22.9,2.7     c12.3,0,24.7,0,37,0c19,0,38,0,57,0C239.6,246.6,239.6,231.6,229.9,231.6z"/>
			</g>
		</g>
		<g>
			<g>
				<path d="M389.1,231.6c-24.2,0-48.4,0-72.6,0c-11,0-22,0-33,0c-3.4,0-6.1-1.4-6.1-5.2c0-5.3,0-10.7,0-16c0-12.3,0-24.7,0-37     c0-4.4,4-4.7,7.3-4.7c4.6,0,9.3,0,13.9,0c28.5,0,57,0,85.5,0c3.8,0,9.3-0.8,9.6,4.7c0.3,5.5,0,11.1,0,16.6c0,9.4,0,18.7,0,28.1     C393.8,222.2,395.5,231.2,389.1,231.6c-9.6,0.5-9.7,15.5,0,15c11-0.6,19.7-8.8,19.7-20c0-5.1,0-10.2,0-15.3c0-12.6,0-25.2,0-37.9     c0-10.7-8.9-19.8-19.7-19.8c-2.7,0-5.3,0-8,0c-14,0-28,0-42,0c-14.9,0-29.8,0-44.7,0c-11.9,0-25.2-1-30.6,12.6     c-1.9,4.8-1.3,10.2-1.3,15.2c0,7.7,0,15.4,0,23.1c0,6.6,0,13.1,0,19.7c0,8.2,2.6,15,9.7,19.7c6.1,4,15.9,2.7,22.9,2.7     c12.3,0,24.7,0,37,0c19,0,38,0,57,0C398.8,246.6,398.8,231.6,389.1,231.6z"/>
			</g>
		</g>
	</g>
</symbol><symbol enable-background="new 0 0 64 64" id="fridge" viewBox="0 0 64 64" xml:space="preserve" xmlns="http://www.w3.org/2000/svg"><g><path d="M42,5H22c-2.207,0.004-3.996,1.793-4,4v44c0.003,1.859,1.28,3.408,3,3.857V58c0,0.552,0.448,1,1,1   s1-0.448,1-1v-1h18v1c0,0.552,0.448,1,1,1s1-0.448,1-1v-1.143c1.72-0.449,2.997-1.998,3-3.857V9C45.996,6.793,44.207,5.004,42,5z    M20.588,7.588C20.956,7.223,21.451,7,22,7h20c0.549,0,1.044,0.223,1.412,0.588C43.777,7.956,44,8.451,44,9v12H20V9   C20,8.451,20.223,7.956,20.588,7.588z M43.412,54.412C43.044,54.777,42.549,55,42,55H22c-0.549,0-1.044-0.223-1.412-0.588   C20.223,54.044,20,53.549,20,53V23h24v30C44,53.549,43.777,54.044,43.412,54.412z"/><path d="M24,18c0.552,0,1-0.448,1-1v-6c0-0.552-0.448-1-1-1s-1,0.448-1,1v6C23,17.552,23.448,18,24,18z"/><path d="M24,26c-0.552,0-1,0.448-1,1v6c0,0.552,0.448,1,1,1s1-0.448,1-1v-6C25,26.448,24.552,26,24,26z"/></g></symbol><symbol id="oven" viewBox="0 0 32 32" xmlns="http://www.w3.org/2000/svg"><title/><path d="M23.91,4A1.5,1.5,0,0,0,22.5,3h-4a1.5,1.5,0,0,0-1.41,1H12.91A1.5,1.5,0,0,0,11.5,3h-2A1.5,1.5,0,0,0,8.09,4H6V29H26V4H23.91ZM25,5V9H7V5H25ZM7,28V10H25V28H7Z"/><circle cx="9" cy="7" r="1"/><circle cx="17" cy="7" r="1"/><circle cx="14" cy="7" r="1"/><circle cx="20" cy="7" r="1"/><circle cx="23" cy="7" r="1"/><rect height="1" width="8" x="12" y="11"/><path d="M20.5,13h-9A2.5,2.5,0,0,0,9,15.5v6A2.5,2.5,0,0,0,11.5,24h9A2.5,2.5,0,0,0,23,21.5v-6A2.5,2.5,0,0,0,20.5,13ZM22,21.5A1.5,1.5,0,0,1,20.5,23h-9A1.5,1.5,0,0,1,10,21.5v-6A1.5,1.5,0,0,1,11.5,14h9A1.5,1.5,0,0,1,22,15.5v6Z"/></symbol><symbol viewBox="0 0 48 48" id="pets" xmlns="http://www.w3.org/2000/svg">
	<path id="ei-424" d="M18.811,17.982c0.229,0.043,0.442,0.063,0.643,0.063c2.63,0,3.017-2.977,3.357-5.602c0.057-0.428,0.112-0.861,0.179-1.293 c0.248-1.635,0.462-4.611-0.897-6.193C21.554,4.33,20.83,4,20,4c-2.792,0-5.241,3.395-5.864,5.74 c-0.543,2.031-0.301,4.076,0.664,5.613C15.669,16.738,17.055,17.646,18.811,17.982z M16.067,10.256C16.567,8.381,18.518,6,20,6 c0.245,0,0.417,0.078,0.575,0.262c0.586,0.68,0.756,2.48,0.436,4.588c-0.066,0.447-0.125,0.895-0.183,1.336 c-0.303,2.332-0.562,3.859-1.375,3.859c-0.085,0-0.175-0.01-0.27-0.027c-1.211-0.23-2.116-0.813-2.69-1.727 C15.823,13.223,15.667,11.752,16.067,10.256z M28.907,17.992c0.147,0.012,0.271,0.008,0.434,0.018c3.51,0,5.387-3.592,5.646-6.934 c0.151-1.957-0.588-4.072-1.93-5.523C32.13,4.553,31.033,4,29.97,4c-2.975,0-3.442,3.24-3.855,6.1l-0.109,0.75 c-0.451,2.986-0.246,4.834,0.664,5.988C27.2,17.512,27.974,17.912,28.907,17.992z M27.982,11.148l0.111-0.762 C28.488,7.656,28.81,6,29.97,6c0.492,0,1.083,0.332,1.619,0.912c0.766,0.826,1.536,2.314,1.404,4.01 c-0.197,2.547-1.534,5.268-3.915,5.078c-0.498-0.043-0.71-0.236-0.839-0.4C27.722,14.943,27.634,13.445,27.982,11.148z M12.815,28.857c1.13,0,2.129-0.396,2.888-1.146c0.635-0.627,2.601-2.986,1.244-6.998c-0.46-1.359-2.757-4.773-5.454-4.773 c-0.25,0-0.498,0.029-0.737,0.09C7.924,16.74,7,21.455,7,23c0,2.146,0.879,3.869,2.474,4.85 C9.964,28.154,11.272,28.857,12.815,28.857C12.815,28.857,12.814,28.857,12.815,28.857z M9,23c0-1.326,0.87-4.686,2.243-5.031 c0.08-0.02,0.162-0.029,0.25-0.029c1.388,0,3.215,2.396,3.56,3.414c0.958,2.832-0.21,4.395-0.756,4.936 c-0.388,0.383-0.873,0.568-1.482,0.568c-0.841,0-1.734-0.365-2.292-0.709C9.513,25.525,9,24.467,9,23z M38.495,17.137 c-0.436-0.256-0.931-0.385-1.473-0.385c-2.426,0-5.135,2.607-5.855,3.695c-1.624,2.445-3.645,5.49-0.874,8.26 c1.028,1.027,2.333,1.549,3.878,1.549c0.657,0,1.356-0.098,2.082-0.291c1.622-0.441,2.324-1.514,3.387-3.135l0.183-0.277 c0.871-1.318,1.087-2.652,1.165-4.51C41.057,20.42,40.928,18.57,38.495,17.137z M38.989,21.957 c-0.066,1.545-0.218,2.559-0.837,3.494l-0.187,0.283c-1.046,1.598-1.386,2.068-2.234,2.299c-0.552,0.148-1.077,0.223-1.561,0.223 c-1.01,0-1.815-0.314-2.464-0.963c-1.297-1.297-1.075-2.424,1.126-5.74c0.636-0.959,2.842-2.801,4.189-2.801 c0.184,0,0.335,0.037,0.459,0.109C38.851,19.668,39.053,20.468,38.989,21.957z M32.368,33.111c-1.642-1.408-4.124-3.537-5.543-5.666 c-0.148-0.221-0.287-0.49-0.434-0.77c-0.563-1.068-1.414-2.686-3.208-2.686c-0.094,0-0.188,0.004-0.291,0.014 c-1.154,0.117-1.869,0.957-2.859,2.117c-1.102,1.291-2.61,3.061-5.589,5.047c-3.176,2.117-3.863,4.496-2.376,8.211 c0.908,2.268,2.703,3.467,5.187,3.467c1.394,0,2.731-0.361,3.708-0.625c0.365-0.098,0.818-0.219,0.9-0.23 c0.272,0.037,1.098,0.34,1.826,0.609c1.691,0.625,3.799,1.4,5.302,1.4c2.387,0,4.563-1.838,5.442-3.654 c0.647-1.344,1.732-3.594-0.738-6.055C33.418,34.014,32.949,33.609,32.368,33.111z M32.591,39.564 C32.115,40.547,30.644,42,28.992,42c-1.146,0-3.148-0.738-4.611-1.275c-1.125-0.416-1.784-0.654-2.254-0.716l-0.21-0.015 c-0.381,0-0.84,0.125-1.474,0.297c-0.868,0.234-2.059,0.555-3.187,0.555c-1.667,0-2.726-0.701-3.33-2.211 c-1.129-2.818-0.733-4.229,1.628-5.803c3.212-2.141,4.891-4.111,6.001-5.414c0.662-0.775,1.184-1.387,1.628-1.428 c0.545,0,0.923,0.641,1.438,1.619c0.182,0.342,0.355,0.67,0.539,0.945c1.572,2.357,4.18,4.594,5.905,6.074 c0.532,0.457,0.964,0.824,1.22,1.08C33.748,37.164,33.28,38.134,32.591,39.564z"/>
</symbol></svg>