<?xml version="1.0" encoding="UTF-8"?>
<!DOCTYPE svg PUBLIC "-//W3C//DTD SVG 1.1//EN" "http://www.w3.org/Graphics/SVG/1.1/DTD/svg11.dtd">
<!-- Creator: CorelDRAW -->
<svg xmlns="http://www.w3.org/2000/svg" xml:space="preserve" width="10.5743mm" height="10.5743mm" version="1.1" style="shape-rendering:geometricPrecision; text-rendering:geometricPrecision; image-rendering:optimizeQuality; fill-rule:evenodd; clip-rule:evenodd"
viewBox="0 0 108.54 108.54"
 xmlns:xlink="http://www.w3.org/1999/xlink"
 xmlns:xodm="http://www.corel.com/coreldraw/odm/2003">
 <defs>
  <style type="text/css">
   <![CDATA[
    .fil0 {fill:black}
   ]]>
  </style>
 </defs>
 <g id="Layer_x0020_1">
  <metadata id="CorelCorpID_0Corel-Layer"/>
  <path class="fil0" d="M16.28 90.45l75.98 0 0 3.62 -75.98 0 0 -3.62zm45.22 -40.47c0,3.29 0.34,2.46 1.48,4.85 0.63,1.32 0.01,3.06 2.14,3.06 1.76,0 1.81,-1.39 1.81,-2.49 0,-2.2 -1.81,-3.61 -1.81,-4.98 0,-2.03 1.81,-2.18 1.81,-5.88 0,-1.09 -0.72,-1.81 -1.81,-1.81 -2.16,0 -1.52,1.85 -2.19,3.24 -0.68,1.4 -1.43,1.85 -1.43,4zm-9.95 0c0,3.29 0.34,2.46 1.48,4.85 0.63,1.32 0.01,3.06 2.14,3.06 1.76,0 1.81,-1.39 1.81,-2.49 0,-2.2 -1.81,-3.61 -1.81,-4.98 0,-2.03 1.81,-2.18 1.81,-5.88 0,-1.09 -0.72,-1.81 -1.81,-1.81 -2.16,0 -1.52,1.85 -2.19,3.24 -0.68,1.4 -1.43,1.85 -1.43,4zm-9.95 0c0,3.29 0.34,2.46 1.48,4.85 0.63,1.32 0.01,3.06 2.14,3.06 1.76,0 1.81,-1.39 1.81,-2.49 0,-2.2 -1.81,-3.61 -1.81,-4.98 0,-2.03 1.81,-2.18 1.81,-5.88 0,-1.09 -0.72,-1.81 -1.81,-1.81 -2.16,0 -1.52,1.85 -2.19,3.24 -0.68,1.4 -1.43,1.85 -1.43,4zm28.94 -37.31c0,-2.28 3.62,-2.28 3.62,0 0,2.28 -3.62,2.28 -3.62,0zm-3.62 -0.45c0,7.88 10.85,7.88 10.85,0 0,-2.77 -2.38,-4.97 -5.88,-4.97 -2.49,0 -4.98,2.49 -4.98,4.97zm-14.47 0.45c0,-2.28 3.62,-2.28 3.62,0 0,2.28 -3.62,2.28 -3.62,0zm-3.62 -0.45c0,7.88 10.85,7.88 10.85,0 0,-2.77 -2.38,-4.97 -5.88,-4.97 -2.49,0 -4.98,2.49 -4.98,4.97zm-14.47 0.45c0,-2.28 3.62,-2.28 3.62,0 0,2.28 -3.62,2.28 -3.62,0zm-3.62 -0.45c0,7.88 10.85,7.88 10.85,0 0,-2.77 -2.38,-4.97 -5.88,-4.97 -2.49,0 -4.97,2.49 -4.97,4.97zm-27.13 89.54l0 -76.43 101.3 0 0 76.43c0,1.98 -1.19,3.17 -3.17,3.17l-94.97 0c-1.98,0 -3.17,-1.19 -3.17,-3.17zm0 -94.97c0,-1.98 1.19,-3.17 3.17,-3.17l94.97 0c1.98,0 3.17,1.19 3.17,3.17l0 14.92 -101.3 0 0 -14.92zm-3.62 -1.13l0 97.23c0,2.65 3,5.65 5.65,5.65l96.78 0c3.02,0 6.11,-2.74 6.11,-5.65l0 -97.23c0,-2.65 -3,-5.65 -5.65,-5.65l-97.23 0c-2.65,0 -5.65,3 -5.65,5.65zm32.56 73.94l43.41 0 0 7.24 -43.41 0 0 -7.24zm-3.62 -5.43c0,-0.89 1.03,-1.81 2.04,-1.81l46.58 0c2.63,0 2.63,3.62 0,3.62l-46.58 0c-1.01,0 -2.04,-0.92 -2.04,-1.81zm18.99 -9.04c4.56,0 14.69,-0.55 18.24,0.98 1.38,0.59 3.18,1.55 3.91,2.64l-31.66 0c1.54,-2.31 6.27,-3.62 9.5,-3.62zm-24.42 -30.75c0,-0.89 1.03,-1.81 2.04,-1.81l57.43 0c2.63,0 2.63,3.62 0,3.62l-57.43 0c-1.01,0 -2.04,-0.92 -2.04,-1.81zm-3.62 -0.68l0 1.13c0,2.49 2.49,4.97 4.98,4.97l58.79 0c2.49,0 4.98,-2.49 4.98,-4.97l-0.23 -2.26 3.84 0 0 54.27 -12.66 0 0 -7.01c0,-1 1.21,-0.67 2.31,-1.99 2.09,-2.54 1.72,-6.46 -1.12,-8.24 -1.84,-1.15 -2.94,-0.85 -5.71,-0.85 -2.63,-3.93 -7.48,-7.24 -12.44,-7.24l-16.28 0c-5.36,0 -10.17,3.18 -12.89,7.24 -2.77,0 -3.87,-0.3 -5.71,0.85 -3.35,2.09 -3.2,7.26 0.01,9.14 0.57,0.34 1.17,0.4 1.17,1.09l0 7.01 -12.66 0 0 -54.27 3.84 0c-0.12,0.51 -0.23,0.52 -0.23,1.13zm-7.24 -2.94l0 65.12c0,1.09 0.71,1.81 1.81,1.81l79.59 0c1.09,0 1.81,-0.72 1.81,-1.81l0 -65.12c0,-1.09 -0.71,-1.81 -1.81,-1.81l-79.59 0c-1.09,0 -1.81,0.72 -1.81,1.81z"/>
 </g>
</svg>
