<?xml version="1.0" encoding="iso-8859-1"?>
<!-- Generator: Adobe Illustrator 19.0.0, SVG Export Plug-In . SVG Version: 6.00 Build 0)  -->
<svg version="1.1" id="Layer_1" xmlns="http://www.w3.org/2000/svg" xmlns:xlink="http://www.w3.org/1999/xlink" x="0px" y="0px"
	 viewBox="0 0 512 512" style="enable-background:new 0 0 512 512;" xml:space="preserve">
<g>
	<g>
		<path d="M265.784,208.784c-0.16,0.174-0.306,0.356-0.474,0.525L157.214,317.404c-3.26,3.26-7.533,4.891-11.805,4.891
			s-8.546-1.631-11.805-4.891c-6.52-6.519-6.52-17.091,0-23.611l85.01-85.01H72.523c-1.228,0-2.225,0.997-2.225,2.225v220.928
			c0,1.228,0.997,2.225,2.225,2.225h14.092l225.378-225.378H265.784z"/>
	</g>
</g>
<g>
	<g>
		<path d="M481.948,0H30.052C13.454,0,0,13.454,0,30.052v74.574h512V30.052C512,13.454,498.546,0,481.948,0z M67.157,79.957
			c-15.137,0-27.409-12.271-27.409-27.409c-0.001-15.136,12.271-27.409,27.409-27.409s27.41,12.271,27.41,27.409
			S82.295,79.957,67.157,79.957z M160.84,79.957c-15.137,0-27.409-12.271-27.409-27.409c0-15.136,12.271-27.409,27.409-27.409
			c15.137,0,27.41,12.271,27.41,27.409S175.979,79.957,160.84,79.957z M254.525,79.957c-15.137,0-27.41-12.271-27.41-27.409
			c0-15.136,12.272-27.409,27.41-27.409c15.137,0,27.409,12.271,27.409,27.409S269.663,79.957,254.525,79.957z M348.209,79.957
			c-15.139,0-27.41-12.271-27.41-27.409c0.001-15.136,12.272-27.409,27.41-27.409s27.41,12.271,27.41,27.409
			S363.347,79.957,348.209,79.957z M441.894,79.957c-15.137,0-27.41-12.271-27.41-27.409c0-15.136,12.271-27.409,27.41-27.409
			c15.137,0,27.41,12.271,27.41,27.409S457.032,79.957,441.894,79.957z"/>
	</g>
</g>
<g>
	<g>
		<path d="M440.365,208.784h-81.15L133.837,434.161h306.528c1.228,0,2.225-0.997,2.225-2.225V211.009
			C442.589,209.782,441.592,208.784,440.365,208.784z"/>
	</g>
</g>
<g>
	<g>
		<path d="M0,138.017v343.93C0,498.546,13.454,512,30.052,512h451.896C498.546,512,512,498.546,512,481.948v-343.93H0z
			 M475.981,431.937c0,19.64-15.977,35.616-35.616,35.616H72.523c-19.64,0-35.616-15.977-35.616-35.616V211.009
			c0-19.64,15.977-35.616,35.616-35.616h367.842c19.64,0,35.616,15.977,35.616,35.616V431.937z"/>
	</g>
</g>
<g>
</g>
<g>
</g>
<g>
</g>
<g>
</g>
<g>
</g>
<g>
</g>
<g>
</g>
<g>
</g>
<g>
</g>
<g>
</g>
<g>
</g>
<g>
</g>
<g>
</g>
<g>
</g>
<g>
</g>
</svg>
