<?xml version="1.0" encoding="UTF-8"?>
<!DOCTYPE svg PUBLIC "-//W3C//DTD SVG 1.1//EN" "http://www.w3.org/Graphics/SVG/1.1/DTD/svg11.dtd">
<!-- Creator: CorelDRAW -->
<svg xmlns="http://www.w3.org/2000/svg" xml:space="preserve" width="10.3265mm" height="11.2553mm" version="1.1" style="shape-rendering:geometricPrecision; text-rendering:geometricPrecision; image-rendering:optimizeQuality; fill-rule:evenodd; clip-rule:evenodd"
viewBox="0 0 101.21 110.31"
 xmlns:xlink="http://www.w3.org/1999/xlink"
 xmlns:xodm="http://www.corel.com/coreldraw/odm/2003">
 <defs>
  <style type="text/css">
   <![CDATA[
    .fil0 {fill:black}
   ]]>
  </style>
 </defs>
 <g id="Layer_x0020_1">
  <metadata id="CorelCorpID_0Corel-Layer"/>
  <path class="fil0" d="M14.19 96.93l0 -41.77c0,-2.82 1.78,-4.82 3.75,-4.82l63.19 0c1.98,0 3.75,2.11 3.75,4.82l0 41.77c0,2.5 -1.74,4.55 -4.28,4.55l-62.12 0c-2.54,0 -4.28,-2.05 -4.28,-4.55zm8.57 -3.75l53.55 0 0 -34.54 -53.55 0 0 34.54zm55.16 -72.29c-6.18,0 -6.18,-8.3 0,-8.3 1.84,0 3.75,2.13 3.75,4.02 0,2.09 -1.78,4.28 -3.75,4.28zm-26.51 0c-6.06,0 -5.36,-8.88 -0.05,-8.5 3.87,0.27 5.35,4.74 2.8,7.24 -0.45,0.44 -2.04,1.27 -2.75,1.27zm-27.31 0c-5.95,0 -5.36,-8.57 -0.27,-8.57 3.81,0 5.64,4.73 3.16,7.18 -0.49,0.49 -2.08,1.39 -2.9,1.39zm-24.1 -16.6l0 28.92 101.21 0 0 -28.92c0,-2.4 -1.94,-4.28 -4.28,-4.28l-92.38 0c-2.5,0 -4.55,1.74 -4.55,4.28zm0 101.75c0,2.48 2.08,4.28 4.55,4.28l92.11 0c2.47,0 4.55,-1.8 4.55,-4.28l0 -64.53 -101.21 0 0 64.53z"/>
 </g>
</svg>
