<?xml version="1.0" encoding="UTF-8"?>
<!DOCTYPE svg PUBLIC "-//W3C//DTD SVG 1.1//EN" "http://www.w3.org/Graphics/SVG/1.1/DTD/svg11.dtd">
<!-- Creator: CorelDRAW -->
<svg xmlns="http://www.w3.org/2000/svg" xml:space="preserve" width="5.949mm" height="8.772mm" version="1.1" style="shape-rendering:geometricPrecision; text-rendering:geometricPrecision; image-rendering:optimizeQuality; fill-rule:evenodd; clip-rule:evenodd"
viewBox="0 0 83.64 123.33"
 xmlns:xlink="http://www.w3.org/1999/xlink"
 xmlns:xodm="http://www.corel.com/coreldraw/odm/2003">
 <defs>
  <style type="text/css">
   <![CDATA[
    .fil0 {fill:black}
   ]]>
  </style>
 </defs>
 <g id="Layer_x0020_1">
  <metadata id="CorelCorpID_0Corel-Layer"/>
  <path class="fil0" d="M15.44 113.71c-8.48,-5.68 -9.21,-20.75 -13.12,-23.62 -2.8,4.19 -2.58,6.96 -1.83,12.29 1.15,8.17 4.37,18.44 13.4,19.92 2.72,0.44 4.83,-0.12 6.96,-0.14 2.18,-0.02 4.3,1.17 6.84,1.17 8.93,0 17.72,-2.39 25.84,-3.9 21.63,-4.02 16.06,11.09 11.79,-38.98 -0.78,-9.15 -2.65,-17.32 -2.65,-27.09l-27.99 -9.62c-7.4,15.42 -19.24,54.51 -19.24,69.98zm20.99 -75.22c0,1.93 19.78,8.75 25.37,8.75 0.09,-3.94 0.64,-5.47 3.83,-6.66 10.57,-3.95 21.11,-2.63 17.16,-19.58 -6.1,-1.42 -6.92,-1.75 -14.87,-1.75 -2.21,-9.48 -7.95,-8.75 -13.12,-8.75 -0.07,-3.11 -1.12,-7.78 -1.75,-10.5 -5.34,0.12 -5.12,2.11 -7.02,6.1 -1.36,2.86 -2.96,6.45 -3.99,10 -1.53,5.27 -5.61,17.21 -5.61,22.38z"/>
 </g>
</svg>
