<?xml version="1.0" encoding="UTF-8"?>
<!DOCTYPE svg PUBLIC "-//W3C//DTD SVG 1.1//EN" "http://www.w3.org/Graphics/SVG/1.1/DTD/svg11.dtd">
<!-- Creator: CorelDRAW -->
<svg xmlns="http://www.w3.org/2000/svg" xml:space="preserve" width="11.7811mm" height="10.1241mm" version="1.1" style="shape-rendering:geometricPrecision; text-rendering:geometricPrecision; image-rendering:optimizeQuality; fill-rule:evenodd; clip-rule:evenodd"
viewBox="0 0 289.93 249.15"
 xmlns:xlink="http://www.w3.org/1999/xlink"
 xmlns:xodm="http://www.corel.com/coreldraw/odm/2003">
 <defs>
  <style type="text/css">
   <![CDATA[
    .fil0 {fill:black}
   ]]>
  </style>
 </defs>
 <g id="Layer_x0020_1">
  <metadata id="CorelCorpID_0Corel-Layer"/>
  <g id="_2630349023136">
   <path class="fil0" d="M131.37 180.1l27.18 0c0,7.67 -6.42,13.31 -13.59,13.31 -7.17,0 -13.59,-5.64 -13.59,-13.31zm-14.16 -1.13c0,12.43 6.58,21.97 17.18,26.43 2.1,0.88 3.78,0.39 3.78,2.45l0 26.61c-35.36,0 -79.28,-8.14 -79.28,-52.66 0,-12.67 1.23,-19.04 3.73,-30.25 11.31,-50.81 12.76,-137.37 82.35,-137.37 9.77,0 19.29,2.1 26.06,5.08 43.85,19.32 46.72,87.67 56.18,131.82 6.98,32.59 8.2,63.44 -29.93,76.8 -14.05,4.93 -29.9,6.58 -45.52,6.58l0 -26.61c0,-2.41 2.38,-1.35 7.55,-4.34 8.41,-4.86 13.4,-13.83 13.4,-24.54 0,-6.46 -6.57,-13.03 -13.03,-13.03l-29.45 0c-6.46,0 -13.02,6.57 -13.02,13.03zm92.3 -144.4c19.45,0 40.76,10.45 48.46,29.12 4.22,10.23 7.37,16.28 11.07,27.43 3.69,11.11 11.22,36.65 3.32,49.34 -6.36,10.23 -25.79,4.96 -32.72,-3.53 -1.89,-2.32 -7.41,-36.66 -8.57,-42.39 -2.99,-14.81 -8.11,-33.22 -14.39,-46.76 -2.29,-4.94 -4.81,-8.73 -7.18,-13.21zm-180.07 111.56c-13.43,0 -15.29,-11.75 -15.29,-22.65 0,-18.76 11.42,-46.2 17.74,-59.84 4.53,-9.77 9.16,-15.13 18.04,-20.47 6.88,-4.15 19.63,-8.59 30.48,-8.59 -2.31,4.37 -4.69,8.03 -6.99,12.83 -14.89,31.01 -20.31,85.62 -22.9,89.22 -3.76,5.24 -13.7,9.5 -21.08,9.5zm-29.45 -23.79c0,10.96 0.55,20.31 7.79,28.45 9.96,11.2 26.15,11.79 39.21,5.52 0,4.64 -2.26,12.55 -2.26,24.35 0,41.78 27.03,58.43 61.1,65.17 22.23,4.4 55.55,4.4 77.78,0.09 41.63,-8.06 65.74,-29.34 60.93,-77.64 -0.35,-3.48 -1.62,-8.29 -1.62,-11.97 22.42,10.76 47,-0.66 47,-27.75 0,-15.23 -1.03,-20.26 -5.16,-34.48 -2.58,-8.87 -5.51,-16.24 -8.83,-24.58 -0.84,-2.12 -1.61,-3.78 -2.35,-5.58 -0.94,-2.3 -1.73,-3.53 -2.67,-5.82 -8.4,-20.34 -26.01,-31.82 -47.66,-36.15 -8.3,-1.66 -14.51,-2.08 -22.84,-2.08 -5.72,0 -4,-2.73 -15.35,-9.57 -26.5,-15.97 -66.69,-13.19 -89.77,6.87 -2.33,2.03 -1.3,2.63 -5.22,2.71 -9.82,0.19 -12.72,-0.06 -23.41,2.07 -8.8,1.76 -17.87,5.04 -24.32,9.09 -10.34,6.48 -18.57,15.26 -23.18,26.65 -8.03,19.82 -19.17,42.57 -19.17,64.63z"/>
   <path class="fil0" d="M89.47 103.65c0,8.58 12.3,10.5 14.09,1.07 1.33,-7.02 2.64,-7.3 7.99,-7.3 2.03,0 3.14,0.9 4.09,2.14 2.1,2.73 1,11.46 8.36,11.46 14.38,0 6.02,-27.75 -11.89,-27.75l-3.4 0c-10.09,0 -19.25,10.1 -19.25,20.38z"/>
   <path class="fil0" d="M158.55 103.65c0,8.65 12.31,10.12 14,1.55 0.55,-2.8 0.07,-3.24 1.49,-5.31 1.85,-2.69 10.51,-5.73 12.25,4.34 1.84,10.67 14.16,7.12 14.16,-0.01 0,-5.71 -2.59,-11.28 -5.51,-14.31 -13.29,-13.83 -36.4,-4.84 -36.4,13.75z"/>
  </g>
 </g>
</svg>
