<?xml version="1.0" encoding="UTF-8"?>
<!DOCTYPE svg PUBLIC "-//W3C//DTD SVG 1.1//EN" "http://www.w3.org/Graphics/SVG/1.1/DTD/svg11.dtd">
<!-- Creator: CorelDRAW -->
<svg xmlns="http://www.w3.org/2000/svg" xml:space="preserve" width="13.6764mm" height="13.6764mm" version="1.1" style="shape-rendering:geometricPrecision; text-rendering:geometricPrecision; image-rendering:optimizeQuality; fill-rule:evenodd; clip-rule:evenodd"
viewBox="0 0 471.15 471.15"
 xmlns:xlink="http://www.w3.org/1999/xlink"
 xmlns:xodm="http://www.corel.com/coreldraw/odm/2003">
 <defs>
  <style type="text/css">
   <![CDATA[
    .fil0 {fill:black}
   ]]>
  </style>
 </defs>
 <g id="Layer_x0020_1">
  <metadata id="CorelCorpID_0Corel-Layer"/>
  <path class="fil0" d="M250.3 351.52c0,-20.76 7.08,-40.62 18.21,-57.25 26.52,-39.62 82.6,-55.57 124.44,-34.79 6.16,3.06 10.18,5.25 15.82,9.02l14.32 11.44c28.29,28.29 38.56,76.59 20.47,113 -3.06,6.16 -5.25,10.18 -9.03,15.82 -1.65,2.47 -3.55,5.22 -5.49,7.39 -15.51,17.25 -30.44,27.67 -54.68,33.66 -14.91,3.69 -30.04,3.77 -44.95,0.19 -6.33,-1.52 -14.12,-3.87 -19.32,-6.45 -6.99,-3.47 -17.34,-9.24 -23.21,-14.52 -7.52,-6.76 -11.87,-10.65 -18.02,-19.72 -3.92,-5.78 -6.23,-10.01 -9.39,-16.37 -5.23,-10.52 -9.19,-29.21 -9.19,-41.43zm38.65 -288.95c4.18,0 9.2,-4.37 9.2,-8.28 0,-9.91 -9.52,-13.54 -15.64,-8.29 -6.28,5.38 -3.08,16.57 6.44,16.57zm71.78 334.04l0 -36.81c11.05,5.85 11.96,9.23 11.96,19.32 0,8.82 -6.11,14.39 -11.96,17.49zm-27.61 -76.38c0,-7.95 3.94,-12.86 9.2,-15.64l0 26.68c-5.31,-1.42 -9.2,-6.81 -9.2,-11.04zm9.2 -43.25l0 8.28c-13.1,0.29 -27.61,16.23 -27.61,31.29 0,11.1 0.51,17.03 8.95,25.1 3.69,3.52 13.25,9.53 18.66,10.79l0 46.01c-12.51,0 -14.24,-7.36 -22.09,-7.36 -6.29,0 -18.88,10.81 2.44,21.48 5.66,2.83 11.56,5.2 19.64,5.2 0,8.46 -1.53,16.56 10.12,16.56 9.06,0 8.28,-8.38 8.28,-17.48 28.48,-6.64 42.1,-44.52 21.21,-65.38 -8.46,-8.45 -14.6,-8.42 -21.21,-11.92l0 -34.97c7.74,3.71 15.33,9.13 20.8,2.39 6.4,-7.88 -1.02,-13.55 -6.45,-16.75 -3.46,-2.03 -9.75,-4.59 -14.35,-4.97 0,-12.12 -0.02,-16.56 -10.12,-16.56 -4.55,0 -8.28,3.73 -8.28,8.28zm-157.13 -7.13l-40.03 -39.57 15.66 -15.16c8.5,5.84 17.26,20.46 24.14,20.46 9.39,0 37.23,-36.44 48.77,-44.17l14.94 14.5 -63.49 63.95zm-0.23 -58.2c-7.27,-4.87 -15.01,-19.32 -24.85,-19.32 -5.19,0 -10.86,7.64 -14.03,10.81 -26.46,26.46 -29.99,24.77 -13.34,41.41l37.27 37.27c17.29,17.29 16.21,13.7 38.65,-8.74l53.83 -53.83c14.63,-14.63 11.25,-14.98 -7.36,-33.59 -23.72,-23.72 -19.95,-23.76 -46.93,3.22 -5.56,5.56 -17.82,19.15 -23.23,22.77zm46.93 135.27c0,18.73 2.59,25.48 2.76,33.13 -6.64,3.51 -12.87,7.79 -19.93,11.36 -3.37,1.71 -19.35,10.72 -21.48,10.72 -6.14,0 -52.09,-28.76 -64.24,-36.98 -17.17,-11.61 -40.1,-32.9 -50.17,-51.05 -9.52,-17.16 -14.76,-39.6 -15.37,-60.09 -0.12,-4.13 0.32,-8.81 -0.02,-12.86 -2.05,-24.76 -0.87,-84.95 -0.87,-113.24 2.74,-0.64 4.88,-1.89 7.9,-3.15l122.78 -56.25 122.12 55.98c2.77,1.19 6.01,2.82 8.55,3.41l0 106.75c-6.64,3.19 -19.5,4.3 -35.52,15.09 -6.68,4.49 -16.24,11.3 -21.8,16.85 -9.5,9.5 -19.65,24.94 -25.5,38 -4.51,10.08 -9.2,27.76 -9.2,42.33zm-231.89 -253.98l0 145.39c0,34.35 5.11,66.26 15.67,90.16 10.83,24.52 26.33,43.33 44.82,61.92l13.81 11.96c16.57,14.8 36.48,26.12 55.4,37.54 2.94,1.77 5.63,3.01 8.87,4.94 11.84,7.07 47.13,26.3 55.6,26.3 3.22,0 15.18,-6.18 18.72,-7.97 11.75,-5.93 23.77,-11.6 35.04,-18.33l17.1 -9.59c1.97,1.32 5.69,4.4 7.59,6.21 17.85,17.02 47.24,29.68 73.38,29.68 31.21,0 50.99,-6.01 74.73,-21.89 11.05,-7.4 21.12,-17.46 28.52,-28.52 1.97,-2.95 3.65,-5.3 5.52,-8.29 2.03,-3.23 3.26,-6.15 5.03,-9.69 8.31,-16.6 11.34,-35.27 11.34,-55.84 0,-28.64 -13.32,-54.04 -26.14,-70.48 -2.09,-2.68 -3.59,-3.58 -5.68,-6.28 -8.13,-10.55 -23.06,-20.12 -34.74,-25.99 -4.25,-2.14 -12.97,-6.32 -18.1,-6.75 0,-12.85 1.33,-140.92 -0.58,-146.66 -1.98,-5.95 -12.79,-9.4 -17.96,-11.49 -5.74,-2.33 -38.65,-18.53 -41.28,-18.53 -9.08,0 -17.41,12.99 -0.66,19.99 10.08,4.21 32.79,16.71 41.15,18.66l0 133.43 -24.85 -0.92 0 -110.43c0,-8.86 -26.11,-17.11 -34.05,-21.16l-37.74 -17.47c-21.85,-9.72 -44.79,-19.41 -66.24,-30.38 -13.29,-6.8 -17.37,-1.73 -31.55,4.33 -23.64,10.1 -51.63,23.87 -75.49,34.93 -3.67,1.7 -5.93,2.48 -9.51,4.3l-28.45 12.96c-5.53,2.28 -15.11,5.72 -15.11,12.49 0,33.36 -2.16,128 2.88,157.24 3.84,22.31 11.32,40.83 24.46,58.36 8.89,11.87 19.44,21.55 30.43,31.22l11.99 9.18c4.22,2.86 7.64,5.4 11.96,8.28 4.51,3.01 8.3,5.32 12.88,8.28 10.16,6.56 46.58,28.35 54.48,28.35 6.95,0 39.8,-19.67 47.85,-23.93l11.96 22.09c-7.6,4.02 -54.49,30.36 -59.81,30.36 -3.72,0 -38.33,-18.49 -43.87,-21.47 -7.43,-3.99 -13.76,-7.88 -20.95,-12.18 -33.67,-20.16 -65.33,-44.78 -86.29,-78.43 -13.52,-21.71 -20.6,-49.25 -21.9,-76.56l-1.85 -31.27c0.18,-43.86 0.02,-87.75 0.02,-131.61 4.05,-0.34 7.79,-3.1 11.17,-4.48 14.78,-5.99 29.02,-13.36 43.42,-20.07l76.39 -34.95c5.95,-2.86 40.01,-19.64 43.85,-19.64 2.85,0 10.8,4.45 14.33,5.91l13.89 6.36c5.22,2.43 25.71,12.58 29.75,12.58 5.86,0 9.2,-4.64 9.2,-10.12 0,-6.85 -7.97,-9.18 -13.41,-11.43 -6.04,-2.49 -11.71,-5.4 -17.55,-8.21 -3.11,-1.5 -5.22,-2.1 -8.31,-3.66 -6.84,-3.44 -22.18,-11.66 -28.82,-11.66 -3.83,0 -44.75,19.57 -49.08,21.77 -21.85,11.1 -44.47,20.71 -66.85,30.69l-18.15 8.54c-16.84,7.19 -32.43,15.4 -49.31,22.47 -4.26,1.78 -8.93,3.87 -8.93,9.47z"/>
 </g>
</svg>
