<?xml version="1.0" encoding="UTF-8"?>
<!DOCTYPE svg PUBLIC "-//W3C//DTD SVG 1.1//EN" "http://www.w3.org/Graphics/SVG/1.1/DTD/svg11.dtd">
<!-- Creator: CorelDRAW -->
<svg xmlns="http://www.w3.org/2000/svg" xml:space="preserve" width="21.8164mm" height="20.6437mm" version="1.1" style="shape-rendering:geometricPrecision; text-rendering:geometricPrecision; image-rendering:optimizeQuality; fill-rule:evenodd; clip-rule:evenodd"
viewBox="0 0 2803.6 2652.89"
 xmlns:xlink="http://www.w3.org/1999/xlink"
 xmlns:xodm="http://www.corel.com/coreldraw/odm/2003">
 <defs>
  <style type="text/css">
   <![CDATA[
    .fil0 {fill:#2B2A29}
   ]]>
  </style>
 </defs>
 <g id="Layer_x0020_1">
  <metadata id="CorelCorpID_0Corel-Layer"/>
  <path class="fil0" d="M1407.27 1513.92c103.66,-24.15 258.92,-119.04 332.66,-193.02 70.11,-70.35 121.36,-139.21 163.85,-230.4 9.73,-20.87 32.78,-74.39 34.65,-96.78l10.95 0c3.84,46.13 58.56,145.86 80.37,182.48 64.87,108.87 160.51,192.8 268.35,257.33 99.39,59.46 107.7,49.08 168.28,78.12 1.5,0.73 5.96,3.07 7.22,3.74 0.93,0.49 2.72,1.59 3.47,2 0.73,0.4 2.36,1.25 3.46,2.02 -43.91,3.65 -143.43,58.88 -182.57,80.25 -102.45,55.94 -208.71,157.6 -268.21,257.47 -21.81,36.62 -76.53,136.35 -80.37,182.47l-10.95 0c-5.77,-69.37 -107.24,-235.52 -165.53,-294.43 -89.2,-90.15 -194.16,-166.17 -315.64,-210.03l-49.98 -21.22zm-509.24 -1210.14l10.95 0c14.89,63.93 82.07,131.5 130.15,171.02 11.4,9.37 22.95,18.29 34.07,26.16l76.72 43.76c-78.62,18.31 -223.59,160.98 -240.94,235.45l-10.95 0c-8.85,-37.97 -67.87,-116.9 -94.34,-141.12l-67.66 -52.8c-20.91,-13.57 -54.96,-35.96 -78.94,-41.53l7.02 -3.93c54.08,-27.58 91.83,-48.06 136.76,-93.23 32,-32.2 85.92,-95.51 97.17,-143.78zm-498.31 229.98c0,117.97 151.1,-13.54 351.84,184.78 64.78,64 107.77,187.93 108.2,286.05 0.53,113.24 67.54,85.03 81.73,65.48 26.94,-37.14 -26.96,-354.05 286.29,-452.94 65.48,-20.66 147.63,-21.09 165.47,-31.66 21.63,-12.81 28.88,-40.98 16.28,-64.51 -30.28,-56.53 -175.68,16.33 -343.17,-150.06 -141.51,-140.6 -86.1,-328.3 -131.34,-361.75 -21.46,-15.88 -50.7,-10 -64.69,9.59 -27.92,39.08 24.33,266.78 -185.78,405.61 -39.08,25.83 -87.72,46.8 -138.3,58.83 -57.51,13.67 -105.42,7.06 -126.05,21.8 -7.98,5.71 -20.48,17.4 -20.48,28.8zm98.57 1341.57l10.96 0c19.35,83.12 157.85,216.1 240.93,235.45l-16.37 11.01c-81.71,45.22 -121.41,70.81 -181.63,152.39 -12.71,17.22 -37.88,55.86 -42.92,77.54l-10.96 0c-17.18,-73.73 -160.62,-216.74 -240.93,-235.45 30.87,-21.45 75.81,-29.15 143.83,-97.11 31.83,-31.82 85.97,-96.05 97.1,-143.83zm-498.29 235.45c0,95.58 173.77,-7.61 349.2,171.01 159.25,162.14 71.59,371.11 149.1,371.11 50.21,0 52.69,-5.23 54.6,-93.25 0.64,-29.07 11.59,-87.01 19.88,-111.55 63.34,-187.58 179.8,-260.5 371.44,-285.65 23.03,-3.02 39.3,-0.03 53.82,-11.91 10.82,-8.87 59.15,-82.28 -61.49,-89.22 -172.07,-9.92 -316.08,-120.94 -363.59,-293.5 -31.95,-115.95 12.09,-199.14 -74.66,-199.14 -52.39,0 -29.75,105.96 -56.94,200.42 -29.39,102.06 -73.65,168.33 -162,226.78 -51.07,33.81 -134.12,62.43 -197.36,65.48 -43.62,2.09 -81.99,3.46 -81.99,49.42zm1084.2 -591.37c0,63.65 95.56,46.87 161.97,57.06 34.35,5.27 63.51,11.32 91.1,18.42l88.09 26.9c50.34,21.32 100.08,43.69 145.1,73.93 23.34,15.68 42.1,27.42 64.56,44.95 14.84,11.58 48.4,41.51 59.41,55.59 16.51,21.13 33,37 50.68,58.82 80.42,99.13 139.92,280.68 149.16,409.38 6.05,84.47 -5.86,174.89 49.62,174.89 80.93,0 27.39,-129.97 89.92,-348.16 15.38,-53.69 39.12,-112.86 63.64,-155.38 12.83,-22.24 27.1,-45.57 42.72,-66.81 15.05,-20.47 33.77,-45.77 51.4,-63.59 118.43,-119.67 265.58,-196.81 436.67,-225.89 101.47,-17.25 175.35,4.75 175.35,-60.1 0,-87.89 -164.84,-13.67 -410.74,-136.84 -278.59,-139.53 -397.36,-399.24 -399.43,-706.68 -0.53,-76.5 -27.08,-76.41 -60.48,-76.41 -77.54,0 13.83,217.15 -145.96,511.12 -26.22,48.24 -59.24,91.2 -96.34,128.17 -261.93,261.07 -550.83,214.25 -586.08,240.76 -9.93,7.48 -20.37,25.55 -20.37,39.88z"/>
 </g>
</svg>
