<?xml version="1.0" encoding="UTF-8"?>
<!DOCTYPE svg PUBLIC "-//W3C//DTD SVG 1.1//EN" "http://www.w3.org/Graphics/SVG/1.1/DTD/svg11.dtd">
<!-- Creator: CorelDRAW -->
<svg xmlns="http://www.w3.org/2000/svg" xml:space="preserve" width="20.2694mm" height="20.9599mm" version="1.1" style="shape-rendering:geometricPrecision; text-rendering:geometricPrecision; image-rendering:optimizeQuality; fill-rule:evenodd; clip-rule:evenodd"
viewBox="0 0 254.53 263.2"
 xmlns:xlink="http://www.w3.org/1999/xlink"
 xmlns:xodm="http://www.corel.com/coreldraw/odm/2003">
 <defs>
  <style type="text/css">
   <![CDATA[
    .fil0 {fill:#2B2A29}
   ]]>
  </style>
 </defs>
 <g id="Layer_x0020_1">
  <metadata id="CorelCorpID_0Corel-Layer"/>
  <path class="fil0" d="M187.88 70c-1.99,0.07 -3.92,0.09 -5.94,-0.24 -7.49,-1.23 -12.35,-6.79 -12.35,-14.42l0 -40.18c0,-9.27 5.75,-15.16 15.06,-15.16l54.89 0c9.15,0 14.98,6.06 14.98,15.16l0 40.18c0,7.24 -4.39,12.8 -11.51,14.24 -3.12,0.63 -5.95,0.31 -9.08,0.31l-22.19 0c-0.07,0 -0.14,0 -0.21,-0 -3.79,3.63 -7.41,7.45 -11.22,11.08 -2.64,2.51 -6.47,6.65 -10.5,5.89 -7.11,-1.34 -2.91,-11.67 -1.95,-16.86zm-101.05 181.6c0.01,-2.66 -0,-5.33 -0,-7.99 0,-9.45 0.56,-10.52 10.23,-10.52 2.56,0 5.13,0.07 7.69,0.01l-0.07 -19.81c-9.7,-0.26 -19.41,0.01 -29.11,0.01 -10.04,0 -20.09,0 -30.13,0 -5.14,0 -10.28,0.12 -15.42,0.11 -3.87,-0.01 -10.92,0.16 -14.57,-0.74 -8.25,-2.05 -13.9,-8.74 -15.09,-17.11 -0.68,-4.77 -0.17,-10.38 -0.17,-15.25l0 -105.58c0,-9.42 -1.11,-18.33 6.51,-25.28 7.53,-6.86 16.52,-5.33 25.9,-5.33 4.35,0 11.63,-1.36 12.85,4.5 0.56,2.69 -0.68,5.28 -3.18,6.47 -2.7,1.28 -18.24,0.24 -22.67,0.6 -3.29,0.27 -6.2,2.57 -7.32,5.67 -1.09,3.02 -0.56,10.61 -0.56,14.07l0 75.45c0,5.24 -0.08,10.49 -0.1,15.73 -0.02,4.07 -0.22,8.93 0.06,13.09l10.22 -0.09c0.37,-7.97 -0.86,-14.47 1.91,-22.48 4.41,-12.75 15.31,-21.55 28.6,-23.66 3.55,-0.56 8.53,-0.4 12.17,-0.4 3.9,0 7.81,0.08 11.71,0.06l-0.03 -6.1c-4.7,-2.37 -10.06,-6.79 -13.57,-10.49 -14.09,-14.87 -19.95,-36.6 -13.97,-56.36 7.81,-25.8 30.65,-42.74 57.72,-42.15 12.75,0.28 26.48,5.48 36.07,13.94 15.19,13.39 22.78,32.81 19.73,52.93 -2.83,18.72 -14.44,35.01 -31.46,43.41 -0.05,1.4 -0.14,3.53 -0.03,4.88 7.95,0.49 15.97,-0.6 23.92,0.28 12.76,1.41 24.7,11.6 28.72,23.7 2.7,8.15 1.47,14.5 1.91,22.54l53.91 -0.08c0.19,-3.15 -0.03,-6.45 -0.03,-9.59l0 -76.38c0,-3.68 -0.21,-7.4 0.02,-11.07 0.26,-4.17 4.47,-6.75 8.29,-4.93 3.91,1.86 3.24,6.12 3.24,9.69l0 98.11c0,7.39 0.69,12.78 -3.69,19.27 -3.32,4.92 -8.9,7.87 -14.74,8.48 -2.32,0.24 -5.23,0.13 -7.58,0.15 -4.63,0.03 -9.27,0.03 -13.91,0.02 -7.39,-0.01 -14.77,-0.06 -22.16,-0.06 -7.41,0 -14.82,-0.08 -22.23,-0.1 -4.54,-0.01 -9.07,-0.02 -13.61,0 -2.12,0.01 -4.45,-0.03 -6.63,0.07l0.01 19.83c2.61,0.12 5.28,-0.02 7.88,-0.02 2.94,0 6.28,-0.56 8.49,1.88 2.09,2.3 1.52,6.02 1.52,8.88 0,2.58 -0.01,5.16 -0,7.74 2.74,0.27 9.51,-0.01 11.33,-0.04 2.43,-0.04 11.07,-0.38 13.08,0.36 4.29,1.59 5.16,7.54 1.23,10.18 -2.5,1.68 -9.62,0.96 -12.75,0.96l-102.78 0c-3.1,0 -10.29,0.7 -12.79,-0.83 -4.19,-2.55 -3.29,-8.82 1.28,-10.37 2.02,-0.68 10.4,-0.33 12.81,-0.28 2.15,0.04 8.51,0.34 11.37,0.04zm112.98 -186.2l5.19 -4.94c2.39,-2.28 3.63,-1.91 6.75,-1.91l22.19 0c3.27,0 9.25,1.43 9.25,-3.22l-0 -40.18c0,-2.8 -0.79,-3.82 -3.64,-3.82l-54.89 -0c-2.99,0 -3.72,0.86 -3.72,3.82l0 40.18c0,4.88 7.13,3.22 10.49,3.22 3.09,-0 5.2,-0.37 7.29,2.33 1.23,1.59 1.28,3 1.1,4.51zm-3.78 -42.63c1.68,-0.47 4.76,-0.21 6.6,-0.21 2.27,0 4.42,-0.32 6.39,1.08 3.85,2.73 2.75,9.07 -1.79,10.27 -1.66,0.44 -4.87,0.18 -6.71,0.18 -2.22,0 -4.44,0.34 -6.38,-1.02 -4.01,-2.8 -2.93,-8.96 1.88,-10.3zm17.21 14.32c2.17,-0.79 11.08,-0.64 12.98,0.59 3.94,2.55 3.04,8.9 -1.43,10.29 -1.64,0.51 -4.92,0.26 -6.74,0.26 -2.21,0 -4.32,0.3 -6.27,-1.01 -4,-2.68 -3,-8.52 1.45,-10.14zm-155.21 41.73c1.1,12.34 5.76,23.16 14.93,31.62 9.32,8.59 21.66,12.97 34.31,12.36 26.03,-1.26 44.98,-23.42 43.97,-49.19 -0.74,-18.81 -12.85,-34.41 -30.25,-40.94 -18.21,-6.84 -37.57,-2.15 -50.76,12.13 -8.02,8.68 -13.25,22.18 -12.2,34.02zm29.78 53.1c-0.11,2.14 -0.03,4.49 0.05,6.55 0.06,1.61 1.68,2.56 2.92,3.3 6.43,3.83 18.48,3.82 25.04,0.29 1.48,-0.8 3.05,-1.7 3.42,-3.46 0.31,-1.47 0.13,-4.01 0.03,-6 -0.94,0.21 -1.88,0.5 -2.8,0.68 -6.86,1.38 -13.83,1.61 -20.75,0.49 -2.11,-0.34 -4.18,-0.81 -6.25,-1.36 -0.35,-0.09 -1.04,-0.31 -1.68,-0.48zm-10.05 12.73c-3.18,-0.22 -6.5,0.01 -9.68,0.01 -9.58,0 -17.31,-1.13 -25.37,5.13 -6.95,5.39 -9.33,12.1 -9.34,20.71 -0.01,2.94 -0.27,6.23 -0.04,9.2l140.5 -0.08c0.22,-2.94 -0.06,-6.24 -0.05,-9.13 0,-3.38 -0.13,-5.66 -1.14,-8.9 -3.17,-10.22 -12.43,-16.72 -23.04,-16.94 -3.64,-0.08 -7.3,-0.07 -10.93,-0.08 -2.36,-0 -6.77,-0.2 -9.3,0.08 -2.52,4.18 -5.29,6.5 -9.9,8.48 -5.07,2.18 -10.37,3.08 -15.87,3.08 -9.11,0 -21.22,-2.79 -25.82,-11.57zm-66.12 46.64c-0.27,3.62 0.94,6.9 4.08,9.06 3.05,2.1 10.1,1.35 13.82,1.35 64,0 128,0 192.01,0 3.69,0 10.67,0.76 13.69,-1.45 3.11,-2.27 4.26,-5.36 3.97,-9.02l-227.56 0.05zm104.57 21.95c-0.31,3.7 -0.32,16.23 -0.01,19.95l18.4 -0.08c0.31,-3.72 0.3,-16.19 -0.01,-19.91l-18.38 0.04zm36.3 31.26l-27.2 0c-4.9,0 -9.8,-0.07 -14.7,-0.1 -3.98,-0.02 -8.42,-0.16 -12.44,0.08 -0.14,1.89 -0.17,5.31 -0.02,7.12 2.09,0.18 5.25,0.05 7.07,0.07 5.38,0.04 10.76,0.03 16.14,0.03 9.73,-0.01 19.46,-0.08 29.18,-0.08 0.37,0 1.33,0.1 1.93,0.08l0.04 -7.2z"/>
  <path class="fil0" d="M153.78 243.6l-0.05 8.89c-0.28,0.72 -2.39,0.38 -3.19,0.38 -9.1,-0.01 -52.3,0.26 -53.5,-0.15 -0.3,-1.37 -0.25,-7.95 0,-9.42 4.27,-0.34 22.53,-0.06 28.28,-0.06l27.58 -0c0.86,0.15 0.52,0.13 0.88,0.36zm35.53 -174.91c-2.38,0.09 -4.67,0.24 -7.17,-0.17 -6.84,-1.13 -11.3,-6.13 -11.3,-13.18l0 -40.18c0,-8.57 5.18,-13.9 13.8,-13.9l54.89 0c8.46,0 13.73,5.51 13.73,13.9l0 40.18c0,6.67 -4,11.69 -10.51,13.01 -3.07,0.62 -5.78,0.29 -8.83,0.29l-22.19 0c-0.23,0 -0.47,-0 -0.7,-0.01 -2.89,2.75 -7.57,7.61 -11.59,11.43 -3.45,3.28 -6.34,6.14 -9.4,5.57 -6.25,-1.18 -0.93,-13.04 -0.74,-16.94zm24.36 -30.41c1.36,-0.5 10.12,-0.67 11.87,0.47 3.06,1.99 2.33,6.96 -1.12,8.03 -1.27,0.39 -4.78,0.21 -6.37,0.21 -2.09,0 -3.97,0.28 -5.57,-0.79 -3.04,-2.03 -2.43,-6.6 1.19,-7.91zm-17.3 -14.29c1.3,-0.36 4.68,-0.17 6.26,-0.17 2.33,0 4.08,-0.27 5.67,0.85 3.02,2.14 2.08,7.11 -1.38,8.03 -1.18,0.31 -4.94,0.14 -6.39,0.14 -2.35,0 -4.11,0.29 -5.66,-0.79 -2.96,-2.07 -2.51,-6.95 1.49,-8.06zm-16.69 -8.82l0 40.18c0,5.94 6.49,4.47 11.75,4.47 3.29,-0 4.66,-0.28 6.3,1.85 1.67,2.16 0.57,4.14 0.42,6.84 0.79,-0.4 1.18,-0.91 1.98,-1.66l5.74 -5.47c1.93,-1.81 2.5,-1.56 5.88,-1.56l22.19 0c4.85,0 10.51,1.19 10.51,-4.47l-0 -40.18c0,-3.56 -1.38,-5.07 -4.9,-5.07l-54.89 -0c-3.71,-0 -4.97,1.42 -4.97,5.07zm-64.54 196.81l20.54 -0.04c0.46,1.06 0.46,21.47 0.01,22.42l-20.57 0.09c-0.47,-1.08 -0.46,-21.42 0.01,-22.47zm-104.61 -21.95l229.8 -0.05c0.82,5.51 -1.23,9.01 -4.34,11.29 -3.39,2.47 -9.85,1.69 -14.43,1.69 -64,0 -128,0 -192.01,0 -4.83,0 -11.15,0.76 -14.53,-1.57 -3.19,-2.2 -5.3,-5.94 -4.48,-11.35zm68.05 -46.58c3.69,7.93 14.44,11.52 25.01,11.51 5.81,-0 10.82,-1.03 15.38,-2.98 4.6,-1.98 7.17,-4.25 9.62,-8.48 1.67,-0.28 18.19,-0.16 21.03,-0.1 11.29,0.24 20.93,7.22 24.21,17.83 1.04,3.36 1.19,5.42 1.19,9.28 -0,2.93 0.28,7.68 -0.07,10.39l-142.77 0.08c-0.35,-2.84 -0.08,-7.48 -0.07,-10.46 0.01,-8.97 2.55,-16.05 9.83,-21.7 8.29,-6.44 15.74,-5.4 26.14,-5.4 3.21,0 7.4,-0.23 10.49,0.05zm8.09 -13.01c1.82,-0.06 12.64,4.99 29.57,1.59 1.35,-0.27 2.89,-0.79 4.24,-0.93 0.09,7.43 1.25,9.19 -4.06,12.05 -6.97,3.76 -19.49,3.73 -26.28,-0.31 -1.64,-0.98 -3.45,-2.15 -3.53,-4.33 -0.08,-2.16 -0.16,-6 0.06,-8.07zm-29.89 -51.51c-1.24,-13.97 5.7,-27.6 12.53,-34.99 29.67,-32.11 81.6,-10.97 83.19,29.61 1.07,27.34 -19.27,49.24 -45.16,50.49 -15.13,0.73 -27.2,-5.29 -35.22,-12.69 -8.17,-7.53 -14.05,-18 -15.33,-32.43zm20.71 47.31l0.04 8.13c-5.32,0.06 -20.96,-0.3 -24.94,0.33 -13.09,2.08 -23.43,10.76 -27.61,22.83 -2.91,8.41 -1.3,14.18 -1.91,23.31l-12.56 0.12c-0.34,-3.64 -0.06,-24.63 -0.06,-30.08l0 -75.45c0,-3.87 -0.49,-11.38 0.63,-14.5 1.21,-3.34 4.4,-6.16 8.4,-6.49 4.8,-0.39 20.12,0.52 22.23,-0.49 1.7,-0.81 2.99,-2.65 2.49,-5.08 -0.97,-4.65 -6.82,-3.5 -11.62,-3.5 -10.81,0 -18.15,-1.3 -25.05,5 -6.85,6.25 -6.1,13.36 -6.1,24.35l0 105.58c0,4.26 -0.4,11.13 0.16,15.07 1.17,8.22 6.74,14.23 14.15,16.07 4.38,1.09 23.78,0.6 29.69,0.6 10.04,0 20.09,0 30.13,0 9.99,0 20.42,-0.29 30.36,0.02l0.08 22.24c-2.95,0.12 -6.01,0.03 -8.95,0.03 -8.89,0 -8.97,0.51 -8.97,9.27 0,3.02 0.02,6.04 -0,9.05 -2.67,0.7 -22.7,-0.42 -25.03,0.37 -3.6,1.22 -4.28,6.13 -1.03,8.11 2.08,1.27 9.23,0.65 12.14,0.65l102.78 0c2.96,0 9.99,0.63 12.05,-0.75 3.26,-2.18 2.16,-6.79 -0.97,-7.96 -2.42,-0.9 -22.82,0.29 -25.23,-0.45 -0,-2.93 0,-5.86 0,-8.79 0,-2.96 0.49,-6.18 -1.19,-8.03 -1.75,-1.93 -4.39,-1.47 -7.56,-1.47 -2.88,-0 -6.32,0.17 -9.13,-0.06l-0.02 -22.19c4.2,-0.34 38.55,-0.06 43.72,-0.06 3.95,0 40.64,0.2 43.52,-0.1 6.3,-0.65 11.16,-3.97 13.83,-7.93 4.05,-5.99 3.48,-10.52 3.48,-18.57l0 -98.11c0,-3.49 0.61,-7.06 -2.53,-8.56 -3.1,-1.48 -6.3,0.68 -6.49,3.88 -0.21,3.41 -0.02,7.5 -0.02,10.99l0 76.38c0,3.3 0.24,7.67 -0.06,10.84l-56.25 0.09c-0.69,-9.26 0.95,-14.73 -1.92,-23.4 -3.86,-11.64 -15.4,-21.49 -27.66,-22.85 -7.99,-0.88 -16.86,0.28 -24.86,-0.35 -0.33,-1.19 -0.15,-5.37 -0.13,-6.86 35.1,-16.74 44.73,-65.86 12.13,-94.6 -8.19,-7.23 -21.29,-13.32 -35.27,-13.62 -26.98,-0.59 -48.97,16.42 -56.49,41.26 -6.04,19.93 0.28,40.97 13.68,55.13 3.37,3.56 9.15,8.36 13.91,10.57z"/>
 </g>
</svg>
