<?xml version="1.0" encoding="UTF-8"?>
<!DOCTYPE svg PUBLIC "-//W3C//DTD SVG 1.1//EN" "http://www.w3.org/Graphics/SVG/1.1/DTD/svg11.dtd">
<!-- Creator: CorelDRAW -->
<svg xmlns="http://www.w3.org/2000/svg" xml:space="preserve" width="35.4704mm" height="38.6233mm" version="1.1" style="shape-rendering:geometricPrecision; text-rendering:geometricPrecision; image-rendering:optimizeQuality; fill-rule:evenodd; clip-rule:evenodd"
viewBox="0 0 1749.99 1905.54"
 xmlns:xlink="http://www.w3.org/1999/xlink"
 xmlns:xodm="http://www.corel.com/coreldraw/odm/2003">
 <defs>
  <style type="text/css">
   <![CDATA[
    .fil0 {fill:black}
   ]]>
  </style>
 </defs>
 <g id="Layer_x0020_1">
  <metadata id="CorelCorpID_0Corel-Layer"/>
  <path class="fil0" d="M874.73 1627.2c20.61,-4.09 30,-6.04 36.68,-25.45 7.64,-22.19 -4.08,-30.92 -14.76,-42.5 -41.08,-44.56 -81.05,-83.86 -123.88,-127.05l-468.25 -474.72c-43.9,-47.19 -0.37,-115.59 47.41,-115.59 39.37,0 42.63,10.28 79.21,45.25l169.8 166.62c53.19,52.48 115.47,117.38 168.73,167.68 12.54,11.85 46.29,48.23 62.54,48.23 21.83,0 35.45,-9.08 40.8,-27.26 6.2,-21.11 -6.76,-32.35 -17,-43.15 -50.58,-53.38 -108.54,-109.11 -156.49,-162.48 -10.32,-11.49 -19.01,-21.36 -19.01,-43.18 0,-40.67 33.86,-77.54 70.04,-77.54 31.05,0 53.19,26.01 69.42,41.13l83.7 81.61c9.63,9.44 17.6,17.84 27.29,27.17 9.2,8.86 18.88,17.8 28.27,26.21 8.17,7.31 20.03,19.98 34.36,19.98 20.76,0 44.36,-22 39.84,-45.56 -6.72,-35.03 -113.77,-106.48 -113.77,-148.85 0,-47.07 31.26,-79.76 75.87,-79.76 39,0 90.56,68.09 131.61,101.7 10.56,8.64 24.06,19.14 41.95,9.63 12.45,-6.62 23.32,-17.47 22.83,-35.41 -0.93,-34.24 -33.25,-34.13 -33.25,-81.72 0,-43.78 26.33,-72.28 70.2,-72.17 30.89,0.07 34.25,6.18 49.14,21.09l103.05 108.92c23.09,24.57 43.98,48.55 67.07,72.94 23.4,24.73 44.15,49.37 67.31,74.52 45.43,49.33 93.88,98.88 121.15,158.96 36.51,80.44 29.81,106.54 29.81,191.85 0,50.14 -33.24,121.89 -60.45,159.27 -26.49,36.4 -71.35,82.36 -103.41,114.41 -57.74,57.72 -106.94,109.53 -185.85,140.9 -13.87,5.51 -70.41,24.87 -83.94,24.9l-622.66 0.86c-24.16,-0.07 -153.77,0.36 -180.23,-2.98 -46.48,-5.87 -41.71,-86.83 18.01,-121.65 29,-16.91 354.93,-62.54 426.85,-76.82zm-159.14 -1378.31c0,12.22 -1.81,38.29 3.38,46.94l75.2 74.71c17.18,15.67 35.97,38.95 65.48,16.58 25.34,-19.21 14.81,-44.93 -3.61,-64.84 -17.7,-19.14 -32.24,-33.54 -50.21,-50.9 -6.51,-6.29 -8.45,-5.37 -8.89,-16.49 -0.88,-22.79 1.7,-47.8 -0.53,-73.31 -1.36,-15.53 -1.04,-31.76 -7.22,-43.39 -13,-24.47 -49.95,-24.42 -64.89,-3.12 -12.96,18.48 -8.71,86.46 -8.71,113.81zm-715.59 653.12l0 17.92c2.31,5.66 3.29,36.89 4.93,47.37 15.62,99.64 67.02,176.25 145.45,235.66 15.01,11.37 47.83,33.86 68.3,38.66 30.72,7.19 58.75,-27.14 45.51,-53.39 -13.57,-26.87 -68.32,-34.6 -119.58,-98.15 -58.28,-72.23 -77.15,-159.17 -53.47,-252.17 7.78,-30.55 18.69,-51.73 34.28,-74.61 24.82,-36.41 70.23,-80.58 114.64,-101.41 48.66,-22.82 125.11,-33.04 186.99,-17.58 52.89,13.21 104.49,48.56 134.74,81.03 44.27,47.52 60.05,126.32 111.2,87.63 42.74,-32.33 -33.52,-118.87 -50.92,-138.2 -35.1,-38.98 -71.05,-67.39 -127.39,-90.22 -49.61,-20.1 -119.46,-35.42 -184.64,-25.55 -61.06,9.25 -117.1,33.94 -155.86,61.92 -43.35,31.28 -76.09,65.71 -104.4,113.3 -51.19,86.04 -45.63,158.12 -49.8,167.79zm558.29 -625.9c0,-107.22 92.11,-196.42 186.42,-196.42 60.46,0 107.98,14.16 149.4,56.73 24.82,25.51 58.69,74.85 58.69,128.03l0 21.39c0,79.02 -56.4,147.9 -119.91,173.76 -134.62,54.82 -274.61,-41.59 -274.61,-183.49zm215.8 -276.11l-41.25 0c-8.95,4.3 -49.12,1.45 -103.62,30.38 -90.66,48.13 -150.86,137.62 -150.9,257.42 -0.02,78.08 45.08,151.83 83.95,188.21 45.33,42.42 104.66,78.19 194.11,78.13 203.24,-0.12 330.14,-206.84 255.24,-383.54 -31.85,-75.14 -100.47,-138.86 -179.99,-160.34 -20.25,-5.47 -53.63,-8.41 -57.55,-10.26zm-367.95 1905.54l850.56 0c4.46,-3 39.65,-12.35 48.71,-14.87 47.62,-13.19 94.03,-36.05 133.21,-63.1 55.71,-38.47 149.29,-141.41 199.03,-193.81 44.55,-46.94 75.22,-102.24 93.83,-166.65 4.95,-17.13 9.2,-35.19 12.27,-53.89 1.69,-10.33 4.9,-56.41 6.24,-59.69l0 -14.03c-2.39,-5.87 -1.27,-71.31 -30.17,-150.52 -25.44,-69.74 -60.4,-112.26 -107.46,-162.69 -14.45,-15.49 -28.72,-31.26 -42.57,-47.03 -28.48,-32.41 -56.06,-61.7 -85.1,-93.64 -18.61,-20.47 -154.58,-172.3 -175.55,-184.16 -89.58,-50.63 -191.81,-11.23 -225.89,86.62 -9.75,-3.64 -19.63,-11.86 -30.78,-16.71 -36.31,-15.78 -84.87,-15.16 -118.82,-0.97 -46.28,19.33 -70.01,51.21 -89.73,96.84 -67.7,-41.77 -144.95,-41.26 -201.88,19.74 -11.46,12.27 -31.31,40.25 -35.34,58.04 -8.25,-2.53 -26.27,-23.36 -32.61,-29.7 -38.61,-38.58 -117.32,-126.02 -161.87,-143.33 -31.91,-12.4 -71.32,-12.35 -103.73,-0.74 -53.46,19.15 -101.79,70.45 -100.83,144.57 0.61,47.11 11.44,62.93 34.02,88.83 50.64,58.06 126.75,132.73 180.78,186.75l305.27 307.22c10.85,10.84 20.3,20.23 31.08,31.14 5.78,5.85 25.43,25.43 28.67,31.6 -22.69,12.48 -324.2,41.76 -377.58,71.64 -94.37,52.82 -126.23,193.39 -38.7,253.29 11.05,7.56 24.68,11.43 34.94,19.23z"/>
 </g>
</svg>
