<?xml version="1.0" encoding="UTF-8"?>
<!DOCTYPE svg PUBLIC "-//W3C//DTD SVG 1.1//EN" "http://www.w3.org/Graphics/SVG/1.1/DTD/svg11.dtd">
<!-- Creator: CorelDRAW -->
<svg xmlns="http://www.w3.org/2000/svg" xml:space="preserve" width="18.5219mm" height="18.5219mm" version="1.1" style="shape-rendering:geometricPrecision; text-rendering:geometricPrecision; image-rendering:optimizeQuality; fill-rule:evenodd; clip-rule:evenodd"
viewBox="0 0 422.44 422.44"
 xmlns:xlink="http://www.w3.org/1999/xlink"
 xmlns:xodm="http://www.corel.com/coreldraw/odm/2003">
 <defs>
  <style type="text/css">
   <![CDATA[
    .fil0 {fill:black}
   ]]>
  </style>
 </defs>
 <g id="Layer_x0020_1">
  <metadata id="CorelCorpID_0Corel-Layer"/>
  <path class="fil0" d="M257.42 363.03c0,-5.77 2.16,-14.06 4.22,-18.88 13.02,-30.48 62.7,-41.55 83.8,0.17 17.79,35.17 -21.28,78.93 -60.53,60.53 -11.01,-5.16 -17.94,-12.09 -23.1,-23.1 -1.95,-4.16 -4.39,-13.07 -4.39,-18.71zm46.2 -191.42c0,8.86 13.2,8.86 13.2,0 0,-8.86 -13.2,-8.86 -13.2,0zm-283.83 -132.01c0,5.43 -1.25,13.2 6.6,13.2 7.85,0 6.6,-7.78 6.6,-13.2 0,-8.86 -13.2,-8.86 -13.2,0zm0 -33c0,5.43 -1.25,13.2 6.6,13.2 7.85,0 6.6,-7.78 6.6,-13.2 0,-4.08 -2.81,-6.28 -5.83,-6.6l-1.54 0c-3.02,0.32 -5.83,2.52 -5.83,6.6zm13.2 19.8c0,7.85 7.78,6.6 13.2,6.6 8.86,0 8.86,-13.2 0,-13.2 -5.42,0 -13.2,-1.25 -13.2,6.6zm-33 0c0,7.85 7.78,6.6 13.2,6.6 8.86,0 8.86,-13.2 0,-13.2 -5.43,0 -13.2,-1.25 -13.2,6.6zm340.76 191.42c9.74,0 7.43,-13.88 7.43,-23.93l0.79 -43.76c0.06,-5.02 0.88,-8 0.86,-13.99 -0.02,-4.97 0.05,-9.94 0.04,-14.9 -0.01,-12.28 -12.72,-12.54 -13.27,-0.81l-0.79 28.91c0.03,6.28 -0.87,8.97 -0.85,14.83l-0.85 44.62c0,5.57 1.27,9.03 6.65,9.03zm-50.33 146.04c-0.38,-2.44 2.24,-8.3 3.49,-9.71 6.65,-7.56 21.86,-4.29 22.71,8.22 1.09,15.89 -23.43,19.37 -26.2,1.49zm-13.2 -2.47c0,17.13 12.12,28.05 23.93,28.05 8.57,0 14.56,-0.88 21.28,-7.6 14.86,-14.86 8.19,-45.21 -20.45,-45.21 -12.73,0 -24.75,12.02 -24.75,24.75zm-191.42 2.47c-0.65,-4.18 3.26,-13.17 12.54,-13.82 7.3,-0.51 13.22,5.79 13.67,12.33 0.5,7.31 -5.78,13.22 -12.33,13.67 -3.36,0.23 -7.33,-1.58 -9.4,-3.44 -2.23,-2.01 -4.1,-6.34 -4.47,-8.74zm-13.2 -2.47c0,8.7 1.41,14.05 7.19,20.04 17.42,18.06 45.62,3.19 45.62,-15.91 0,-8.57 -0.88,-14.56 -7.6,-21.28 -16.28,-16.28 -45.21,-4.72 -45.21,17.15zm-4.95 -282.17c1.23,-1.84 9.13,-7.21 10.73,-13.2l1.65 0c1.46,5.48 8.95,10.55 10.73,13.2 -1.23,1.84 -9.13,7.21 -10.73,13.2l-1.65 0c-1.58,-5.91 -9.43,-11.27 -10.73,-13.2zm-28.05 0c0,11.48 12.63,0.87 25.72,17.18 10.89,13.57 2.67,29.02 13.89,29.02 11.21,0 2.99,-15.45 13.88,-29.02 13.09,-16.31 25.72,-5.7 25.72,-17.18 0,-7.99 -7.5,-5.89 -13.45,-8.01 -25.71,-9.18 -13.24,-38.2 -26.16,-38.2 -12.93,0 -0.45,29.02 -26.16,38.2 -5.94,2.12 -13.45,0.02 -13.45,8.01zm154.65 -79.21l3.22 0c6.36,0.48 12.45,3.81 15.71,9.6 3.9,6.93 2.49,12.33 1.1,20.69 -2.41,14.51 -4.6,30.2 -7.06,44.92l-14.15 89.81c16.85,0 10.64,6.73 10.7,23.9 0.04,10.84 -2.47,33.45 -2.43,44.6 0.04,9.79 -2.5,31.75 -2.5,43.71l13.2 0c0,-6.66 1.05,-13.7 1.89,-20.39l16.11 -139.82c0.96,-8.66 5.03,-52.68 7.65,-59.18 1.9,-4.72 6.63,-8.99 11.53,-10.74 7.02,-2.52 73.59,-0.88 87.4,-0.88 0.34,-4.06 2.28,-6.6 6.6,-6.6l72.61 0c3.99,0 6.6,2.61 6.6,6.6l0 39.61c0,9.24 -12.34,6.6 -26.4,6.6 0,3.46 -0.66,4.18 -0.83,7.42 -0.36,6.98 0.15,14.11 -1.05,22.88 -1.44,10.51 -1.91,26.9 -2.22,38.2l-0.97 15.53c-0.28,2.54 -0.7,3.05 -0.73,6.69 -0.09,10.61 -1.64,20.18 -1.6,30.58l-3.8 60.56c-0.8,5.35 -0.52,9.85 -1.4,15.1 -2.03,12.23 -7.16,24.14 -13.8,34.05 5.51,0 11.02,0 16.54,-0.03 5.99,-0.04 9.87,0.83 9.87,6.63 0,40 3.54,39.68 -13.2,39.61 -6.6,-0.03 -13.21,-0 -19.8,-0 -0.93,4 -1.32,7.61 -2.56,11.47 -2.32,7.24 -9.95,20.4 -15.45,24.98 -15.92,13.24 -25.21,16.36 -45.52,16.36 -16.12,0 -35.1,-11.48 -44.08,-24.4 -7.94,-11.43 -8.41,-16.42 -11.2,-28.4l-85.81 0c-0.93,4 -1.32,7.61 -2.56,11.47 -1.15,3.58 -2.45,5.98 -4.03,9.17 -3.87,7.79 -4.23,7.07 -8.37,12.26 -1.19,1.49 -1.54,2.3 -3.05,3.55 -15.92,13.24 -25.21,16.36 -45.52,16.36 -16.12,0 -35.1,-11.48 -44.08,-24.4 -7.94,-11.43 -8.41,-16.42 -11.2,-28.4 -7.7,0 -15.4,-0 -23.1,0 -8.03,0 -16.5,1.64 -16.5,-6.6l0 -79.21c0,-3.99 2.61,-6.6 6.6,-6.6l35.48 0c0,-4.06 -0.94,-25.09 -3.18,-27.35 -1.15,-1.16 -12.5,-5.92 -12.5,-17.21l0 -75.91c0,-9.08 9.08,-18.15 18.15,-18.15l82.51 0c4.48,0 5.68,2.8 6.58,-1.61 0.26,-1.27 0.02,-7.39 0.01,-9.13 -0.1,-13.19 2.58,-40.27 2.48,-53.63l1.63 -35.5c0.4,-9.46 8.56,-18.96 18.17,-18.96 11.78,0 9.35,9.73 5.59,12.2 -7.89,5.19 -10.18,-5.53 -10.51,21.67 -0.06,4.58 -0.83,5.25 -0.89,9.83 -0.32,26.29 -2.91,55.37 -3.23,81.75l-0.86 19.77 6.6 0 14.15 -88.99c1.24,-7.43 2.45,-14.92 3.66,-22.75 1.3,-8.44 5.22,-38.06 8.01,-43.15 3.5,-6.4 9.57,-9.66 15.8,-10.13zm-141.45 363.03c0,-5.64 2.44,-14.55 4.39,-18.71 13.73,-29.3 51.1,-36.78 74.21,-13.68 36.36,36.36 -6.15,95.27 -51.1,74.21 -6.29,-2.95 -9.07,-4.81 -13.68,-9.42 -7.96,-7.96 -13.81,-20.68 -13.81,-32.39zm304.45 -26.4l25.58 0 0 19.8 -19.8 0c-1.89,-8.09 -2.42,-12.3 -5.78,-19.8zm-317.65 19.8l-26.4 0 0 -66.01 253.3 0c2.42,0 16.18,14.8 17.33,16.5 -13.97,3.25 -28.43,18.18 -34.69,32.14 -2.91,6.49 -3.15,9.81 -4.91,17.36l-85.81 0c-2.79,-11.98 -3.26,-16.97 -11.2,-28.4 -3.89,-5.6 -5.96,-6.94 -10.04,-10.59 -1.76,-1.58 -1.64,-1.57 -3.66,-2.94 -25.32,-17.13 -52.52,-13.96 -75.9,5.49l-6.13 7.07c-5.86,7.72 -11.04,19.19 -11.89,29.37zm145.21 -79.21l-128.71 0c0,-3.33 -0.57,-9.2 -1.05,-12.97 -0.36,-2.78 -1.35,-10.38 -1.42,-13.43l60.23 0c9.08,0 18.15,-9.08 18.15,-18.15l0 -54.46 58.58 0 -5.78 99.01zm-73.43 -39.6l-5.77 0c0,-9.92 2.03,-19.8 -6.6,-19.8 -8.63,0 -6.6,9.88 -6.6,19.8l-45.38 0c-4.08,0 -7.43,-3.35 -7.43,-7.43l0 -70.96c0,-4.08 3.35,-7.43 7.43,-7.43l77.56 0c8.38,0 7.43,8.83 7.43,13.2 -16.32,0 -13.2,-0.39 -13.2,36.3 0,7.15 -0.02,14.3 0,21.45 0.02,7.91 0.42,14.85 -7.43,14.85zm240.1 85.81c-8.04,0 -3.05,-3.29 -18.92,-12.43 -20.15,-11.62 -29.25,-4.75 -34.16,-8.75 -2.15,-1.75 -5.2,-5.32 -7.36,-7.49 -2.46,-2.46 -13.82,-12.17 -13.82,-15.06l0 -193.89 26.4 0 0 59.4c0,8.86 13.2,8.86 13.2,0l0 -59.4 19.8 0c0.34,4.06 2.28,6.6 6.6,6.6l38.78 0c0,11.59 -2.06,32.16 -2.45,46.23l-7.45 122.91c-0.19,3.64 -0.74,3.44 -0.85,7.4 -0.36,13.28 -0.97,22.51 -6.33,34.92 -1.7,3.94 -9.77,19.56 -13.44,19.56zm-1.65 -270.62l59.41 0 0 26.4 -59.41 0 0 -26.4zm-85.81 26.4l0 198.02 -38.78 0c1.96,-8.43 17.48,-152.18 19.56,-168.56 1.26,-9.91 1.84,-18.33 3.19,-28.17 1.72,-12.54 -0.79,-21.1 10.26,-21.1l78.38 0 0 13.2 -66 0c-3.99,0 -6.6,2.61 -6.6,6.6zm-84.98 85.81l-12.38 0 21.45 -136.14c1.06,-6.29 0.78,-15.13 7.52,-15.46 8.39,-0.41 6.21,7.71 5.2,14.16l-21.8 137.44z"/>
 </g>
</svg>
