<?xml version="1.0" encoding="UTF-8"?>
<!DOCTYPE svg PUBLIC "-//W3C//DTD SVG 1.1//EN" "http://www.w3.org/Graphics/SVG/1.1/DTD/svg11.dtd">
<!-- Creator: CorelDRAW -->
<svg xmlns="http://www.w3.org/2000/svg" xml:space="preserve" width="24.0336mm" height="18.4981mm" version="1.1" style="shape-rendering:geometricPrecision; text-rendering:geometricPrecision; image-rendering:optimizeQuality; fill-rule:evenodd; clip-rule:evenodd" viewBox="0 0 538.76 414.67" xmlns:xlink="http://www.w3.org/1999/xlink" xmlns:xodm="http://www.corel.com/coreldraw/odm/2003">
	<g id="Layer_x0020_1">
		<metadata id="CorelCorpID_0Corel-Layer" />
		<path class="fil0" d="M99.43 314.66l5.7 5.44 -5.7 -5.44zm47.05 63.02c0.65,-0 1.3,0.04 1.94,0.13 0.14,0.02 0.29,0.04 0.43,0.07l0 0c4.34,0.78 8.11,3.79 8.11,9.1l0 6.79 161.73 0 0 -373.15 -161.73 0 0 72.82c0,12.53 -21.02,12.28 -21.02,0l0 -93.45 13.63 0 7.38 0 351.04 0c3.69,0 7.04,1.5 9.46,3.93 2.42,2.42 3.93,5.77 3.93,9.46l0 380.65 7.05 0c5.7,0 10.31,4.62 10.31,10.31 0,5.7 -4.62,10.31 -10.31,10.31l-371.48 0 0 0 -21.02 0 0 0 -6.39 0c-5.69,0 -10.31,-4.62 -10.31,-10.31 0,-5.69 4.62,-10.31 10.31,-10.31l6.39 0 0 -7.06c0,-6.15 5.27,-9.28 10.53,-9.31zm219.14 -109.65c0,8.84 6.85,14.68 14.21,13.43 6.25,-1.06 11.82,-8.12 15.71,-12l69.2 -69.2c4.54,-4.54 11.6,-9.71 11.6,-16.89 0,-10.09 -7.36,-12.21 -14.65,-12.21 -5.78,0 -21.32,17.65 -25.85,22.18l-60.24 60.24c-3.25,3.25 -9.97,8.75 -9.97,14.45zm0 -72.45c0,8.1 5.49,12.21 13.84,12.21 5.43,0 10.47,-6.81 13.64,-9.97 4.04,-4.04 31.62,-30.58 33.02,-33.74 5,-11.27 -5.85,-20.37 -15.36,-17.05 -5.86,2.05 -32.37,30.59 -39.64,37.75 -3.04,2.99 -5.49,5.02 -5.49,10.79zm-26.3 -174.94l0 373.15 161.45 0 0 -373.15 -161.45 0zm-77.88 274.14c5.93,0 9.55,-4.26 10.07,-8.57l0 -2.17c-0.46,-3.62 -3.3,-6.76 -9.01,-6.76 -3.73,0 -7.56,4.75 -8.23,8.26 -0.84,4.37 3.09,9.24 7.17,9.24zm-146.37 -140c0,4.65 1.58,9.55 7.42,9.55 5.97,0 14.32,-9.27 14.32,-13.79 0,-4.04 -3.27,-7.95 -8.48,-7.95 -5.56,0 -13.26,9.31 -13.26,12.2zm26.51 19.09c0,4.42 3.61,8.48 7.95,8.48 5.18,0 10.19,-6.74 15.25,-11.8 2.34,-2.34 4.29,-4.29 6.63,-6.63 4.45,-4.45 5.7,-4.39 5.7,-10.21 0,-3.82 -3.86,-6.89 -7.96,-6.89 -5.06,0 -10.57,7.12 -15.25,11.8 -2.43,2.43 -4.47,4.47 -6.89,6.89 -1.76,1.76 -5.44,4.97 -5.44,8.35zm98.64 97.05c5.58,0 6.76,-2.26 10.21,-5.7 2.69,-2.69 5,-5 7.69,-7.69 2.6,-2.6 4.82,-4.82 7.42,-7.42 2.56,-2.56 5.97,-4.57 5.97,-9.41 0,-6.07 -4.15,-7.95 -9.01,-7.95 -3.71,0 -8.21,5.82 -10.48,8.09 -2.81,2.81 -17.6,16.91 -18.49,19.17 -2.04,5.21 2.1,10.92 6.69,10.92zm-75.83 -75.3c0,10.37 8.87,10.55 12.83,7.53l28.67 -28.6c2.58,-2.56 4.11,-3.48 4.11,-8.09 0,-3.82 -4.07,-7.42 -7.96,-7.42 -4.95,0 -8.28,4.84 -11,7.56l-18.56 18.56c-2.27,2.27 -8.09,6.76 -8.09,10.47zm48.26 41.9c0,5.18 2.13,9.02 7.95,9.02 5.02,0 8.89,-5.44 13.66,-10.21l23.86 -23.87c4.74,-4.74 10.21,-8.63 10.21,-13.65 0,-6.07 -4.15,-7.96 -9.02,-7.96 -3.58,0 -9.49,7.1 -12.86,10.48l-23.33 23.33c-2.07,2.07 -3.76,3.76 -5.84,5.83 -1.73,1.73 -4.64,3.94 -4.64,7.03zm-22.27 -22.27c0,1.81 1.32,4.65 2.24,5.71 0.89,1.01 4.15,2.77 5.71,2.77 4.98,0 8.03,-4.58 10.74,-7.29l45.34 -45.34c3.34,-3.34 17.1,-15.49 17.1,-19.49 0,-6.32 -2.69,-9.02 -9.01,-9.02 -4,0 -15.93,13.54 -19.22,16.84l-45.08 45.08c-2.39,2.39 -7.82,6.73 -7.82,10.74zm-190.38 177.07l0 -4.76c0.51,-4.97 2.61,-9.79 6.49,-13.63l8.92 -9.11c0.08,-0.08 0.18,-0.2 0.26,-0.27l1.6 -1.58c0.33,-0.32 0.61,-0.6 0.81,-0.78l0.54 -0.52c0.08,-0.07 0.2,-0.18 0.28,-0.25l16.15 -16.2c0.08,-0.08 0.19,-0.19 0.26,-0.27l22.82 -22.78c0.75,-0.66 0.71,-0.63 1.35,-1.3l6.85 -6.94c0.08,-0.08 0.19,-0.19 0.26,-0.26 0.08,-0.08 0.19,-0.19 0.27,-0.26l1.3 -1.35c0.08,-0.08 0.18,-0.19 0.26,-0.27l1.34 -1.31c0.11,-0.11 0.41,-0.43 0.52,-0.54l5.75 -5.92c2.13,-2.01 5.38,-3.63 6.16,-6.57 -1.4,-2.09 -4.77,-4.39 -4.77,-7.96 0,-5.21 3.38,-7.36 6.23,-10.21 2.19,-2.19 6.02,-5.53 7.56,-7.82 -2.72,-4.07 -20.72,-20.99 -25.59,-25.85 -8.55,-8.55 -20.55,-17.02 -20.55,-30.89 0,-11.9 9.65,-18.93 17.1,-26.38 10.13,-10.14 11.83,-3.84 17.37,-0.13 1.75,-2.62 7.58,-7.84 10.21,-10.47 10.52,-10.52 11.98,-12.15 22.8,-1.32l116.4 116.4c17.61,17.61 21.68,17.29 7.42,31.55 -2.63,2.63 -7.86,8.46 -10.47,10.21 4.62,6.9 9.93,7.31 -0.66,17.9 -8.97,8.97 -19.88,22.74 -37.01,13.94 -9.41,-4.84 -38.06,-38.46 -45.59,-43.5 -5.28,3.54 -10.67,13.79 -17.5,13.79 -3.71,0 -6.06,-3.15 -8.48,-4.77 -3.8,2.55 -39.38,39.12 -43.62,43.35 -7.02,7.02 -30.98,32.79 -39.45,36.91 -2.48,1.21 -5.2,1.93 -8.67,1.93 -14.8,0 -23.8,-10.56 -24.93,-21.79zm61.52 -177.07c0,-6.13 6.36,-8.77 9.01,-12.73l140.93 140.66c-1.33,2.06 -3.38,3.63 -5.3,5.57 -5.93,6 -9.76,4.85 -15.38,-0.8l-39.24 -39.24c-4.34,-4.34 -4.23,-5.44 -9.94,-5.44 -3.5,0 -6.6,4.21 -8.62,6.23 -2.18,2.18 -5.75,5.25 -7.29,7.56l-28.77 -28.51c2.44,-1.68 5.51,-5.25 7.69,-7.42 4.65,-4.65 6.23,-4.74 6.23,-10.74 0,-3.25 -3.34,-5.72 -5.17,-7.56l-39.24 -39.24c-2.21,-2.2 -4.9,-4.2 -4.9,-8.35zm29.56 -15.25l11.14 -11.4 123.29 123.56 -11.15 10.86 -123.29 -123.02z" />
	</g>
</svg>
