<?xml version="1.0" encoding="UTF-8"?>
<!DOCTYPE svg PUBLIC "-//W3C//DTD SVG 1.1//EN" "http://www.w3.org/Graphics/SVG/1.1/DTD/svg11.dtd">
<!-- Creator: CorelDRAW -->
<svg xmlns="http://www.w3.org/2000/svg" xml:space="preserve" width="15.909mm" height="14.6691mm" version="1.1" style="shape-rendering:geometricPrecision; text-rendering:geometricPrecision; image-rendering:optimizeQuality; fill-rule:evenodd; clip-rule:evenodd"
viewBox="0 0 182.25 168.04"
 xmlns:xlink="http://www.w3.org/1999/xlink"
 xmlns:xodm="http://www.corel.com/coreldraw/odm/2003">
 <defs>
  <style type="text/css">
   <![CDATA[
    .fil0 {fill:black}
   ]]>
  </style>
 </defs>
 <g id="Layer_x0020_1">
  <metadata id="CorelCorpID_0Corel-Layer"/>
  <path class="fil0" d="M42 122.09c0,-3.04 1.59,-4.63 4.63,-4.63l88.99 0c3.04,0 4.63,1.59 4.63,4.63l0 13.17 -98.24 0 0 -13.17zm40.93 42.36c0,4.27 7.12,5.42 7.12,-0.36 0,-4.37 -7.12,-4.29 -7.12,0.36zm14.59 -113.19c0,4.95 7.12,4.95 7.12,0 0,-1.16 -0.47,-1.93 -1.07,-2.49 -1.49,-1.36 -3.49,-1.36 -4.98,0 -0.61,0.55 -1.07,1.33 -1.07,2.49zm-97.53 19.93l0 -1.5c0.03,-3.38 0.43,-5.21 5.34,-5.62 -1.81,-3.42 -3.56,-7.6 -3.56,-12.81 0,-3.3 1.49,-11.75 5.34,-11.75 4.24,0 9.35,2.73 11.96,4.77 2.77,2.17 6.07,5.51 6.91,9.11 1.42,-0.38 2.93,-2.31 4.21,-3.26 0.75,-0.56 3.7,-2.43 4.68,-2.43 6.21,0 10.95,16.02 8.9,20.29 6.15,3.26 12.1,10.89 12.1,20.29 0,9.27 -3.66,10.98 -4.63,14.59 2.01,1.07 4.35,2.64 6.76,3.2 0,-5.49 -0.5,-7.52 1.79,-11.03 3.92,-6.02 11.47,-4.63 17.79,-4.63l0 -53.75c-3.37,2.25 -7.43,9.25 -12.46,9.25 -3.96,0 -7.48,-4.45 -9.7,-6.67 -2.04,-2.04 -6.67,-5.79 -6.67,-9.34 0,-4.09 3.42,-6.8 5.61,-8.99l14.59 -14.59c1.55,-1.55 5.54,-6.32 7.92,-6.32l24.92 0c1.04,0 2.85,1.8 2.85,2.85l0 34.88c0,4.27 -7.12,4.27 -7.12,0l0 -30.61 -18.51 0c-1.21,0 -4.96,4.42 -5.96,5.43 -3.19,3.19 -15.07,14.41 -16.91,17.08l8.99 8.81c3.29,-2.21 8.47,-8.29 11.66,-11.48 1.04,-1.04 2.59,-3.11 4.36,-3.11 1.69,0 3.56,1.74 3.56,3.56l0 67.27c0,2.11 -2.37,2.87 -4.25,2.87 -2.26,0.01 -4.53,-0.02 -6.79,-0.02 -10.33,-0 -8.54,1.42 -8.54,12.81l51.97 0c0,-11.66 1.78,-12.82 -8.9,-12.81 -2.27,0 -10.68,1.25 -10.68,-2.85l0 -27.76c0,-4.39 7.12,-4.48 7.12,0l0 23.49c6.41,0 14.04,-1.43 17.92,4.86 2.19,3.55 1.65,5.5 1.65,10.81 2.41,-0.56 4.75,-2.14 6.76,-3.2 -0.3,-1.12 -1.23,-2.29 -1.77,-3.22 -6.44,-11.02 -1.15,-26.17 9.24,-31.67 -2.05,-4.27 2.69,-20.29 8.9,-20.29 3.2,0 6.86,5.15 8.9,5.7 0.83,-3.55 4.37,-7.17 7.11,-9.26 2.35,-1.8 7.33,-4.62 11.4,-4.62 2.91,0 3.6,2.38 4.41,4.84 2.29,6.93 1.01,13.51 -2.28,19.72 2.66,0.22 5.34,1.06 5.34,3.92 0,6.58 -1.09,11.16 -4.67,15.97 -3.2,4.3 -8.89,6.95 -9.57,7.87 1.12,0.3 2.42,1.28 3.37,1.97 3.25,2.38 1.43,5.68 -0.31,8.56 -4.83,7.99 -15.41,12.31 -24.5,10.2 -2.38,-0.55 -3.46,-1.04 -5.31,-1.81 -3.11,-1.29 -3.39,-3.65 -6.79,-1.56l-1.7 1.15c5.08,0 6.95,-0.27 10.18,1.92 1.91,1.3 4.41,4.66 4.41,7.69l0 15.31c5.52,0 9.85,1.73 13.32,5.19 6.86,6.85 5.19,14.91 5.19,24.71 0,1.04 -1.8,2.85 -2.85,2.85l-60.51 0c-1.04,0 -2.85,-1.8 -2.85,-2.85 0,-1.62 0.69,-4.27 2.85,-4.27l56.24 0c0,-9.51 0.22,-18.51 -12.46,-18.51l-110.34 0c-12.68,0 -12.46,9 -12.46,18.51l47.7 0c1.04,0 2.85,1.8 2.85,2.85 0,1.62 -0.69,4.27 -2.85,4.27l-51.97 0c-1.04,0 -2.85,-1.8 -2.85,-2.85 0,-9.79 -1.66,-17.85 5.19,-24.71 3.46,-3.46 7.8,-5.19 13.32,-5.19l0 -15.31c0,-3.01 2.49,-6.38 4.41,-7.69 3.23,-2.2 5.1,-1.92 10.18,-1.92l-1.05 -0.73c-2.78,-1.82 -2.65,-1.75 -5.57,0.18 -2.26,1.49 -4.9,2.41 -7.77,2.91 -4.45,0.78 -8.52,0.19 -12.19,-1.06 -2.61,-0.89 -4.88,-2.06 -6.8,-3.88 -0.76,-0.71 -1.25,-1.04 -1.92,-1.64 -1.93,-1.75 -5.29,-6.4 -5.29,-8.95 0,-2.64 3.08,-4.73 5.34,-5.34 -0.79,-1.08 -1.67,-1.09 -2.84,-1.79 -6.21,-3.78 -11.4,-10.87 -11.4,-18.85zm150.92 34.53c-3.57,0 -4.76,-1.15 -7.47,-1.78 0.38,-1.41 2.46,-3.49 3.55,-4.28 5.4,-3.86 12.05,-4.46 17.8,-1.42 -0.89,3.32 -7.81,7.47 -13.88,7.47zm-133.48 -7.47c9.51,-5.04 20.14,1.13 21.36,5.69 -2.71,0.63 -3.91,1.78 -7.47,1.78 -6.45,0 -11.68,-3.32 -13.88,-7.47zm119.6 0.36c-0.14,-0.51 -6.25,-8.87 -1.54,-17.56 0.88,-1.63 2.25,-4.03 4.04,-4.51 0.24,0.89 5.82,8.49 1.13,17.5 -0.68,1.3 -2.59,3.88 -3.62,4.57zm-97.17 -10.68c0,-3.77 -0.11,-6.22 1.86,-9.53 0.59,-1 0.7,-0.75 0.99,-1.86 4.15,1.11 8.36,12.7 3.63,20.01 -0.55,0.85 -0.87,1.06 -1.14,2.06 -0.94,-0.63 -2.87,-3.18 -3.49,-4.34 -0.95,-1.75 -1.85,-3.81 -1.85,-6.34zm118.53 -1.78c0,-8.22 7.24,-14.19 16.37,-14.95 0,2.44 -0.76,4.49 -1.66,6.17 -2.93,5.45 -8.37,8.64 -14.71,8.78zm-150.92 -14.95c4.94,0.41 8.49,1.74 11.31,4.35 2.34,2.17 5.06,6.23 5.06,10.6 -8.87,-0.2 -16.37,-7.05 -16.37,-14.95zm138.11 -4.98c0,-8.46 1.07,-5.38 2.14,-9.97 3.16,1.67 5.41,5.28 6.47,9.2 0.61,2.24 0.57,4.29 0.25,6.77 -0.31,2.47 -1.85,4.83 -2.09,5.74 -2.98,-0.8 -6.76,-7.58 -6.76,-11.75zm-115.68 11.75c-0.52,-1.93 -3.64,-5.86 -1.84,-12.52 1.06,-3.91 3.31,-7.53 6.47,-9.2 1.07,4.59 2.14,1.5 2.14,9.97 0,3.51 -1.89,7.31 -4.18,9.71 -0.83,0.87 -1.35,1.71 -2.59,2.04zm132.06 -11.03c-0.42,-5.11 -1.24,-8.78 3.14,-14.3 0.98,-1.23 2.01,-2.18 3.33,-3.08 2.83,-1.92 2.19,-1.13 4.21,-2.2 0,1.66 0.36,2.05 0.36,4.63 0,7.18 -5.21,13.59 -11.03,14.95zm-152.7 -14.95c0,-2.58 0.36,-2.97 0.36,-4.63 2.97,1.57 4.65,1.85 7.38,5.08 4.54,5.39 3.72,9.48 3.3,14.49 -5.83,-1.36 -11.03,-7.77 -11.03,-14.95z"/>
 </g>
</svg>
