<?xml version="1.0" encoding="UTF-8"?>
<!DOCTYPE svg PUBLIC "-//W3C//DTD SVG 1.1//EN" "http://www.w3.org/Graphics/SVG/1.1/DTD/svg11.dtd">
<!-- Creator: CorelDRAW -->
<svg xmlns="http://www.w3.org/2000/svg" xml:space="preserve" width="22.3912mm" height="20.8774mm" version="1.1" style="shape-rendering:geometricPrecision; text-rendering:geometricPrecision; image-rendering:optimizeQuality; fill-rule:evenodd; clip-rule:evenodd"
viewBox="0 0 1136.34 1059.51"
 xmlns:xlink="http://www.w3.org/1999/xlink"
 xmlns:xodm="http://www.corel.com/coreldraw/odm/2003">
 <defs>
  <style type="text/css">
   <![CDATA[
    .fil0 {fill:black}
   ]]>
  </style>
 </defs>
 <g id="Layer_x0020_1">
  <metadata id="CorelCorpID_0Corel-Layer"/>
  <path class="fil0" d="M881.1 532.66l0 -186.43c0,-44.49 46.61,-37.84 46.61,-4.44l0 190.87c0,37.65 -46.61,37.41 -46.61,0zm-723.53 312.94c0,37.19 44.39,26.58 44.39,4.44 0,-35.47 -44.39,-29.01 -44.39,-4.44zm146.48 39.95c0,31.87 44.39,34.21 44.39,0 0,-26.81 -44.39,-26.81 -44.39,0zm281.87 -53.27c0,33.2 44.39,33.2 44.39,0 0,-26.81 -44.39,-26.81 -44.39,0zm-370.64 -17.75c0,33.19 44.39,33.19 44.39,0 0,-26.81 -44.39,-26.81 -44.39,0zm195.31 155.35c0,11.28 10.17,22.2 24.41,22.2 25.3,0 32.49,-44.39 -4.44,-44.39 -11.97,0 -19.97,10.98 -19.97,22.19zm-77.68 -15.53c0,40.01 44.39,33.04 44.39,4.44 0,-32.27 -44.39,-24.28 -44.39,-4.44zm215.28 -46.61c0,32.42 44.39,30.97 44.39,4.44 0,-17.36 -9.13,-26.85 -23.46,-25.26 -11.41,1.26 -20.92,9.08 -20.92,20.82zm8.88 -466.07c0,10.08 10.55,22.19 19.97,22.19 23.91,0 32.65,-22.96 19.99,-37.73 -12.6,-14.69 -39.97,-6.86 -39.97,15.54zm-51.04 412.81c0,10.08 10.54,22.19 19.97,22.19 23.55,0 33.18,-22.62 19.96,-37.71 -12.66,-14.44 -39.93,-7.09 -39.93,15.52zm73.24 -117.63c0,26.05 33.76,33.52 43.76,10.3 8.24,-19.16 -9.59,-36.95 -28.03,-30.29 -7.33,2.65 -15.73,11.14 -15.73,19.99zm-104.32 195.31c0,28.29 46.61,29.66 46.61,0 0,-31.18 -46.61,-27.95 -46.61,0zm168.68 -153.14c0,28.29 46.61,29.66 46.61,0 0,-31.18 -46.61,-27.95 -46.61,0zm-239.69 122.07c0,27.71 46.6,31.78 46.6,-2.22 0,-26.47 -46.6,-28.02 -46.6,2.22zm-173.12 11.1c0,34 46.61,29.93 46.61,2.22 0,-30.6 -46.61,-29.27 -46.61,-2.22zm-230.82 -468.19l0 -14.67c2.18,-20.14 13.7,-40.35 39.95,-54.24l-0.08 -324.12c-0.11,-34.87 21.06,-50.97 55.57,-50.97l137.6 0c19.18,0 32.42,2.91 43.56,11.93 9.56,7.74 15.17,21.77 16.29,36.98 2.38,32.59 0.08,75 0.08,108.67 0,72.5 0,145 0,217.5 23.41,5.45 45.11,36.78 43.08,65.49 -3.83,54.24 -43.08,53.39 -43.08,65.45l0 199.75c0,36.06 19.81,66.05 47.89,85.28 5.95,4.08 10.49,6.32 17.18,9.45 42.02,19.71 92.6,6.22 121.99,-23.1 56.31,-56.16 23.01,-161.01 35.48,-239.72 6.53,-41.19 37.75,-30.78 44.68,-16.9 4.76,9.53 2.28,14.82 0.36,26.4 -14.42,87.08 25.94,203.48 -56.38,269.91 -39.56,31.93 -62.95,37.38 -113.54,37.38 -35.03,0 -81.17,-23.69 -102.64,-48.28 -22.26,-25.49 -41.62,-60.1 -41.62,-107.08l0 -193.09 -159.79 0 0 210.84c0,42.88 17.81,93.23 32.54,122.82 68.91,138.4 232.09,206.62 382.25,158.81 47.32,-15.07 88.85,-42.8 124.04,-75.71 5.89,-5.51 6.73,-8.76 12.12,-14.51 24.92,-26.64 40.36,-52.03 54.89,-84.93 2.94,-6.67 5.49,-12.96 8.12,-20.73 30.93,-90.97 12.23,-157.61 19.05,-205.11 1.75,-12.12 10,-30.02 16.88,-38.6 30.35,-37.81 56.93,-37.35 100.26,-37.35l0 -159.79 -75.46 0c-50.56,0 -95.37,33.7 -107.1,34.54 -19.9,1.43 -37.76,-27.81 -9.33,-44.45 20.97,-12.28 45.87,-23.72 70.74,-29.13 48.1,-10.47 76.29,-7.57 125.59,-7.57 1.07,-12.88 14.29,-25.77 23.07,-32.42 47.56,-36.06 101.29,6.52 103.44,32.42 35.51,0 71.02,0.05 106.53,0 22.92,-0.03 30.88,-0.93 44.48,8.78 9.3,6.64 17.66,17.7 17.66,33.38l0 170.89c0,11.81 -12.82,27.26 -20.84,32.43 -11.65,7.52 -27.45,7.57 -45.75,7.53 -34.77,-0.08 -69.54,-0.01 -104.31,-0.01 -21.67,40.95 -68.6,48.39 -102.16,24.48 -18.02,-12.84 -15.07,-24.48 -24.34,-24.48 -30.6,0 -52.13,-4.79 -68.85,22.15 -12.83,20.69 -2.55,111.44 -9.74,161.15 -9.03,62.39 -35.76,119.29 -66.28,160.1 -26.28,35.13 -26.33,31.02 -55.42,59.99 -24.9,24.81 -74.6,51.49 -106.6,64.29 -38.75,15.5 -99.16,26.64 -141.52,22.96 -21.54,-1.88 -33.69,-0.79 -53.02,-4.75 -72.56,-14.83 -135.26,-45.04 -187.14,-96.94 -10.46,-10.46 -18.87,-18.14 -28.01,-29.69 -27.4,-34.67 -46.2,-65.28 -61.58,-109.31 -5.63,-16.11 -9.19,-26.23 -12.88,-44.83 -3.28,-16.52 -5.23,-32.19 -7.34,-48.15 -2.61,-19.73 -0.6,-190.32 -0.6,-225.78 -19.22,-4.48 -37.11,-28.39 -39.95,-55.38zm972.1 -82.22l119.85 0 0 159.79 -119.85 0 0 -159.79zm-927.71 75.46c0,-11.59 10.46,-22.19 26.63,-22.19l197.53 0c27.87,0 29.78,44.39 2.22,44.39l-206.4 0c-6.62,0 -10.62,-2.14 -13.85,-6.13 -2.03,-2.5 -6.13,-12.62 -6.13,-16.07zm42.17 -197.53c0,-6.99 4.86,-7.01 10.66,-9.32 3.13,-1.24 13.03,-6.22 15.98,-6.22 20.1,0 22.78,13.32 55.48,13.32 34.72,0 30.5,-22.73 63.68,-8.19 1.44,0.63 7.69,3.22 7.81,3.28 4.6,2.55 6.19,0.26 6.19,7.13l0 130.94 -159.79 0 0 -130.94zm0 -55.48l0 -137.61 159.79 0 0 137.61c-59.16,-13.78 -50.01,6.66 -84.34,6.66 -17.11,0 -6.53,-11.1 -55.48,-11.1 -9.55,0 -12.03,2.59 -19.97,4.44z"/>
 </g>
</svg>
