<?xml version="1.0" encoding="UTF-8"?>
<!DOCTYPE svg PUBLIC "-//W3C//DTD SVG 1.1//EN" "http://www.w3.org/Graphics/SVG/1.1/DTD/svg11.dtd">
<!-- Creator: CorelDRAW -->
<svg xmlns="http://www.w3.org/2000/svg" xml:space="preserve" width="19.0309mm" height="20.3845mm" version="1.1" style="shape-rendering:geometricPrecision; text-rendering:geometricPrecision; image-rendering:optimizeQuality; fill-rule:evenodd; clip-rule:evenodd"
viewBox="0 0 209.71 224.63"
 xmlns:xlink="http://www.w3.org/1999/xlink"
 xmlns:xodm="http://www.corel.com/coreldraw/odm/2003">
 <defs>
  <style type="text/css">
   <![CDATA[
    .fil0 {fill:black}
   ]]>
  </style>
 </defs>
 <g id="Layer_x0020_1">
  <metadata id="CorelCorpID_0Corel-Layer"/>
  <path class="fil0" d="M119.77 196.55c8.99,6.02 9.68,5.7 21.94,5.7 3.28,0 7.35,-1.18 9.65,-2.2 7.58,-3.36 11.16,-3.69 19.02,-0.14 7.76,3.51 21.57,3.48 28.82,-1.16 1.11,-0.71 2.03,-1.52 3.06,-2.21 0,7.52 -0.47,11.13 -3.87,15.44 -5.19,6.59 -18.54,6.14 -25.54,3 -16.25,-7.29 -21.77,2.18 -35.09,2.18 -3.13,0 -6.24,-0.43 -8.41,-1.24 -8.36,-3.13 -9.58,-10.69 -9.58,-19.38zm48.7 -13.16l7.46 0 0 -7.46 -7.46 0 0 7.46zm-37.73 0l7.9 0 0 -7.46 -7.9 0 0 7.46zm15.36 -3.51l7.46 0 0 -7.9 -7.46 0 0 7.9zm37.29 0c9.48,0 7.9,1.48 7.9,-6.58 0,-2.06 -2.7,-1.32 -7.9,-1.32l0 7.9zm-50.02 -14.92c19.97,0 11.68,2.07 22.25,4.08 13.51,2.57 16.69,-4.08 24.7,-4.08 8.57,0 11.88,-1.02 17.67,4.71 8.8,8.72 2.17,24.69 -9.77,24.69 -7.92,0 -9.74,0.74 -16.52,-2.35 -5.9,-2.69 -15.09,-2.86 -21.07,-0.14 -7.14,3.25 -8.48,2.49 -16.82,2.49 -11.85,0 -18.53,-15.95 -9.99,-24.47 2.49,-2.49 5.53,-4.92 9.55,-4.92zm-43.43 10.97l0 -33.78 -7.46 0 0 33.78 -7.46 0 0 -33.78 -7.9 0 0 33.78 -7.02 0 0 -33.78 -7.9 0 0 33.78c-3.33,-0.78 -7.02,-2.64 -7.02,-6.58l0 -82.92 52.21 0 0 26.76c0,2.07 4.53,3.8 6.29,4.68 2.59,1.29 4.85,2.42 7.31,3.66 5,2.5 13.16,5.33 13.16,9.21 0,1.31 -0.29,2.4 -1.05,3.34 -5.2,6.4 -19.63,-11.47 -24.84,-5.54 -1.54,1.75 -0.87,6.75 -0.87,10.1l-0.1 29.73c-0.67,5.13 -2.54,6.44 -7.36,7.56zm-70.64 -74.58l17.99 0 0 66.25c0,5.07 1.83,8.78 4.64,11.59 2.16,2.16 5.66,4.21 8.96,4.21l40.8 0c3.37,0 7.91,-3 9.53,-4.94 2.44,-2.91 3.66,-6.01 3.63,-11.29 -0.06,-9.94 -0,-19.9 -0,-29.84 6.95,3.68 17.18,10.1 24.02,2.08 1.47,-1.73 3.18,-5.2 3.18,-8.22 0,-9.68 -9.5,-12.43 -18.87,-17.11 -1.96,-0.98 -6.36,-3.49 -8.34,-3.95l0 -8.77 40.36 0c0,2.18 -0.51,4.93 -0.75,6.71l-5.4 41.99c-0.24,2.12 -0.83,5.01 -0.88,7.02 -9.24,0 -15.81,1.81 -21.26,9.02 -2.3,3.04 -4.63,7.78 -4.63,12.04 0,6.78 -0.92,26.92 1.32,31.59l-80.29 0c0,-1.97 -0.58,-4.88 -0.8,-6.66 -0.3,-2.43 -0.63,-4.5 -0.88,-6.58l-10.53 -81.6c-0.3,-2.51 -1.23,-12.18 -1.83,-13.52zm85.55 -14.92l52.21 0 0 7.02 -52.21 0 0 -7.02zm-97.4 0l29.83 0 0 7.02 -29.83 0 0 -7.02zm86.43 -24.57c0,-1.14 8.07,-9.21 9.21,-9.21l18.43 0c1.38,0 11.76,11.1 13.49,12.83 4.53,4.53 3.62,2.82 3.62,13.05l-44.75 0 0 -16.67zm-67.56 -9.21l44.75 0 0 25.89 -44.75 0 0 -25.89zm78.53 -14.92l14.92 0 0 7.02 -14.92 0 0 -7.02zm-64.93 -3.95l17.55 0c1.3,0 4.05,4.27 4.83,5.27 1.51,1.94 2.99,3.62 4.39,5.7l-35.98 0c1.4,-2.09 2.87,-3.77 4.39,-5.7 0.78,-1.01 3.53,-5.27 4.83,-5.27zm1.32 -26.32l14.92 0 0 18.43 -14.92 0 0 -18.43zm52.65 22.38c1.87,-3.9 0.2,-7.59 9.32,-16.13 8.24,-7.72 22.77,-6.24 34.12,-6.24 2.1,0 1.32,2.94 1.32,8.34 0,1.57 -9.95,8.8 -11.71,10.23 -1.03,0.83 -3.23,2.83 -4.14,3.32 -2.49,1.34 -24.03,0.49 -28.9,0.49zm52.21 -22.38l7.46 0 0 7.46 -7.46 0 0 -7.46zm-127.67 43.43l0 27.64 -14.48 0c-1.81,0 -3.95,1.47 -3.95,3.07l0 15.79c0,4.97 6.74,3.95 11.85,3.95 0,3.81 6.18,50.11 6.77,54.21 2.57,17.64 4.58,36.56 7.02,54.41 1.24,9.1 0.12,7.21 23.5,7.21 6.95,0 66.97,-0.46 68.66,0.22 0.87,0.35 6.75,7.24 16.01,7.24l8.34 0c7.77,0 11.52,-4.7 18.87,-4.7 7.34,0 11.1,4.7 18.87,4.7l8.34 0c11.18,0 21.5,-10.32 21.5,-21.5l0 -25.01c0,-5.9 -3.82,-11.54 -6.9,-14.6 -6.56,-6.52 -12.72,-6.46 -21.18,-6.46 -11.69,0 -16.62,8.43 -28.24,3.23 -1.9,-0.85 -4.98,-2.3 -7.3,-2.35 0,-6.98 7.02,-50.99 7.02,-56.6 13.81,0 11.85,1.08 11.85,-17.99 0,-2.74 -1.26,-4.83 -3.95,-4.83l-14.92 0 0 -11.85c0,-3.02 -18.87,-18.26 -18.87,-20.62l0 -9.65c0,-1.08 0.39,-1.01 1.04,-1.59 0.23,-0.21 1.12,-0.84 1.49,-1.14 1.03,-0.82 2.23,-1.9 3.17,-2.53l9.66 19.3 6.5 -3.22c-0.1,-1.96 -3.78,-8.43 -4.9,-10.67 -1.24,-2.49 -4.59,-8.43 -5.12,-10.68 4.64,-1.24 -0.4,-3.52 10.97,-3.51 12.93,0.01 10.97,2.36 10.97,-18.87 0,-2.12 -1.39,-3.51 -3.51,-3.51l-39.05 0c-16.87,0 -32.47,15.54 -32.47,33.34 0,5.42 6.56,4.39 11.41,4.39l0 8.34c0,2.48 -11.41,9.65 -11.41,14.04l0 18.43 -7.02 0 0 -27.64c0,-3.46 -0.69,-4.19 -2.25,-6.09l-11.7 -14.62c-2.03,-2.37 -1.41,-3.33 -1.4,-7.37l0.02 -17.57c0.02,-3.18 -0.44,-5.25 -3.53,-5.25l-22.82 0c-2.86,0 -3.53,1.84 -3.53,4.8l0.02 17.57c0,3.57 0.59,5.47 -1.19,7.58l-11.72 14.6c-1.67,2.08 -2.44,2.66 -2.44,6.33z"/>
 </g>
</svg>
