<?xml version="1.0" encoding="UTF-8"?>
<!DOCTYPE svg PUBLIC "-//W3C//DTD SVG 1.1//EN" "http://www.w3.org/Graphics/SVG/1.1/DTD/svg11.dtd">
<!-- Creator: CorelDRAW -->
<svg xmlns="http://www.w3.org/2000/svg" xml:space="preserve" width="15.0775mm" height="15.1361mm" version="1.1" style="shape-rendering:geometricPrecision; text-rendering:geometricPrecision; image-rendering:optimizeQuality; fill-rule:evenodd; clip-rule:evenodd"
viewBox="0 0 1432.84 1438.41"
 xmlns:xlink="http://www.w3.org/1999/xlink"
 xmlns:xodm="http://www.corel.com/coreldraw/odm/2003">
 <defs>
  <style type="text/css">
   <![CDATA[
    .fil0 {fill:black}
   ]]>
  </style>
 </defs>
 <g id="Layer_x0020_1">
  <metadata id="CorelCorpID_0Corel-Layer"/>
  <path class="fil0" d="M980.53 1022.61c42.71,-0.95 119.88,-44.27 156.13,-71.44 8.02,-6.02 13.19,-10.21 20.5,-16.02 7.25,-5.76 13.89,-14.1 22.85,-16.49 6.53,4.37 12.86,10.81 20.02,16.49 43.25,34.31 123.87,86.28 176.63,87.46 0,16.17 -3.31,46.66 -5.45,61.99 -11.29,80.96 -59.09,176.92 -113.26,235.1 -12,12.89 -20,24.97 -34.18,36.05 -41.76,32.65 -45.62,36.74 -86.79,2.04 -7.68,-6.47 -11.18,-7.48 -17.99,-15.72 -7.29,-8.83 -8.73,-11.28 -17,-19.52 -51.4,-51.35 -105.09,-158.7 -115.72,-235.46l-5.74 -64.49zm-575.92 311.84c0,58.4 56.18,34.89 56.18,11.24 0,-47.9 -56.18,-34.18 -56.18,-11.24zm758.53 -168.56c-13.95,-9.34 -26.76,-25.29 -44.95,-25.29 -14.38,0 -28.09,14.78 -28.09,28.1 0,19.6 59.79,64.61 78.66,64.61 14.54,0 27.74,-17.18 35.86,-25.95l29.17 -32.62c10.32,-12.92 19.77,-20.18 29.31,-32.51 8.52,-11.03 23.65,-22.15 23.65,-38.15 0,-21.26 -31.07,-44.32 -56.65,-11.7l-43.8 48.91c-9.4,9.19 -13.54,18.15 -23.16,24.59zm24.96 272.51l-19.33 0c-23.62,-3.35 -47.46,-18.95 -78.01,-45.62 -13.1,-11.43 -10.23,-6.74 -20.34,-21.81l-480.4 0c-23.51,0.01 -45.36,2.56 -55.24,-12.26 -11.42,-17.12 -2.58,-36.93 13.34,-43.69 17.66,-7.49 442.33,-3.05 471.74,-3.05 -2.45,-9.18 -3.7,-7.26 -9.58,-15.72 -51.94,-74.81 -85.95,-169.61 -85.95,-265.22 0,-45.19 -6.02,-56.33 38.54,-62.61 19.35,-2.73 33.92,-9.19 51.37,-13.25 -8.61,-12.85 -45.81,-42.16 -59.77,-52.61 -12.04,-9.01 -55.65,-36.88 -69.46,-40.1 0,51.71 -6.36,86.61 -31,129.15 -8.25,14.25 -22.62,35.3 -33.19,48.27 -2.74,3.35 -15.95,19.41 -18.35,21.06 -9.22,6.31 -18.29,6.73 -28.6,2.81 -18.57,-7.04 -142.32,-141.7 -164.18,-156.33 -32.36,21.67 -74.17,72.31 -104.61,100.47l-62.22 56.02c-22.7,9.78 -37.02,-12.33 -47.5,-26.45 -41.34,-55.75 -63.8,-92.43 -63.8,-175 -33.95,17.97 -69.87,36.12 -99.03,63.92 -44.01,41.94 -35.98,31.05 -75.94,84.19 -23.99,31.9 -54.71,92.51 -66.31,127.54 -67.3,203.14 -44.5,173.86 145.77,173.86 37.64,0 98.33,-9.62 98.33,28.09 0,20.18 -13.78,30.9 -33.71,30.9l-177 0c-46.18,0 -92.43,-9.52 -113.37,-46.76 -30.62,-54.44 14.92,-178.99 35.08,-228.19 21.36,-52.13 45.48,-92.97 77.48,-136.03 56.13,-75.53 161.66,-154.75 253.67,-176.18 -4.18,-6.24 -6.91,-7.79 -11.63,-13.66l-33.76 -42.1c-52.3,-70.89 -69.8,-130.4 -69.8,-230.8 -24.57,-5.73 -53.37,-42.79 -53.37,-73.04l0 -16.86c0,-36.3 29.8,-71.86 59,-78.67 0,-39.5 20.68,-91.96 34.64,-119.87 9.73,-19.47 17.99,-32.75 29.97,-48.69l34.31 -41.55c25.04,-25.04 59.37,-47.41 91.18,-63.33 38.35,-19.19 35.48,-13.32 56.15,-22.51 15.12,-6.73 16.64,-32.74 43.11,-32.74l112.38 0c27.06,0 27.54,27.83 41.64,34.2 14.45,6.53 30.18,10.07 53.9,21.95 33.09,16.57 62.45,38.63 87.76,63.95 48.4,48.4 97.63,134.43 97.63,205.79 106.41,56.3 51.88,160.59 5.62,171.37 0,74.14 -1.13,103.73 -31.82,170.45 -29.2,63.51 -68.76,94.31 -83.36,116.11 27.96,2.33 102.04,42.42 127.34,58.06 34.11,21.08 43.63,33.94 66.08,51.92 18.91,15.14 29.3,29.75 34.13,33.3 20.05,-5.35 56.72,-40.22 70.24,-50.58 5.35,-4.09 6.79,-5.23 11.97,-10.49 31.18,-31.71 39.1,-16.08 60.39,2.75 27.13,23.99 55.86,45.79 87.62,64.08 122.51,70.59 135,-3.84 135,103.8 0,123.54 -76.05,280.58 -170.53,360.44 -29.29,24.76 -52.39,38.22 -74.2,41.3zm-516.61 -553.44c30.25,-7.05 62.01,-22.94 88,-38.43 3.72,-2.21 27.11,-17.76 27.19,-17.76 16.31,0 24.84,7.22 39.32,8.43 0,16.03 2.81,19.42 2.81,36.52 0,53.91 -23.16,88.26 -44.95,120.8l-42.82 -38.65c-5.3,-4.68 -8.96,-8.91 -14.06,-14.03 -14.24,-14.25 -46,-42.74 -55.49,-56.89zm-244.41 -56.19c6.91,0 20.57,11.03 26.93,15.21 22.28,14.63 69.81,38.98 93.87,40.99l-28.8 27.38c-21.01,21.06 -68.32,72.62 -86.38,82.18 -7.5,-14.18 -15.78,-23.25 -23.48,-38.33 -6.68,-13.1 -12.9,-29.56 -16.55,-45.25 -4.21,-18.02 -4.78,-36.11 -2.76,-54.71 1.55,-14.15 -2.32,-16.16 10.05,-20.87 3.9,-1.47 24.04,-6.6 27.12,-6.6zm-106.76 -280.94l0 -39.33 575.92 0c0,70.02 1.7,85.46 -34.62,153.61 -20.71,38.85 -63.88,84.63 -98.26,112.44 -41.72,33.76 -102.65,62.65 -159.29,62.65 -119.66,0 -283.74,-159.78 -283.74,-289.37zm-56.19 -132.04c0,-19.46 15.38,-36.53 30.9,-36.53l626.49 0c38.57,0 46.04,70.24 -5.62,70.24l-618.07 0c-16.88,0 -33.72,-16.84 -33.72,-33.71zm311.85 -314.65l0 -44.96 73.04 0c0,75.14 -0.54,198.54 30.9,264.09l-134.85 0c2.07,-8.9 4.58,-14.24 7.27,-23.63l15.71 -77c5.05,-35.24 7.93,-77.53 7.93,-118.49zm129.22 -8.43c50.17,26.53 71.93,27.83 121.5,83.59 23.5,26.44 63.93,96.23 63.93,143.97l-151.71 0c-0.94,-11.36 -3.82,-14.17 -7.11,-23.8l-18.61 -79.73c-5.89,-34.48 -8,-83.28 -8,-124.04zm-227.55 227.56l-151.71 0c1.27,-57.09 49.27,-133.51 91.87,-169.41 24.46,-20.62 68.39,-55.36 101.98,-58.15l-2.72 64.71c-1.47,49.44 -11.52,94.98 -26.4,142.15 -3,9.5 -3.44,20.71 -13.02,20.71z"/>
 </g>
</svg>
