<?xml version="1.0" encoding="UTF-8"?>
<!DOCTYPE svg PUBLIC "-//W3C//DTD SVG 1.1//EN" "http://www.w3.org/Graphics/SVG/1.1/DTD/svg11.dtd">
<!-- Creator: CorelDRAW -->
<svg xmlns="http://www.w3.org/2000/svg" xml:space="preserve" width="26.2621mm" height="26.1106mm" version="1.1" style="shape-rendering:geometricPrecision; text-rendering:geometricPrecision; image-rendering:optimizeQuality; fill-rule:evenodd; clip-rule:evenodd" viewBox="0 0 597.54 594.09" xmlns:xlink="http://www.w3.org/1999/xlink" xmlns:xodm="http://www.corel.com/coreldraw/odm/2003">
	<g id="Layer_x0020_1">
		<metadata id="CorelCorpID_0Corel-Layer" />
		<path class="fil0" d="M243.03 233.95l275.36 0c3.82,0 2.49,6.58 2.48,10.72l-0 42.04c-2.58,0.22 -2.93,0.83 -5.77,0.83l-268.77 0c-2.84,0 -3.19,-0.61 -5.77,-0.83l0 -41.22c-0.01,-3.77 -1.49,-11.54 2.47,-11.54zm-149.25 82.3l50.12 0 0 71.95 -50.12 0 0 -71.95zm221.51 -252.24l0 -17.79 25.87 0 0 35.57c-2.53,-0.68 -10.96,-6.49 -13.58,-8.25 -2.58,-1.73 -12.29,-6.63 -12.29,-9.54zm-315.29 67.1c0,7.13 6.04,10.51 8.89,10.51 7.71,0 13.94,-8.24 19.4,-9.7l0 256.28c-6.21,0 -12.51,-0.98 -16.33,2.26 -6.8,5.77 -1.58,17.14 4.2,17.14l312.87 0c11.57,0 11.34,-19.4 0,-19.4l-164.92 0 0 -75.19c0,-8.88 -8.05,-16.98 -16.98,-16.98l-56.59 0c-12.25,0 -16.98,11.67 -16.98,22.64l0 69.53 -25.06 0 0 -268.41c0,-2.42 15.72,-11.34 18.44,-13.09l105.72 -68.09c3.65,-2.22 6.09,-4.21 9.79,-6.38 24.72,-14.58 15.85,-18.91 52.01,5.1 3.19,2.12 6.49,4.5 9.73,6.44 17.72,10.58 39.87,26.04 58.01,37.39l58.37 37.03 0 53c-0.01,8.09 -0.31,14.77 4.97,17.69 5.06,2.8 11.86,0.58 14.06,-4.33 2.66,-5.94 1.19,-35.18 1.19,-52.62 2.9,1.53 5.69,3.22 8.57,5.17 2.72,1.83 5.98,4.53 10.02,4.53 4.84,0 9.7,-4.47 9.7,-10.51 0,-7.51 -13.97,-13.86 -22.47,-19.57l-26.04 -16.81c0,-14.01 0,-28.03 0,-42.04 0,-8.1 0.81,-13.07 -2.74,-18.28 -2.39,-3.51 -7.84,-7.59 -13.43,-7.59l-32.34 0c-5.59,0 -11.04,4.08 -13.43,7.59 -3.55,5.21 -2.74,10.18 -2.74,18.28 -2.22,-0.59 -8.9,-5.11 -11.16,-6.63l-53.99 -34.94c-2.14,-1.4 -3.38,-1.97 -5.52,-3.37 -2.05,-1.34 -3.5,-2.46 -5.35,-3.54 -18.83,-11.03 -33.36,2.27 -44.99,9.13l-101.31 65.23c-8.43,5.65 -16.89,10.69 -25.55,16.49l-38.36 24.7c-4.08,2.42 -9.66,5.04 -9.66,11.36zm492.83 229.79c0,15.85 20.61,14.28 21.96,2.2 1.6,-14.27 -21.95,-14.45 -21.96,-2.2zm-112.12 212.7c-8.26,0 -14.84,-6.58 -14.84,-14.84l0 -84.09 29.68 0 0 82.44c0,9.5 -5.6,16.49 -14.84,16.49zm-14.84 -134.38c0,-19.04 29.68,-21.27 29.68,1.65l0 13.19 -29.68 0 0 -14.84zm-20.61 5.77l0 9.07c-10.23,0 -17.31,0.57 -17.31,11.54 0,9.84 11.77,9.07 17.31,9.07 0,14.09 -1.31,84.36 1.71,93.93 0.77,2.44 1.71,4.51 2.94,6.96 8.11,16.06 29.93,23.5 46.02,14.91 8.7,-4.65 15.09,-11.17 18.09,-20.66 3.82,-12.09 2.15,-78.34 2.15,-95.13 15.91,0 16.55,-20.24 -0,-20.61 0,-13.37 0.54,-23.49 -5.8,-33.77 -3.01,-4.89 -11.09,-13.46 -18.11,-14.04 0,-13.07 14.24,-28.01 27.53,-31.83 23.57,-6.77 68.36,7.42 63.4,-14.57 -1.28,-5.69 -5.93,-8.02 -12.61,-8.02 -28.88,0 -50.64,-3.53 -72.07,10.38 -11.3,7.33 -20.08,18.48 -24.63,31.43 -5.2,14.8 2.2,8.56 -9.13,13.95 -13.34,6.34 -19.48,19.65 -19.48,37.4zm252.28 -137.44l0 7.19c-0.84,14.07 -6.68,28.39 -18.75,40.59 -17.92,18.1 -55.45,23.71 -55.45,8.03 0,-17.96 16.89,-7.08 31.82,-15.99 27.44,-16.38 26.98,-47.16 11.8,-63.09l-0.83 -0.81c-6.75,-6.4 -14.11,-11.57 -24.66,-12.44 0,10.63 0.81,18.76 -3.31,25.54 -2.94,4.84 -9.66,10.73 -17.3,10.73l-280.31 0c-5.64,0 -12.22,-4.35 -14.86,-7.4 -7.14,-8.27 -5.75,-17.49 -5.75,-28.87l-29.68 0c-9.52,0 -13.97,-4.07 -14.84,-8.59l0 -3.41c0.84,-4.53 4.9,-8.61 10.72,-8.61l33.8 0 0 -14.02c0,-12.87 10.21,-23.08 23.08,-23.08l275.36 0c7.6,0 12.83,3.14 16.73,7.18 7.75,8.01 6.35,18.18 6.35,29.92 7.24,0.16 17.2,3.69 22.56,6.3 19.54,9.5 32.22,29.37 33.5,50.83z" />
	</g>
</svg>
