<?xml version="1.0" encoding="UTF-8"?>
<!DOCTYPE svg PUBLIC "-//W3C//DTD SVG 1.1//EN" "http://www.w3.org/Graphics/SVG/1.1/DTD/svg11.dtd">
<!-- Creator: CorelDRAW -->
<svg xmlns="http://www.w3.org/2000/svg" xml:space="preserve" width="127.018mm" height="127.018mm" version="1.1" style="shape-rendering:geometricPrecision; text-rendering:geometricPrecision; image-rendering:optimizeQuality; fill-rule:evenodd; clip-rule:evenodd" viewBox="0 0 7669.09 7669.09" xmlns:xlink="http://www.w3.org/1999/xlink" xmlns:xodm="http://www.corel.com/coreldraw/odm/2003">
	<g id="Layer_x0020_1">
		<metadata id="CorelCorpID_0Corel-Layer" />
		<g id="_2023881876816">
			<path class="fil0" d="M5735.84 2556.36c-672.77,0 -312.17,18.7 -584.15,-166.79 -287.04,-195.76 -694.61,-60.06 -790.85,277.68 -36.62,128.51 -15.03,2255.22 -15.03,2493.41 -40.37,-46.45 -97.38,-183.8 -123.2,-244.28 -79.58,-186.47 -148.26,-320.37 -304.08,-446.85 -263.8,-214.11 -786.99,-66.62 -786.99,115.94 0,121.7 75.61,333.18 105.55,453.66 75.31,303.06 260.29,1094.85 379.07,1330.5 191.65,380.2 353.51,737.56 661.51,1048.05 60.34,60.82 105.23,74.44 160.59,127 58.14,55.19 64.27,124.4 163.19,124.4 119.6,0 158.28,-115.38 104.47,-216.32 -3.55,-6.67 -48.35,-68.03 -53.59,-74.23 -44.01,-52.03 -99.03,-72.32 -156.34,-115.27 -237.5,-177.99 -483.3,-691.81 -618.85,-962.9 -29.45,-58.9 -60.34,-110.64 -84.29,-171.35 -32.91,-83.42 -373.73,-1399.93 -373.73,-1479.63 111.7,-9.29 246.2,-95.88 411,100.27 72.41,86.2 217.52,422.76 297.44,581.31l191.66 399.5c35.09,74.77 47.88,149.18 154.39,149.18 139.94,0 128.48,-116.13 127.87,-255.59l-0.74 -2748.83c3.31,-418.4 513.06,-433.31 512.53,16.1l-0.59 1566.36c-0.37,143.9 -17.65,271.59 127.84,271.59 152.74,0 113.61,-147.31 164,-251.41 83.94,-173.45 419.19,-190.72 469.35,97.38 24.73,142.05 -30.71,281.85 133.56,281.85 217.52,0 37.85,-274.96 306.49,-365.32 65.33,-21.97 114.5,-18.45 177.57,8.86 305.97,132.46 11.2,612.1 282.85,612.1 209.32,0 47.77,-266.15 294.43,-361.06 194.91,-75 344.66,81.17 344.66,281.17l0 1965.2c0,177.93 -90.95,306.53 -208.04,367.15 -155.38,80.45 -889.51,48.27 -1118.08,48.27 -236.37,0 -463.34,-45.85 -463.34,127.81 0,77.28 50.54,127.82 127.82,127.82l1326.11 0c294.75,0 591.16,-296.41 591.16,-591.16l0 -2140.95c0,-119.39 -83.83,-252.91 -147.14,-316.21 -186.31,-186.31 -429.89,-184.62 -651.73,-67.24 -45.92,-197.1 -252.53,-335.52 -511.28,-335.52 -144.21,0 -210.33,62.5 -303.56,111.84 -123.17,-232.78 -438.16,-307.43 -687.02,-175.75l0 -1342.09 415.41 0c175.77,0 351.5,-175.73 351.5,-351.5l0 -1310.13c0,-77.28 -50.54,-127.82 -127.82,-127.82 -159.65,0 -127.86,164.07 -127.82,319.55l0.01 894.73c0.1,162.46 18.47,319.55 -143.8,319.55z" />
			<path class="fil0" d="M255.63 2412.57l0 -2013.13c0,-78.97 64.83,-143.8 143.8,-143.8l2013.13 0c78.97,0 143.8,64.83 143.8,143.8l0 2013.13c0,78.97 -64.83,143.8 -143.8,143.8l-2013.13 0c-78.97,0 -143.8,-64.83 -143.8,-143.8zm-255.63 -2061.06l0 2109c0,175.77 175.74,351.5 351.5,351.5l2109 0c175.77,0 351.5,-175.73 351.5,-351.5l0 -2109c0,-175.77 -175.73,-351.5 -351.5,-351.5l-2109 0c-175.77,0 -351.5,175.74 -351.5,351.5z" />
			<path class="fil0" d="M255.63 5735.84l0 -2013.13c0,-78.97 64.83,-143.8 143.8,-143.8l2013.13 0c78.97,0 143.8,64.82 143.8,143.8l0 2013.13c0,78.97 -64.83,143.8 -143.8,143.8l-2013.13 0c-78.97,0 -143.8,-64.83 -143.8,-143.8zm-255.63 -2061.07l0 2109c0,175.77 175.74,351.5 351.5,351.5l2109 0c175.77,0 351.5,-175.74 351.5,-351.5l0 -2109c0,-175.77 -175.73,-351.5 -351.5,-351.5l-2109 0c-175.77,0 -351.5,175.73 -351.5,351.5z" />
			<path class="fil0" d="M3323.27 351.5l0 2109c0,175.77 175.73,351.5 351.5,351.5 212.81,0 415.41,42.43 415.41,-127.81 0,-274.13 -511.27,21.81 -511.27,-271.62l0 -2013.13c0,-100.63 70.66,-143.06 174.72,-144.82l1918.73 1.45c325.47,3.04 218.42,-256.06 79.46,-256.06l-2077.04 0c-175.77,0 -351.5,175.74 -351.5,351.5z" />
			<path class="fil0" d="M4729.27 1597.73c-77.47,-51.88 -229.94,-221.96 -307.56,-299.57 -90.45,-90.45 -242.79,-275.61 -331.53,-275.61 -77.28,0 -127.81,50.54 -127.81,127.82 0,94.53 280.21,336.13 355.49,411.41 478.71,478.71 342.47,480.36 854.78,-31.95l1038.52 -1038.52c54.17,-54.17 179.75,-146.14 179.75,-235.67 0,-77.28 -50.54,-127.81 -127.82,-127.81 -87.54,0 -160.32,104.4 -211.7,155.78 -182.38,182.38 -1244.98,1262.48 -1322.12,1314.13z" />
		</g>
	</g>
</svg>
