<?xml version="1.0" encoding="UTF-8"?>
<!DOCTYPE svg PUBLIC "-//W3C//DTD SVG 1.1//EN" "http://www.w3.org/Graphics/SVG/1.1/DTD/svg11.dtd">
<!-- Creator: CorelDRAW -->
<svg xmlns="http://www.w3.org/2000/svg" xml:space="preserve" width="33.8674mm" height="29.348mm" version="1.1" style="shape-rendering:geometricPrecision; text-rendering:geometricPrecision; image-rendering:optimizeQuality; fill-rule:evenodd; clip-rule:evenodd"
viewBox="0 0 38309.98 33197.74"
 xmlns:xlink="http://www.w3.org/1999/xlink"
 xmlns:xodm="http://www.corel.com/coreldraw/odm/2003">
 <defs>
  <style type="text/css">
   <![CDATA[
    .fil0 {fill:black}
   ]]>
  </style>
 </defs>
 <g id="Layer_x0020_1">
  <metadata id="CorelCorpID_0Corel-Layer"/>
  <path class="fil0" d="M8219.57 28728.81c-350.21,-234.49 -4273.24,-4233.31 -4927.74,-4887.92 -498.62,-498.51 -1762.03,-2182.6 -2915.72,-1040.34 -153.84,152.26 -376.12,648.96 -376.12,900.76 0,637.42 553.03,1071.79 897.7,1416.46l5945.35 5945.23c418.42,418.54 778.48,778.59 1197.01,1197.01 471.13,471.13 697.82,937.74 1536.14,937.74 678.37,0 1051.65,-532.9 1416.57,-897.81l5905.3 -5905.3c502.02,-502.02 2174.69,-1935.78 2174.69,-2613.58 0,-618.3 -213.23,-1086.38 -832.32,-1324.61 -577.47,-222.16 -1081.97,7.47 -1424.6,344.67 -689.68,678.82 -1309,1313.75 -1992.57,1997.43 -671.24,671.24 -1284,1284 -1955.24,1955.12 -481.77,481.88 -1545.19,1660.57 -2014.96,1975.15 0,-4856.14 1054.71,-8221.95 3058.93,-12263.08 1634.1,-3294.66 5254.2,-7361.92 8516.4,-9439.1 192.53,-122.51 340.48,-205.53 538.55,-339.24l1608.53 -945.21c2550.46,-1474.49 6869.18,-2848.98 9819.28,-3028.95 560.5,-34.16 2955.31,-152.93 3172.5,-258.93 1328.45,-647.82 670.33,-2454.31 -379.4,-2454.31 -6616.7,0 -11667.06,1798 -16902.37,5362.56l-2429.09 1959.99 -2234.19 2234.64c-2585.98,2779.64 -4683.52,6424.17 -5876.23,10004.57 -154.18,462.76 -277.36,852.79 -418.54,1337.05 -696.13,2386.22 -1107.87,5084.07 -1107.87,7830z"/>
 </g>
</svg>
