<svg width="45" height="45" viewBox="0 0 45 45" fill="none" xmlns="http://www.w3.org/2000/svg">
<path d="M15.4688 2.8125C15.4688 2.43954 15.3206 2.08185 15.0569 1.81813C14.7931 1.55441 14.4355 1.40625 14.0625 1.40625C13.6895 1.40625 13.3319 1.55441 13.0681 1.81813C12.8044 2.08185 12.6562 2.43954 12.6562 2.8125V7.03125H15.4688V2.8125Z" fill="white"/>
<path d="M16.875 16.1719H42.8906V18.2812H16.875V16.1719Z" fill="white"/>
<path d="M12.6562 8.4375H15.4688V30.2344H12.6562V8.4375Z" fill="white"/>
<path d="M22.5 33.0469C22.5 32.6739 22.3518 32.3162 22.0881 32.0525C21.8244 31.7888 21.4667 31.6406 21.0938 31.6406H7.03125C6.65829 31.6406 6.3006 31.7888 6.03688 32.0525C5.77316 32.3162 5.625 32.6739 5.625 33.0469V33.75H22.5V33.0469Z" fill="white"/>
<path d="M23.9062 37.9688V38.6719C23.9064 38.8583 23.9806 39.037 24.1124 39.1689C24.2442 39.3007 24.4229 39.3748 24.6094 39.375C24.7959 39.375 24.9747 39.4491 25.1066 39.5809C25.2384 39.7128 25.3125 39.8916 25.3125 40.0781C25.3125 40.2646 25.2384 40.4434 25.1066 40.5753C24.9747 40.7072 24.7959 40.7812 24.6094 40.7812C24.0501 40.7806 23.514 40.5582 23.1185 40.1628C22.723 39.7673 22.5006 39.2311 22.5 38.6719V35.1562H5.625V38.6719C5.62439 39.2311 5.40195 39.7673 5.0065 40.1628C4.61105 40.5582 4.07488 40.7806 3.51562 40.7812C3.32914 40.7812 3.1503 40.7072 3.01844 40.5753C2.88658 40.4434 2.8125 40.2646 2.8125 40.0781C2.8125 39.8916 2.88658 39.7128 3.01844 39.5809C3.1503 39.4491 3.32914 39.375 3.51562 39.375C3.70205 39.3748 3.8808 39.3007 4.01262 39.1689C4.14445 39.037 4.21858 38.8583 4.21875 38.6719V37.9688C3.47283 37.9688 2.75746 38.2651 2.23001 38.7925C1.70257 39.32 1.40625 40.0353 1.40625 40.7812C1.40625 41.5272 1.70257 42.2425 2.23001 42.77C2.75746 43.2974 3.47283 43.5938 4.21875 43.5938H23.9062C24.6522 43.5938 25.3675 43.2974 25.895 42.77C26.4224 42.2425 26.7188 41.5272 26.7188 40.7812C26.7188 40.0353 26.4224 39.32 25.895 38.7925C25.3675 38.2651 24.6522 37.9688 23.9062 37.9688Z" fill="white"/>
<path d="M38.9436 28.1971L40.0781 19.6875H16.875V30.2344H21.0938C21.8394 30.2352 22.5543 30.5317 23.0816 31.059C23.6089 31.5863 23.9055 32.3012 23.9062 33.0469V33.0579C25.2656 33.5163 26.6905 33.75 28.125 33.75C30.2393 33.7481 32.3229 33.2437 34.2039 32.2782C36.0849 31.3127 37.7095 29.9139 38.9436 28.1971Z" fill="white"/>
<path d="M28.125 35.1562C26.6956 35.1556 25.274 34.9443 23.9062 34.5291V36.5624L24.5791 36.6213C25.1296 36.7064 25.6577 36.9005 26.1322 37.1924C26.6068 37.4842 27.0183 37.8678 27.3426 38.3207C27.667 38.7737 27.8977 39.2868 28.0212 39.83C28.1446 40.3733 28.1584 40.9357 28.0617 41.4843H37.1721L38.5986 30.7853C37.229 32.1708 35.598 33.2706 33.8001 34.0209C32.0022 34.7712 30.0732 35.1571 28.125 35.1562Z" fill="white"/>
<path d="M42.8906 19.6875H41.4844V20.3906C41.4838 23.1959 40.5943 25.9289 38.9436 28.1971L38.5984 30.7853C41.3488 28.0253 42.8924 24.2871 42.8906 20.3906V19.6875Z" fill="white"/>
</svg>
