<?xml version="1.0" encoding="UTF-8"?>
<!DOCTYPE svg PUBLIC "-//W3C//DTD SVG 1.1//EN" "http://www.w3.org/Graphics/SVG/1.1/DTD/svg11.dtd">
<!-- Creator: CorelDRAW -->
<svg xmlns="http://www.w3.org/2000/svg" xml:space="preserve" width="47.9726mm" height="14.6173mm" version="1.1" style="shape-rendering:geometricPrecision; text-rendering:geometricPrecision; image-rendering:optimizeQuality; fill-rule:evenodd; clip-rule:evenodd"
viewBox="0 0 3149.07 959.52"
 xmlns:xlink="http://www.w3.org/1999/xlink"
 xmlns:xodm="http://www.corel.com/coreldraw/odm/2003">
 <defs>
  <style type="text/css">
   <![CDATA[
    .fil0 {fill:#006187}
    .fil1 {fill:#00B8A8;fill-rule:nonzero}
   ]]>
  </style>
 </defs>
 <g id="Layer_x0020_1">
  <metadata id="CorelCorpID_0Corel-Layer"/>
  <path class="fil0" d="M728.14 12.1l6.05 2.42 0 104.01 -6.05 3.63 -81.04 -77.41 -6.05 -3.64 -211.67 0 -4.84 3.64 0 382.21 6.04 2.42 83.47 26.61 -7.27 3.64 -272.14 0 -7.25 -3.64 77.41 -26.61 6.06 -2.42 0 -382.21 -4.84 -3.64 -211.67 0 -7.25 3.64 -79.84 77.41 -7.26 -3.63 0 -104.01 7.26 -2.42 720.88 0zm490.59 0l6.05 2.42 -73.78 25.39 -7.26 3.63 0 383.43 7.26 2.42 73.78 26.61 -6.05 3.64 -269.72 0 -7.26 -3.64 79.83 -26.61 6.05 -2.42 0 -383.43 -6.05 -3.63 -79.83 -25.39 7.26 -2.42 269.72 0zm479.46 0l6.05 2.42 -60.48 25.39 -4.84 1.21 0 3.64 240.7 330.21 249.17 -331.43 -6.05 -3.63 -74.99 -25.39 6.05 -2.42 206.83 0 -59.28 27.81 -6.05 2.42 -324.15 424.55 -6.05 2.42 -33.87 0 -4.84 -2.42 -307.22 -423.34 -4.84 -2.42 -81.04 -26.6 7.25 -2.42 257.63 0zm1204.14 447.53l-6.05 -3.64 55.63 -26.61 4.84 -1.21c1.21,0 1.21,-1.21 0,-2.42l-96.76 -130.63c-2.42,-1.21 -3.63,-2.42 -4.84,-2.42l-284.24 0c-2.42,1.21 -3.63,1.21 -4.84,2.42l-102.81 131.84 6.05 4.84 83.45 24.19 -22.98 3.64 -206.81 0 -6.05 -3.64 74.98 -26.61 4.84 -1.21 331.4 -425.75c1.21,-2.42 2.42,-2.42 6.05,-2.42l32.67 0c2.42,0 3.62,0 4.84,2.42l304.81 424.55 4.84 2.42 67.72 26.61 -7.25 3.64 -239.48 0zm-180.24 -359.24c-1.21,-1.21 -2.42,-1.21 -3.62,-1.21 -2.42,0 -4.84,0 -6.05,1.21l-122.15 159.65c-2.42,3.64 -1.21,4.85 6.05,4.85l234.63 0c7.26,0 8.47,-1.21 7.26,-4.85l-116.12 -159.65z"/>
  <path class="fil1" d="M280.68 789.68c-1.92,-14.12 -4.31,-23.87 -7.18,-29.26 -2.88,-5.38 -7.9,-9.75 -15.08,-13.1 -10.54,-5.26 -25.26,-7.9 -44.16,-7.9 -25.61,0 -45.42,8.8 -59.43,26.4 -14.01,17.59 -21.01,41.59 -21.01,71.99 0,29.45 8.2,54.28 24.6,74.51 16.4,20.22 39.79,30.34 70.2,30.34 16.52,0 29.44,-3.83 38.78,-11.49 7.9,-6.22 17.11,-18.19 27.65,-35.91 1.19,-0.24 3.05,0.36 5.57,1.8 2.51,1.44 4.01,2.87 4.49,4.31 -1.92,7.42 -5.99,16.76 -12.21,28.01 -6.22,11.25 -11.37,18.19 -15.44,20.82 -16.52,6.23 -35.19,9.34 -56.01,9.34 -39.98,0 -70.86,-10.42 -92.64,-31.24 -21.79,-20.83 -32.68,-49.91 -32.68,-87.25 0,-20.59 4.85,-39.68 14.55,-57.27 9.69,-17.59 23.99,-31.54 42.9,-41.83 20.11,-11.01 44.41,-16.52 72.89,-16.52 12.45,0 27.11,1.14 43.99,3.41 16.88,2.27 26.27,3.53 28.19,3.77 -3.35,20.83 -5.26,39.5 -5.74,56.01 -0.48,0.72 -1.74,1.32 -3.77,1.8 -2.03,0.48 -3.95,0.66 -5.74,0.54 -1.79,-0.12 -2.69,-0.54 -2.69,-1.26zm222.86 -47.76c-0.72,-0.95 -0.95,-2.93 -0.72,-5.92 0.24,-2.99 0.84,-4.73 1.8,-5.21 2.39,0 8.55,0.18 18.49,0.54 9.93,0.35 19.57,0.54 28.9,0.54 10.06,0 19.99,-0.18 29.8,-0.54 9.81,-0.36 15.2,-0.54 16.16,-0.54 0.95,0.72 1.43,2.51 1.43,5.38 0,2.88 -0.48,4.79 -1.43,5.74 -6.95,0.96 -13.29,2.16 -19.04,3.59 -2.87,0.72 -5.02,1.8 -6.46,3.24 -1.44,1.43 -2.34,2.87 -2.69,4.31 -0.36,1.44 -0.66,3.59 -0.9,6.47 -0.72,13.4 -1.08,38.9 -1.08,76.48 0,49.31 0.35,78.99 1.08,89.04 0.24,2.4 1.14,4.55 2.69,6.47 1.56,1.92 3.05,3.11 4.49,3.59 7.18,2.4 26.93,3.23 59.24,2.51 8.38,0 15.68,-4.55 21.91,-13.65 7.42,-10.53 14.48,-23.82 21.18,-39.85 1.44,-0.48 3.59,-0.12 6.47,1.08 2.88,1.19 4.67,2.39 5.38,3.59 -1.43,8.14 -4.25,19.15 -8.44,33.03 -4.19,13.88 -7.72,23.34 -10.59,28.36 -1.67,3.11 -6.7,4.67 -15.08,4.67 -8.38,0 -26.4,-0.3 -54.04,-0.9 -27.65,-0.6 -44.35,-0.9 -50.09,-0.9 -6.7,0 -16.94,0.18 -30.7,0.54 -13.77,0.36 -21.37,0.54 -22.8,0.54 -0.96,-0.48 -1.44,-2.4 -1.44,-5.74 0,-3.35 0.36,-5.26 1.08,-5.74 12.45,-1.44 20.83,-2.76 25.13,-3.95 4.07,-0.96 6.82,-2.51 8.26,-4.67 1.44,-2.15 2.4,-5.26 2.88,-9.33 0.95,-8.62 1.43,-38.54 1.43,-89.77 0,-39.74 -0.12,-62.72 -0.35,-68.94 -0.48,-7.42 -1.38,-12.45 -2.7,-15.08 -1.31,-2.63 -4.37,-4.43 -9.15,-5.39 -2.16,-0.72 -8.86,-1.91 -20.11,-3.59zm379.42 0c-0.96,-0.95 -1.31,-2.87 -1.08,-5.74 0.24,-2.87 0.84,-4.79 1.8,-5.74 2.15,0 9.09,0.24 20.82,0.72 11.73,0.48 21.43,0.72 29.09,0.72l71.1 0c19.63,0 33.15,-0.48 40.57,-1.44 0.96,0.96 1.44,1.67 1.44,2.15 -3.12,12.21 -5.15,28.84 -6.1,49.91 -0.96,0.96 -3.18,1.44 -6.64,1.44 -3.47,0 -5.57,-0.35 -6.29,-1.08 -0.48,-5.26 -1.79,-12.45 -3.95,-21.54 -1.44,-4.55 -3.35,-7.84 -5.74,-9.87 -2.4,-2.03 -6.35,-3.17 -11.86,-3.41 -3.83,-0.24 -13.28,-0.35 -28.36,-0.35 -15.08,0 -23.94,0.12 -26.57,0.35 -1.19,0.24 -2.27,1.2 -3.23,2.88 -0.96,1.67 -1.44,3.11 -1.44,4.31 -0.48,33.04 -0.6,57.69 -0.35,73.97 0,1.68 0.6,2.51 1.79,2.51 23.7,0.48 41.89,0.24 54.58,-0.72 5.75,-0.48 9.58,-3.95 11.49,-10.41 1.67,-5.03 2.99,-9.94 3.95,-14.72 1.43,-0.72 3.83,-0.96 7.18,-0.72 3.35,0.24 5.38,0.83 6.1,1.79 -1.67,17.47 -2.51,28.97 -2.51,34.47 0,4.55 0.12,10.54 0.35,17.95 0.24,7.42 0.36,12.57 0.36,15.44 -0.96,0.96 -3.23,1.5 -6.82,1.62 -3.59,0.12 -5.87,-0.3 -6.83,-1.26 -1.67,-9.1 -2.75,-14.24 -3.23,-15.44 -1.67,-5.99 -5.51,-9.33 -11.49,-10.06 -5.03,-0.48 -22.75,-0.72 -53.14,-0.72 -1.19,0 -1.79,0.96 -1.79,2.88 -0.48,19.15 -0.36,42.48 0.35,70.01 0.48,7.42 3.35,11.97 8.62,13.65 4.79,1.43 23.34,2.15 55.66,2.15 6.7,-0.24 11.66,-1.19 14.9,-2.88 3.23,-1.67 6.64,-4.9 10.23,-9.7 5.74,-6.7 11.61,-17.11 17.59,-31.24 1.19,-0.24 3.29,0.18 6.28,1.26 2.99,1.08 4.85,2.09 5.57,3.05 -0.96,6.22 -3.11,14.78 -6.47,25.67 -3.35,10.89 -6.34,19.09 -8.97,24.6 -0.96,2.15 -2.82,3.71 -5.57,4.67 -2.75,0.96 -8.32,1.44 -16.7,1.44 -10.77,0 -26.57,-0.24 -47.39,-0.72 -20.83,-0.48 -36.87,-0.72 -48.12,-0.72 -8.62,0 -19.57,0.18 -32.85,0.54 -13.29,0.36 -21.96,0.54 -26.03,0.54 -0.72,-0.72 -1.14,-2.63 -1.25,-5.74 -0.12,-3.11 0.18,-5.03 0.9,-5.74 16.04,-1.92 25.49,-3.24 28.36,-3.95 4.31,-0.96 7.3,-2.81 8.98,-5.57 1.67,-2.75 2.75,-7.36 3.23,-13.82 0.24,-4.31 0.36,-32.8 0.36,-85.45 0,-42.61 -0.12,-66.07 -0.36,-70.38 -0.48,-6.46 -1.32,-10.83 -2.51,-13.1 -1.19,-2.28 -3.95,-3.89 -8.26,-4.85 -4.07,-1.19 -10.65,-2.39 -19.75,-3.59zm368.29 200.72c13.16,-1.92 22.08,-4.67 26.75,-8.26 4.67,-3.59 9.99,-12.21 15.98,-25.86 7.9,-18.67 18.61,-45.78 32.14,-81.33 13.52,-35.55 22.68,-60.27 27.47,-74.15 3.83,-10.29 5.99,-17.47 6.47,-21.54l4.31 0.36c2.63,0 5.26,0 7.9,0 2.15,0 4.19,0 6.1,0 1.91,0 3.41,-0.06 4.48,-0.18 1.08,-0.12 1.74,-0.18 1.98,-0.18 3.83,12.45 5.87,18.91 6.1,19.39 27.29,77.8 47.28,131.66 59.96,161.58 5.26,12.21 9.93,19.81 14,22.8 4.07,2.99 12.69,5.45 25.86,7.37 0.72,0.48 0.95,2.33 0.72,5.57 -0.24,3.23 -0.72,5.21 -1.44,5.92 -18.67,-0.72 -33.63,-1.08 -44.88,-1.08 -17.47,0 -33.75,0.36 -48.83,1.08 -0.48,-0.72 -0.78,-2.69 -0.9,-5.92 -0.12,-3.24 0.18,-5.09 0.9,-5.57 11.72,-2.16 18.31,-3.47 19.75,-3.95 4.31,-1.92 5.74,-5.03 4.31,-9.33 -4.31,-14.84 -11.25,-34.47 -20.82,-58.89 -0.48,-1.67 -1.56,-2.51 -3.23,-2.51 -3.83,-0.24 -15.45,-0.36 -34.83,-0.36 -17,0 -26.82,0.12 -29.45,0.36 -1.44,0 -2.75,1.08 -3.95,3.23 -11.97,31.36 -18.08,49.91 -18.31,55.66 -0.24,3.59 0.3,6.28 1.61,8.08 1.32,1.79 4.61,3.29 9.87,4.48 2.4,0.48 8.26,1.56 17.6,3.24 0.72,0.48 0.95,2.33 0.72,5.57 -0.24,3.23 -0.72,5.21 -1.44,5.92 -1.19,0 -7.3,-0.18 -18.31,-0.54 -11.01,-0.36 -20.7,-0.54 -29.08,-0.54 -8.14,0 -16.52,0.18 -25.13,0.54 -8.62,0.36 -13.4,0.54 -14.36,0.54 -0.72,-0.72 -1.08,-2.63 -1.08,-5.74 0,-3.11 0.35,-5.03 1.08,-5.74zm113.46 -172c-0.24,-0.24 -0.54,-0.3 -0.9,-0.18 -0.36,0.12 -0.66,0.3 -0.9,0.54 -1.43,4.31 -5.63,16.22 -12.56,35.73 -6.95,19.51 -11.61,32.97 -14,40.39 0,1.44 0.48,2.28 1.43,2.51 2.4,0.24 11.97,0.36 28.73,0.36 13.17,0 21.06,-0.12 23.7,-0.36 0.48,0 0.89,-0.35 1.25,-1.08 0.36,-0.72 0.42,-1.44 0.18,-2.15 -14.36,-41.65 -23.34,-66.9 -26.93,-75.77zm302.94 -28.36c-0.72,-0.72 -1.02,-2.63 -0.9,-5.74 0.12,-3.11 0.66,-5.03 1.61,-5.74 2.16,0 8.74,0.18 19.75,0.54 11.01,0.35 20.22,0.54 27.65,0.54 9.09,0 14.48,-0.12 16.15,-0.36 1.44,3.59 5.74,10.06 12.93,19.39 39.98,50.75 81.87,101.98 125.67,153.68 0.24,0.24 0.6,0 1.08,-0.72 0,-81.63 -0.36,-127.71 -1.08,-138.24 -0.48,-5.75 -1.61,-10 -3.41,-12.75 -1.8,-2.76 -5.33,-4.85 -10.59,-6.29 -6.22,-1.67 -14.48,-3.23 -24.77,-4.67 -0.96,-0.72 -1.38,-2.63 -1.26,-5.74 0.12,-3.11 0.54,-4.9 1.26,-5.38 1.92,0 8.38,0.18 19.39,0.54 11.01,0.35 21.06,0.54 30.16,0.54 4.79,0 12.27,-0.18 22.44,-0.54 10.17,-0.36 15.74,-0.54 16.7,-0.54 0.96,0.72 1.44,2.57 1.44,5.57 0,2.99 -0.48,4.84 -1.44,5.56 -7.9,1.68 -13.29,2.99 -16.16,3.95 -4.55,1.44 -7.66,3.65 -9.33,6.64 -1.67,2.99 -2.75,7.24 -3.23,12.75 -0.72,11.01 -1.68,57.69 -2.88,140.04 0,17.23 0.24,33.75 0.72,49.55 -5.75,-0.96 -14.36,-0.96 -25.86,0 -13.64,-19.39 -59.6,-78.04 -137.88,-175.95 -0.72,-0.47 -1.31,-0.47 -1.79,0 -0.72,75.4 -0.48,121.73 0.72,138.96 0.24,6.47 1.5,11.25 3.77,14.36 2.27,3.11 5.92,5.27 10.95,6.47 1.92,0.72 9.33,2.03 22.26,3.95 0.72,0.96 0.96,2.93 0.72,5.92 -0.24,2.99 -0.72,4.85 -1.44,5.57 -2.15,0 -8.44,-0.18 -18.85,-0.54 -10.41,-0.36 -19.57,-0.54 -27.47,-0.54 -8.86,0 -18.2,0.18 -28.01,0.54 -9.81,0.36 -15.44,0.54 -16.88,0.54 -0.72,-0.48 -1.08,-2.4 -1.08,-5.74 0,-3.35 0.36,-5.26 1.08,-5.74 8.62,-1.2 15.2,-2.51 19.75,-3.95 4.31,-1.44 7.59,-3.59 9.87,-6.47 2.27,-2.87 3.65,-7.42 4.13,-13.64 0.96,-17.24 2.03,-67.63 3.23,-151.17 0,-8.86 -3.47,-14.84 -10.41,-17.95 -5.99,-3.35 -15.56,-5.74 -28.73,-7.18zm450.51 -0.36c-0.96,-0.95 -1.31,-2.87 -1.08,-5.74 0.24,-2.87 0.84,-4.79 1.8,-5.74 2.15,0 9.09,0.24 20.82,0.72 11.73,0.48 21.43,0.72 29.09,0.72l71.1 0c19.63,0 33.15,-0.48 40.57,-1.44 0.96,0.96 1.44,1.67 1.44,2.15 -3.12,12.21 -5.15,28.84 -6.1,49.91 -0.96,0.96 -3.18,1.44 -6.64,1.44 -3.47,0 -5.57,-0.35 -6.29,-1.08 -0.48,-5.26 -1.79,-12.45 -3.95,-21.54 -1.44,-4.55 -3.35,-7.84 -5.74,-9.87 -2.4,-2.03 -6.35,-3.17 -11.86,-3.41 -3.83,-0.24 -13.28,-0.35 -28.36,-0.35 -15.08,0 -23.94,0.12 -26.57,0.35 -1.19,0.24 -2.27,1.2 -3.23,2.88 -0.96,1.67 -1.44,3.11 -1.44,4.31 -0.48,33.04 -0.6,57.69 -0.35,73.97 0,1.68 0.6,2.51 1.79,2.51 23.7,0.48 41.89,0.24 54.58,-0.72 5.75,-0.48 9.58,-3.95 11.49,-10.41 1.67,-5.03 2.99,-9.94 3.95,-14.72 1.43,-0.72 3.83,-0.96 7.18,-0.72 3.35,0.24 5.38,0.83 6.1,1.79 -1.67,17.47 -2.51,28.97 -2.51,34.47 0,4.55 0.12,10.54 0.35,17.95 0.24,7.42 0.36,12.57 0.36,15.44 -0.96,0.96 -3.23,1.5 -6.82,1.62 -3.59,0.12 -5.87,-0.3 -6.83,-1.26 -1.67,-9.1 -2.75,-14.24 -3.23,-15.44 -1.67,-5.99 -5.51,-9.33 -11.49,-10.06 -5.03,-0.48 -22.75,-0.72 -53.14,-0.72 -1.19,0 -1.79,0.96 -1.79,2.88 -0.48,19.15 -0.36,42.48 0.35,70.01 0.48,7.42 3.35,11.97 8.62,13.65 4.79,1.43 23.34,2.15 55.66,2.15 6.7,-0.24 11.66,-1.19 14.9,-2.88 3.23,-1.67 6.64,-4.9 10.23,-9.7 5.74,-6.7 11.61,-17.11 17.59,-31.24 1.19,-0.24 3.29,0.18 6.28,1.26 2.99,1.08 4.85,2.09 5.57,3.05 -0.96,6.22 -3.11,14.78 -6.47,25.67 -3.35,10.89 -6.34,19.09 -8.97,24.6 -0.96,2.15 -2.82,3.71 -5.57,4.67 -2.75,0.96 -8.32,1.44 -16.7,1.44 -10.77,0 -26.57,-0.24 -47.39,-0.72 -20.83,-0.48 -36.87,-0.72 -48.12,-0.72 -8.62,0 -19.57,0.18 -32.85,0.54 -13.29,0.36 -21.96,0.54 -26.03,0.54 -0.72,-0.72 -1.14,-2.63 -1.25,-5.74 -0.12,-3.11 0.18,-5.03 0.9,-5.74 16.04,-1.92 25.49,-3.24 28.36,-3.95 4.31,-0.96 7.3,-2.81 8.98,-5.57 1.67,-2.75 2.75,-7.36 3.23,-13.82 0.24,-4.31 0.36,-32.8 0.36,-85.45 0,-42.61 -0.12,-66.07 -0.36,-70.38 -0.48,-6.46 -1.32,-10.83 -2.51,-13.1 -1.19,-2.28 -3.95,-3.89 -8.26,-4.85 -4.07,-1.19 -10.65,-2.39 -19.75,-3.59zm377.99 0c-0.72,-0.95 -0.96,-2.99 -0.72,-6.1 0.24,-3.11 0.84,-4.79 1.8,-5.02 2.39,0 9.1,0.18 20.11,0.54 11.01,0.35 18.43,0.54 22.26,0.54 10.29,0 22.15,-0.12 35.55,-0.36 13.4,-0.24 21.78,-0.36 25.13,-0.36 20.34,0 36.33,5.33 47.93,15.98 11.61,10.65 17.42,23.87 17.42,39.67 0,26.57 -13.52,45.84 -40.57,57.81 -0.96,0.95 -1.19,1.91 -0.72,2.87 6.94,11.01 16.21,24.3 27.83,39.86 11.61,15.56 21.6,27.53 29.98,35.91 6.95,7.42 12.69,12.15 17.24,14.19 4.55,2.03 12.81,3.89 24.77,5.56 0.72,0.72 0.78,2.76 0.18,6.1 -0.6,3.35 -1.38,5.15 -2.34,5.39 -27.53,1.19 -47.28,-1.08 -59.24,-6.83 -6.23,-3.35 -12.09,-8.38 -17.6,-15.08 -4.07,-4.79 -8.97,-11.31 -14.72,-19.57 -5.75,-8.26 -12.09,-17.72 -19.04,-28.36 -6.94,-10.65 -11.85,-18.01 -14.72,-22.08 -2.4,-3.35 -5.39,-5.03 -8.98,-5.03 -1.67,-0.24 -10.29,-0.36 -25.85,-0.36 -1.2,0 -1.8,0.6 -1.8,1.8 0,27.52 0.24,48.71 0.72,63.55 0.48,5.51 1.56,9.4 3.23,11.67 1.67,2.28 4.67,3.89 8.98,4.85 1.91,0.48 8.86,1.67 20.82,3.59 0.72,0.48 0.96,2.33 0.72,5.57 -0.24,3.23 -0.84,5.21 -1.8,5.92 -0.96,0 -6.88,-0.18 -17.78,-0.54 -10.89,-0.36 -21.36,-0.54 -31.42,-0.54 -9.33,0 -19.21,0.18 -29.62,0.54 -10.41,0.36 -16.1,0.54 -17.05,0.54 -0.96,-0.96 -1.5,-2.93 -1.61,-5.92 -0.12,-2.99 0.3,-4.85 1.25,-5.57 10.06,-1.44 16.28,-2.4 18.68,-2.88 4.31,-1.19 7.42,-3.11 9.33,-5.74 1.92,-2.63 2.99,-7.3 3.23,-14 0.72,-15.8 1.08,-41.05 1.08,-75.77 0,-48.12 -0.24,-75.52 -0.72,-82.22 -0.24,-5.27 -1.14,-9.1 -2.69,-11.49 -1.56,-2.39 -4.61,-4.07 -9.16,-5.03 -2.88,-0.95 -9.58,-2.15 -20.11,-3.59zm80.43 2.51c-5.75,0 -10.06,0.72 -12.93,2.15 -1.67,0.72 -2.51,2.4 -2.51,5.03 -0.72,8.38 -1.08,37.71 -1.08,87.97 0,1.44 0.6,2.15 1.8,2.15 25.85,0.24 41.65,-0.96 47.39,-3.59 15.08,-6.95 22.62,-20.35 22.62,-40.21 0,-35.67 -18.43,-53.51 -55.29,-53.51zm344.59 145.06c7.18,23.22 16.04,38.42 26.57,45.6 8.86,6.7 20.59,10.06 35.19,10.06 10.06,0 18.91,-3.11 26.57,-9.34 7.66,-6.22 11.49,-15.56 11.49,-28 0,-10.77 -3.41,-19.69 -10.23,-26.75 -6.82,-7.06 -19.21,-15.62 -37.16,-25.67 -18.43,-10.54 -32.08,-20.89 -40.94,-31.06 -8.86,-10.17 -13.29,-22.8 -13.29,-37.88 0,-18.91 6.76,-33.81 20.29,-44.7 13.52,-10.89 30.58,-16.34 51.16,-16.34 10.06,0 21.67,1.02 34.83,3.05 13.17,2.03 20.23,3.05 21.19,3.05 -2.16,10.29 -4.19,27.29 -6.1,50.98 -0.48,0.96 -2.4,1.44 -5.74,1.44 -3.35,0 -5.27,-0.35 -5.75,-1.08 -1.19,-10.77 -2.75,-18.97 -4.67,-24.6 -1.92,-5.63 -5.03,-9.87 -9.33,-12.75 -7.42,-5.02 -17.24,-7.54 -29.44,-7.54 -11.49,0 -20.53,3.71 -27.11,11.13 -6.58,7.42 -9.87,15.8 -9.87,25.13 0,9.34 1.97,16.94 5.92,22.8 3.95,5.86 10.12,11.55 18.49,17.05 5.26,3.59 13.4,8.26 24.42,14 11.01,5.75 18.07,9.58 21.18,11.49 22.74,14.12 34.11,31.84 34.11,53.14 0,18.43 -7.31,34.17 -21.91,47.22 -14.61,13.05 -34.23,19.57 -58.89,19.57 -18.67,0 -36.14,-3.72 -52.42,-11.13 -1.44,-2.15 -3.41,-10.06 -5.93,-23.7 -2.51,-13.65 -4.13,-24.06 -4.84,-31.24 0.24,-1.44 2.09,-2.63 5.57,-3.59 3.47,-0.96 5.68,-1.08 6.64,-0.36z"/>
 </g>
</svg>
