<?xml version="1.0" encoding="UTF-8"?>
<!DOCTYPE svg PUBLIC "-//W3C//DTD SVG 1.1//EN" "http://www.w3.org/Graphics/SVG/1.1/DTD/svg11.dtd">
<!-- Creator: CorelDRAW -->
<svg xmlns="http://www.w3.org/2000/svg" xml:space="preserve" width="47.9726mm" height="48.9296mm" version="1.1" style="shape-rendering:geometricPrecision; text-rendering:geometricPrecision; image-rendering:optimizeQuality; fill-rule:evenodd; clip-rule:evenodd"
viewBox="0 0 4783.04 4878.46"
 xmlns:xlink="http://www.w3.org/1999/xlink"
 xmlns:xodm="http://www.corel.com/coreldraw/odm/2003">
 <defs>
  <style type="text/css">
   <![CDATA[
    .fil0 {fill:#006187}
    .fil1 {fill:#00B8A8;fill-rule:nonzero}
   ]]>
  </style>
 </defs>
 <g id="Layer_x0020_1">
  <metadata id="CorelCorpID_0Corel-Layer"/>
  <path class="fil0" d="M1733.94 432.83c101.93,-63.28 209.78,-116.9 317.89,-168.55 71.94,-26.13 146.2,-45.47 215.84,-78.01l1.33 -0.57 -0.41 0.16c70.2,-31.78 134.28,-75.54 194.29,-123.61 -1.65,1.13 -3.21,2.33 -4.85,3.4 -123.98,70.57 -258.75,118.94 -400.72,136.51 0.7,-0.1 1.4,-0.2 2.13,-0.3 -47.67,6.55 -93.88,20.65 -141.53,27.53 0.72,-0.1 1.49,-0.2 2.2,-0.33 -138.07,22.78 -264.09,97.36 -379.46,173.46 -86.22,69.69 -112.36,182.89 -143.39,283.88 77.78,-126.35 210.51,-187.02 336.68,-253.58zm1842.62 3485.15c-70.39,18.01 -133.84,-14.23 -197.15,-40.16 -116.84,-47.31 -221.48,20.99 -326.12,67.7l0.23 -0.14 -1.06 0.54 0.06 0 -1.1 0.54c-59.54,30.03 -113.94,69.38 -170.99,103.5 -47.78,24.05 -93.98,34.38 -3.55,24.7l-0.57 0.09c69.76,-8.99 138.18,15.73 207.91,12.39 44.03,-1.9 84.97,-18.84 126.07,-32.97 40.34,-10.09 82.45,-14.94 120.04,-34.21l-1.08 0.47 0.74 -0.34c0.67,-0.3 1.28,-0.6 1.9,-0.8l-0.34 0.13c0.61,-0.31 1.24,-0.58 1.83,-0.83l-0.46 0.19c66.28,-30.5 132.87,-47.08 198.02,-65.22 -31.21,23.6 -63.18,46.23 -95.92,67.93 -44.2,27.59 -89.96,55.58 -135.71,81.93 -97,53.09 -199.4,98.05 -306.51,133.8 -14.41,3.04 -28.99,5.21 -43.67,6.41l1.08 -0.09c-90.4,8.38 -182.16,18.89 -272.09,0.15l0.28 0.07c-0.78,-0.13 -1.56,-0.31 -2.31,-0.36l0.9 0.1c-1.27,-0.22 -2.57,-0.44 -3.82,-0.71 0.81,0.17 1.58,0.3 2.38,0.44 -17.35,-3.31 -34.61,-7.08 -51.59,-11.7l0.47 0.23c-0.91,-0.43 -1.84,-0.79 -2.81,-1.2l1.25 0.51c-1.62,-0.68 -3.15,-1.35 -4.76,-2.05l0.21 0.08 -0.91 -0.38c-78.39,-26.26 -116.37,-96.72 -158.3,-161.16 -75.96,-115.6 -213.06,-119.25 -336.66,-142.37l0.27 0.03 -1.28 -0.15 0.07 0.03 -1.34 -0.21c-72.52,-10.05 -146.18,-8.42 -218.97,-13.25 -58.15,-8.14 -106.31,-27.58 -18.61,20.07l-0.6 -0.24c68.67,35.38 114.97,100.44 180.01,140.93 40.92,25.72 88.47,35.94 134.4,48.83 42.73,16.07 83.77,37.99 129.69,44.03l-1.24 -0.22 0.88 0.13c0.76,0.13 1.53,0.26 2.2,0.47l-0.37 -0.1c0.74,0.1 1.47,0.27 2.17,0.4l-0.54 -0.13c184.01,32.27 322.23,134 517.51,113.76 -73.26,18.09 -148.4,31.96 -225.18,41.36l-0.87 0.14c-247.23,30.17 -489.12,11.16 -715.87,-49.29 -12.02,-19.54 -24.72,-38.84 -33.91,-59.87 -17.07,-53.44 -47.74,-99.82 -75.89,-147.74l0.63 0.93 -0.55 -0.82 0.04 0.13 -1.06 -1.67 -0.05 0c-136.5,-212.16 -325,-141.59 -494.66,-261.53 -23.45,-10.12 14.7,39.72 18.54,47.11 80.38,102.84 165.54,193.22 288.52,244.21 82.46,38.01 149.81,96.39 216.77,155.5 -217.57,-68.66 -419.59,-175.91 -596.97,-314.64 -97.23,-76.08 -186.99,-161.62 -267.95,-255.43l-48.07 0c21.01,25.17 42.59,49.75 64.84,73.77 -36.08,-19.23 1.97,12.16 7.89,24.66l-0.36 -0.69c0.9,1.71 1.79,3.53 2.77,5.3l-0.44 -0.75c2.5,5.05 5.95,9.69 7.52,15.2 0.71,2.01 1.44,4.06 2.11,6.13l-0.17 -0.58c5.54,15.73 9.15,32.1 15.59,47.52l-0.47 -1.31c4.52,12.12 9.61,24.09 13.91,36.35l-0.12 -0.38c45.98,171.64 249.25,281.71 413.8,312.71 10.15,1.82 20.34,3.61 30.46,5.52 33.63,6.11 67.13,14.46 99.07,26.72l-0.93 -0.46 1.5 0.73c228.22,100.57 477.96,140.92 727.27,141.19 80.12,3.95 161.33,2.87 243.19,-3.38 -45.34,20.16 -89.14,44.04 -137.78,55.96 -33.24,8.59 -67.42,1.55 -101,6.35 -28.5,6.48 -55.06,19.95 -84.16,24.16l0.23 0.04c-23.75,3.37 -48.64,-1.87 -70.92,-7.22 -88.94,-25.56 -172.61,-67.49 -262.58,-89.16l0.64 0.13c-0.94,-0.21 -1.79,-0.38 -2.73,-0.51l0.37 0.06c-113.16,-17.87 -227.92,-6.6 -339.72,15.06 -36.81,6.53 -72.13,20.23 -109.33,24.76 -34.37,2.46 -69.17,-4.87 -103.32,0.22l0.59 -0.1c-1.06,0.16 -2.23,0.27 -3.3,0.5l0.24 -0.03 -0.61 0.03 0.07 0.03c-2.27,0.34 -5.44,-0.26 -5.84,2.6 0.17,2.68 3.21,2.82 5.27,3.35 111.63,43.97 226.05,81.96 340.28,119.41 152.99,59.65 319.33,129.83 484.61,75.55 82.23,-26.08 167.55,-54.73 234.64,-110.45 63.81,-54.79 138.35,-92.65 214.66,-126.06l1.2 -0.3c8.25,-0.95 16.54,-1.88 24.83,-2.88l1.24 -0.14c305.09,-37.28 584.76,-143.96 825.27,-302.28l-1.25 1.7c-60.23,73.93 -110.38,163.37 -184.52,222.88 -168.96,75.52 -349.97,122.05 -517.01,203.33 0.6,-0.32 1.23,-0.63 1.89,-0.94 -81.85,38.96 -166.38,71.91 -243.69,119.97l1.41 -0.9c-110.59,64.25 -193.39,167.38 -261.7,272.66l-0.2 0.43 0.09 -0.03 -0.36 0.97 -0.03 0 -0.11 0.54c-0.5,2.57 3.51,3.58 4.39,1.18 0.26,-0.64 0.69,-1.12 1.03,-1.65 16.21,-16.57 37.25,-28.17 56.8,-40.76 123.08,-72.62 256.13,-124.25 398.65,-141.56 134.5,-23.15 272.3,-43.26 388.46,-120.34 79.21,-36.07 160.61,-79.95 207.13,-156.62 65.99,-112.79 83.47,-248.1 165.36,-353.03 -0.44,0.59 -0.9,1.23 -1.34,1.89 5.98,-11.74 11.33,-21.71 16.1,-30.61 146.67,-100.77 278.1,-220.97 390.96,-356.45l-48.01 0c-75,87.14 -157.99,167.55 -247.96,240.02zm-89.11 23.36c-66.59,-13.64 -122.66,-58.89 -193.48,-59.44 -42.69,-3.21 -80.95,15.44 -119.05,31.75 -81.35,27.33 -156.22,68.93 -229.93,112.17l-0.3 0.12 0.3 -0.12 -0.03 0.03c-15.73,8.02 -31.24,16.6 -45.92,26.28 192.75,-67.52 399.84,-61.07 596.57,-109.95 -2.71,-0.2 -5.48,-0.37 -8.16,-0.83zm-545.02 85.79l-0.48 0.23 0.55 -0.3 -0.07 0.07zm48.64 37.59l1.25 0.13c71.23,13.91 142.16,4.51 208.78,-23.72 43.26,-11.29 88.57,-16.07 128.76,-37.45 0.54,-0.24 1.07,-0.51 1.64,-0.7l-0.83 0.29c10.36,-4.57 20.62,-9.56 31.01,-14.1l-1.01 0.37 0.87 -0.37c-16.2,1.84 -32.4,3.88 -48.65,5.78 -75.01,8.57 -150.54,14.1 -224.95,26.99 0.69,-0.13 1.4,-0.2 2.1,-0.32 -54.83,8.08 -108.98,18.96 -161.91,35.74 21.36,-0.41 42.39,4.77 63.45,7.37l-0.51 -0.02zm40.4 380.91c-101.94,63.28 -209.79,116.89 -317.91,168.51 -71.93,26.17 -146.22,45.5 -215.82,78.05l-1.34 0.57 0.4 -0.17c-70.2,31.79 -134.27,75.56 -194.28,123.62 1.65,-1.14 3.21,-2.34 4.86,-3.41 123.98,-70.55 258.76,-118.95 400.71,-136.51 -0.69,0.1 -1.44,0.16 -2.13,0.31 47.67,-6.56 93.88,-20.65 141.49,-27.54 -0.67,0.1 -1.44,0.17 -2.16,0.34 138.07,-22.83 264.09,-97.36 379.46,-173.46 86.24,-69.68 112.37,-182.92 143.39,-283.89 -77.78,126.35 -210.51,187.03 -336.67,253.59zm68.12 -68.37c-31.27,10.31 -64.24,13.8 -95.29,25.2l1.71 -0.53c-7.79,2.47 -15.31,5.33 -23.02,7.68l0.3 -0.07c-6.04,1.95 -11.99,3.89 -18.06,5.81l1.78 -0.56c-5.8,1.9 -11.7,3.64 -17.44,5.47l1.71 -0.57c-3.09,1.01 -6.26,1.94 -9.36,2.91l1.3 -0.41c-183.91,71.04 -369.34,146.34 -525.23,269.59l0.26 -0.19 -1.21 0.96 0.64 -0.46c-30.59,29.52 -59.94,60.27 -89.36,90.97 3,-2.55 6.14,-5.11 9.25,-7.63 48.71,-38.25 102.3,-71.6 158.76,-97.12l0.6 -0.26 -0.33 0.13c2.77,-1.24 5.64,-2.43 8.49,-3.67l-0.41 0.14c6.98,-2.97 13.96,-5.98 20.95,-8.95l-1.68 0.7c59.63,-28.37 123.92,-43.94 185.15,-68.14l-1.46 0.65c0.66,-0.24 1.31,-0.57 2,-0.87l-0.5 0.19c0.8,-0.32 1.58,-0.67 2.36,-1l-0.83 0.4 1.68 -0.8 -0.85 0.4 1.21 -0.5 -0.24 0.07 1.74 -0.77c-0.68,0.29 -1.34,0.6 -2.08,0.87 153.39,-71.53 296.94,-161.31 446.7,-239.48 -0.87,0.27 -1.83,0.56 -2.73,0.87l1.67 -0.48c-19.57,6.48 -38.68,13.84 -58.43,19.55l0.22 -0.11zm-582.53 -184.95c-51.62,-53.82 -74,-129.69 -137.62,-174.37 -36.58,-29.53 -82.71,-36.53 -127.28,-45.63 -90.51,-26.06 -184.06,-35.22 -277.54,-42.19l-0.4 -0.07 0.37 0.07 -0.06 0.04c-19.22,-2.61 -38.57,-4.52 -57.88,-4.96 216.2,59.37 399.15,194.37 607.24,272.99 -2.31,-1.86 -4.73,-3.77 -6.83,-5.87zm-545.62 -262.61l-0.57 -0.06 0.67 0.06 -0.1 0zm20.48 64.32l1.01 0.87c55.66,57.03 125.57,92.78 203.31,108.85 46.13,16.81 90,40.76 139.61,46.58 0.64,0.06 1.28,0.19 1.94,0.37l-0.97 -0.24c12.22,2.31 24.59,4.24 36.81,6.58l-1.14 -0.27 1.05 0.2c-15.81,-8.41 -31.72,-16.7 -47.55,-25.13 -73.14,-39.05 -144.7,-81.22 -219.96,-116 0.73,0.34 1.39,0.67 2.09,1.04 -54.53,-26.96 -110.26,-50.89 -168.46,-68.75 19.51,12.91 35.28,30.77 52.68,46.23l-0.43 -0.34zm-435.89 14.87c-86.5,-27.96 -136.38,-112.53 -211.59,-157.05 53.56,53.75 93.31,122.19 158.43,163.47 122.97,68.19 249.21,132.34 346.43,236.31 -82.19,-98.39 -169.48,-197.05 -293.27,-242.73zm295.14 216.3c-52.14,-154.02 -171.25,-300.36 -342.15,-318.29 -42,-9.29 -81.99,-26.32 -122.98,-39.26 9.59,7.66 18.18,16.31 27.84,23.92l-1.32 -1.03c4.66,3.62 9.26,7.25 13.94,10.89 42.94,34.25 80.75,75.55 134.97,91.95l-0.4 -0.14c124.56,40.33 211.32,135.41 291.1,233.97 -0.33,-0.74 -0.74,-1.33 -1,-2zm-3.92 -11.26c-0.26,-0.77 -0.5,-1.47 -0.79,-2.27 0.37,0.97 0.66,1.9 1.03,2.85l-0.04 -0.07 0.15 0.39 -0.35 -0.9zm-351.7 -41.96c-47.94,-26.99 -84.26,-70.2 -132.27,-96.83 -98.36,-40.56 -205.37,-71.8 -274.32,-159.1 30.1,51.22 79.98,83.99 123.12,123.05 21.14,18.14 43.58,35.01 68.56,47.68 -0.82,-0.34 -1.62,-0.73 -2.38,-1.07 71.1,36.64 148.55,57.56 221.51,89.53 -1.42,-1.12 -2.81,-2.18 -4.22,-3.27zm-425.8 -261.64l0.14 0.26c-6.84,-9.99 -12.77,-20.53 -19.37,-30.7l0.46 0.68 -0.88 -1.28 0.2 0.3c-14.97,-19.25 -22.95,-42.04 -32.46,-64.08 6.08,20.28 15.9,39.25 23.17,59.1l-0.29 -0.81c2.43,6.42 4.75,12.87 6.85,19.38l0 -0.07 0.03 0.2c36.28,122.49 150.61,185.36 255.68,242.33 52.46,25.82 110.77,36.64 167.66,48.38 -22.86,-10.76 -47.51,-16.88 -71.13,-25.89 -66.69,-26.43 -137.78,-49.61 -191.66,-98.87l0.15 0.17c-5.38,-4.71 -10.63,-9.48 -15.89,-14.23l0.46 0.43 -1.57 -1.4c-34.82,-34.14 -75.61,-63 -102.08,-104.64l0.41 0.66 -0.85 -1.24 0.24 0.38c-1.38,-2.11 -2.8,-4.15 -4.21,-6.29l0.95 1.39c-5.15,-7.66 -10.23,-15.44 -15.34,-23.16l0.23 0.34 -0.9 -1.35zm1267.48 581.73l-0.65 0.47c14.64,-13.33 29.75,-25.92 44.13,-39.42 -1.89,0.71 -3.8,1.44 -5.81,2.11 -173.13,50.87 -353.61,33.13 -530.11,11.81 -133.69,-16.93 -268.64,-19.88 -401.62,-42.73 33.88,12.43 69.15,21.63 102.01,36.52 1.86,0.9 3.74,1.76 5.64,2.65 167.08,50.68 327.72,146.1 507.26,132.33 94.81,-12.03 188.36,-47.74 269.95,-96.31 3.12,-2.48 6.09,-4.99 9.2,-7.43zm-16.32 -49.88c-32.94,-2.33 -64.4,8.65 -94.77,20.28 35.91,-6.14 71.76,-12.89 107.71,-18.44 -4.32,-0.67 -8.59,-1.25 -12.94,-1.84zm-403.9 -54.72c-153.16,-46.88 -314.84,-11.93 -466.15,23.26 229.73,23.68 460.22,50.6 691.19,58.73 -75.31,-26.6 -149.28,-57.04 -225.03,-81.99zm-886.55 -578.23c10.06,15.87 18.82,32.71 27.43,49.07 40.27,48.13 83.46,94.8 137.35,128.04 33.72,19.68 70.43,33.54 106.71,47.94 -33.52,-22.98 -66.28,-46.97 -98.26,-72 -60.7,-47.47 -118.57,-98.61 -173.24,-153.06zm432.26 324.15c121.68,92.01 266.46,138.65 414.79,169.06 -145.33,-40.26 -284.45,-97.25 -414.79,-169.06zm1234.4 -3593.3c40.09,6.41 79.88,14.1 119.21,22.98 -30.78,-13.56 -75.76,-19.55 -119.21,-22.98zm187.19 39.69c146.31,38.71 286.45,94.34 417.92,164.97 -124.48,-93.94 -273.02,-140.55 -424.83,-170.89l6.91 5.92zm490.03 205.7c11.02,6.55 22.01,13.2 32.9,19.94 96.92,39.56 201.46,71.2 269.22,156.99 -30.1,-51.22 -79.98,-83.98 -123.11,-123.04 -21.19,-18.15 -43.64,-35.05 -68.53,-47.68 0.77,0.34 1.57,0.74 2.33,1.07 -71.09,-36.65 -148.53,-57.56 -221.51,-89.57 1.41,1.11 2.81,2.21 4.26,3.32 38.25,21.52 69.12,53.45 104.44,78.98zm97.99 62.21c36.54,24.8 72.3,50.79 107.07,78.01 50.18,39.27 98.47,81.03 144.61,125.09 -5.72,-10.15 -11.13,-20.47 -16.48,-30.64 -40.26,-48.14 -83.48,-94.78 -137.34,-128.02 -30.98,-18.11 -64.45,-31.21 -97.86,-44.44zm332.53 285.09c23.31,25.12 45.96,50.88 67.99,77.2l-48.12 0c-80.95,-93.81 -170.72,-179.34 -267.9,-255.38 -180.25,-141.02 -386,-249.51 -607.6,-318.02 64.65,57.03 130.16,112.67 209.75,149.34 122.98,51.02 208.15,141.4 288.53,244.23 3.84,7.38 41.97,57.23 18.5,47.1 -169.62,-119.93 -358.13,-49.37 -494.63,-261.56l-0.04 0 -1.07 -1.64 0.03 0.1 -0.54 -0.77 0.65 0.9c-28.17,-47.91 -58.87,-94.28 -75.94,-147.77 -8.25,-18.9 -19.38,-36.45 -30.31,-54.03 -222.67,-57.52 -459.67,-75.13 -701.8,-45.55 -59.33,7.24 -117.7,17.17 -174.96,29.63 160.76,5.71 287.09,87.73 448.79,116.06l-0.52 -0.13c0.69,0.17 1.43,0.33 2.15,0.44l-0.37 -0.11c0.68,0.17 1.46,0.31 2.2,0.48l0.88 0.13 -1.25 -0.24c45.97,6.05 86.97,27.97 129.7,44.04 45.91,12.86 93.44,23.09 134.38,48.84 65.09,40.49 111.39,105.55 180.01,140.93l-0.56 -0.24c87.66,47.65 39.5,28.17 -18.62,20.08 -72.82,-4.85 -146.49,-3.21 -218.96,-13.3l-1.35 -0.17 0.06 0.04 -1.26 -0.17 0.23 0.03c-123.58,-23.11 -260.67,-26.76 -336.64,-142.4 -41.94,-64.41 -79.91,-134.87 -158.3,-161.17l-0.91 -0.33 0.2 0.07c-1.6,-0.7 -3.16,-1.37 -4.74,-2.03l1.24 0.5c-0.97,-0.4 -1.9,-0.77 -2.84,-1.21l0.5 0.24c-16.98,-4.62 -34.25,-8.4 -51.59,-11.7 0.81,0.13 1.59,0.27 2.38,0.44 -1.28,-0.27 -2.54,-0.51 -3.85,-0.71l0.91 0.1c-0.74,-0.07 -1.51,-0.23 -2.27,-0.37l0.26 0.07c-78.11,-16.27 -157.52,-10.49 -236.26,-3.21 -354.63,105.28 -661.36,309.92 -892.49,578.42l-48.01 0c103.44,-124.21 222.54,-235.56 354.68,-330.89 8.39,-16.97 19.57,-35.81 34.72,-65.64 -0.44,0.63 -0.88,1.31 -1.31,1.9 81.85,-104.98 99.37,-240.29 165.34,-353.05 46.54,-76.67 127.93,-120.57 207.14,-156.61 116.16,-77.08 253.96,-97.19 388.47,-120.34 142.52,-17.32 275.52,-68.94 398.61,-141.56 19.58,-12.63 40.63,-24.23 56.83,-40.76 0.33,-0.54 0.78,-1.05 1.04,-1.65 0.84,-2.4 4.85,-1.4 4.38,1.14l-0.13 0.54 0 0.03 -0.36 0.97 0.05 -0.03 -0.13 0.43c-68.36,105.28 -151.15,208.42 -261.74,272.63l1.41 -0.87c-77.33,48.04 -161.86,81.02 -243.68,119.97 0.66,-0.3 1.29,-0.63 1.86,-0.94 -167.02,81.25 -348.06,127.83 -516.98,203.34 -74.15,59.5 -124.29,148.95 -184.52,222.88 -1.18,1.61 -2.37,3.27 -3.48,4.95 143.72,-79.51 286.91,-166.22 447.13,-208.51l-0.82 0.33 1.12 -0.44c99.16,-33.13 201.25,-65.24 304.79,-80.44l-1.26 0.07c34.81,-4.22 69.95,-10.63 103.78,-19.88 76.29,-33.38 150.86,-71.24 214.66,-126.03 67.09,-55.73 152.42,-84.36 234.64,-110.45 165.25,-54.33 331.62,15.9 484.62,75.54 114.18,37.46 228.65,75.45 340.27,119.42 2.07,0.53 5.11,0.66 5.28,3.3 -0.43,2.91 -3.58,2.3 -5.85,2.63l0.07 0.04 -0.6 0 0.24 0c-1.07,0.24 -2.27,0.33 -3.32,0.51l0.61 -0.11c-34.14,5.08 -68.96,-2.23 -103.34,0.24 -37.18,4.48 -72.53,18.18 -109.34,24.76 -111.76,21.65 -226.53,32.91 -339.69,15.04l0.34 0.07c-0.9,-0.17 -1.76,-0.31 -2.7,-0.5l0.63 0.13c-89.96,-21.69 -173.65,-63.61 -262.57,-89.17 -22.24,-5.34 -47.17,-10.59 -70.92,-7.22l0.23 0c-29.1,4.25 -55.66,17.71 -84.19,24.19 -33.54,4.79 -67.72,-2.27 -100.96,6.35 -58.04,14.23 -109.18,45.47 -164.29,67.08 335.3,-35.51 686.11,-10.28 996.96,126.7l1.52 0.73 -0.94 -0.47c31.93,12.26 65.38,20.58 99.06,26.7 10.12,1.93 20.32,3.7 30.47,5.54 164.54,30.97 367.81,141.09 413.79,312.71l-0.11 -0.37c4.29,12.26 9.36,24.23 13.91,36.36l-0.48 -1.31c6.45,15.39 10.06,31.77 15.61,47.47l-0.17 -0.53c0.67,2.06 1.4,4.11 2.09,6.11 1.58,5.51 5.03,10.16 7.53,15.16l-0.44 -0.7c0.98,1.73 1.87,3.57 2.77,5.27l-0.37 -0.66c4.51,9.58 27.9,30.23 22.39,30.7zm-2139.04 -631.58c31.24,-10.33 64.25,-13.83 95.28,-25.19l-1.72 0.49c7.81,-2.43 15.33,-5.3 23.02,-7.64l-0.28 0.06c6.05,-1.93 12,-3.88 18.06,-5.81l-1.78 0.57c5.82,-1.9 11.7,-3.65 17.42,-5.48l-1.68 0.57c3.07,-1.01 6.21,-1.93 9.34,-2.9l-1.3 0.4c183.89,-71.03 369.31,-146.37 525.21,-269.59l-0.24 0.2 1.21 -1 -0.68 0.5c30.64,-29.56 59.97,-60.27 89.41,-90.97 -3.01,2.5 -6.15,5.07 -9.29,7.61 -48.68,38.27 -102.28,71.6 -158.73,97.13l-0.6 0.27 0.33 -0.17c-2.77,1.27 -5.64,2.47 -8.49,3.71l0.41 -0.13c-7.01,2.97 -13.96,5.94 -20.93,8.94l1.66 -0.7c-59.64,28.37 -123.92,43.94 -185.15,68.12l1.46 -0.66c-0.67,0.27 -1.29,0.6 -1.99,0.86l0.49 -0.16c-0.8,0.34 -1.57,0.67 -2.33,1.01l0.8 -0.41 -1.68 0.81 0.88 -0.4 -1.24 0.49 0.24 -0.06 -1.74 0.78c0.67,-0.31 1.34,-0.61 2.08,-0.88 -153.39,71.54 -296.92,161.27 -446.73,239.45 0.9,-0.27 1.84,-0.54 2.74,-0.84l-1.65 0.44c19.55,-6.45 38.66,-13.83 58.45,-19.51l-0.24 0.1zm582.53 184.95c51.6,53.83 73.98,129.67 137.63,174.37 36.53,29.5 82.68,36.55 127.24,45.6 90.51,26.09 184.06,35.25 277.57,42.22l0.41 0.07 -0.37 -0.07 0.02 -0.02c19.23,2.56 38.6,4.51 57.91,4.94 -216.21,-59.36 -399.14,-194.38 -607.24,-272.99 2.33,1.87 4.73,3.78 6.83,5.87zm545.62 262.61l0.57 0.07 -0.67 -0.07 0.1 0zm-20.48 -64.31l-1.01 -0.88c-55.64,-57.03 -125.55,-92.77 -203.3,-108.85 -46.17,-16.84 -90.01,-40.77 -139.64,-46.57 -0.61,-0.1 -1.27,-0.21 -1.91,-0.37l0.98 0.24c-12.23,-2.31 -24.6,-4.25 -36.82,-6.58l1.14 0.26 -1.04 -0.2c15.81,8.42 31.71,16.71 47.55,25.13 73.1,39.05 144.69,81.19 219.93,116 -0.69,-0.33 -1.37,-0.7 -2.09,-1.03 54.56,26.96 110.25,50.87 168.48,68.76 -19.51,-12.93 -35.29,-30.77 -52.68,-46.24l0.43 0.34zm435.91 -14.91c86.48,27.99 136.33,112.53 211.58,157.09 -53.56,-53.75 -93.31,-122.18 -158.45,-163.48 -122.97,-68.21 -249.23,-132.33 -346.42,-236.33 82.19,98.43 169.48,197.04 293.29,242.72zm-295.16 -216.27c52.14,154.02 171.23,300.37 342.15,318.3 42.02,9.28 82,26.32 122.99,39.25 -9.59,-7.69 -18.19,-16.34 -27.84,-23.93l1.31 1.01c-4.65,-3.57 -9.26,-7.22 -13.94,-10.85 -42.93,-34.25 -80.75,-75.56 -134.97,-91.96l0.4 0.14c-124.56,-40.33 -211.32,-135.42 -291.1,-233.97 0.34,0.7 0.74,1.34 1,2zm3.92 11.27c0.26,0.77 0.45,1.47 0.76,2.27 -0.33,-1.01 -0.66,-1.9 -1,-2.88l0.04 0.11 -0.18 -0.44 0.38 0.94zm777.49 303.56l-0.11 -0.24c6.82,9.99 12.77,20.55 19.38,30.71l-0.47 -0.67 0.87 1.27 -0.2 -0.3c14.97,19.21 22.95,42.04 32.47,64.09 -6.08,-20.29 -15.9,-39.26 -23.18,-59.1l0.3 0.8c-2.44,-6.42 -4.75,-12.86 -6.85,-19.38l0 0.04 -0.04 -0.17c-36.28,-122.49 -150.6,-185.36 -255.68,-242.32 -52.48,-25.83 -110.76,-36.65 -167.66,-48.38 22.86,10.76 47.52,16.87 71.14,25.86 66.69,26.46 137.78,49.64 191.67,98.89l-0.17 -0.17c5.38,4.68 10.63,9.46 15.87,14.24l-0.44 -0.44 1.58 1.41c34.78,34.15 75.58,62.97 102.07,104.61l-0.4 -0.64 0.83 1.24 -0.22 -0.36c1.36,2.09 2.8,4.14 4.2,6.27l-0.94 -1.37c5.15,7.65 10.23,15.39 15.34,23.15l-0.24 -0.37 0.88 1.34zm-1267.46 -581.7l0.69 -0.46c-14.68,13.29 -29.77,25.91 -44.18,39.38 1.9,-0.67 3.81,-1.44 5.82,-2.07 173.09,-50.88 353.61,-33.13 530.1,-11.82 133.68,16.94 268.64,19.88 401.63,42.73 -33.84,-12.43 -69.15,-21.62 -102.01,-36.55 -1.86,-0.87 -3.76,-1.73 -5.64,-2.64 -167.06,-50.65 -327.72,-146.07 -507.29,-132.31 -94.79,12 -188.33,47.75 -269.93,96.32 -3.13,2.47 -6.08,4.98 -9.19,7.42zm16.32 49.88c32.93,2.34 64.41,-8.65 94.79,-20.27 -35.96,6.14 -71.78,12.88 -107.73,18.44 4.29,0.64 8.57,1.23 12.94,1.83zm403.9 54.73c153.17,46.87 314.84,11.92 466.12,-23.28 -229.7,-23.66 -460.23,-50.59 -691.16,-58.71 75.31,26.56 149.28,57 225.03,81.99z"/>
  <path class="fil0" d="M1105.95 1727.06l9.18 3.67 0 157.98 -9.18 5.51 -123.09 -117.57 -9.18 -5.52 -321.49 0 -7.35 5.52 0 580.53 9.17 3.67 126.78 40.42 -11.04 5.52 -413.35 0 -11.02 -5.52 117.57 -40.42 9.2 -3.67 0 -580.53 -7.36 -5.52 -321.5 0 -11.01 5.52 -121.26 117.57 -11.03 -5.51 0 -157.98 11.03 -3.67 1094.93 0zm745.15 0l9.19 3.67 -112.07 38.57 -11.03 5.51 0 582.38 11.03 3.67 112.07 40.42 -9.19 5.52 -409.67 0 -11.03 -5.52 121.25 -40.42 9.19 -3.67 0 -582.38 -9.19 -5.51 -121.25 -38.57 11.03 -3.67 409.67 0zm728.25 0l9.19 3.67 -91.87 38.57 -7.35 1.83 0 5.52 365.59 501.55 378.46 -503.39 -9.19 -5.51 -113.9 -38.57 9.19 -3.67 314.16 0 -90.04 42.23 -9.19 3.68 -492.34 644.83 -9.18 3.68 -51.44 0 -7.35 -3.68 -466.62 -643 -7.36 -3.68 -123.08 -40.4 11.02 -3.67 391.31 0zm1828.94 679.74l-9.18 -5.52 84.49 -40.42 7.36 -1.83c1.83,0 1.83,-1.83 0,-3.68l-146.97 -198.41c-3.68,-1.83 -5.51,-3.68 -7.35,-3.68l-431.73 0c-3.68,1.84 -5.51,1.84 -7.35,3.68l-156.16 200.25 9.18 7.35 126.75 36.74 -34.91 5.52 -314.12 0 -9.19 -5.52 113.89 -40.42 7.35 -1.83 503.35 -646.67c1.83,-3.67 3.67,-3.67 9.18,-3.67l49.62 0c3.67,0 5.5,0 7.35,3.67l462.96 644.83 7.35 3.67 102.86 40.42 -11.02 5.52 -363.74 0zm-273.77 -545.64c-1.83,-1.83 -3.67,-1.83 -5.5,-1.83 -3.68,0 -7.35,0 -9.19,1.83l-185.53 242.49c-3.67,5.52 -1.83,7.37 9.19,7.37l356.38 0c11.03,0 12.86,-1.84 11.03,-7.37l-176.38 -242.49z"/>
  <path class="fil1" d="M426.32 2908.11c-2.91,-21.45 -6.54,-36.26 -10.91,-44.45 -4.37,-8.18 -11.99,-14.82 -22.9,-19.9 -16,-8 -38.37,-12 -67.08,-12 -38.9,0 -68.99,13.37 -90.26,40.09 -21.28,26.72 -31.91,63.17 -31.91,109.34 0,44.73 12.45,82.44 37.36,113.17 24.91,30.72 60.44,46.08 106.62,46.08 25.09,0 44.72,-5.82 58.89,-17.46 12,-9.45 25.99,-27.63 42,-54.54 1.81,-0.36 4.64,0.55 8.45,2.73 3.82,2.18 6.09,4.36 6.82,6.54 -2.91,11.28 -9.09,25.45 -18.54,42.54 -9.45,17.09 -17.27,27.63 -23.45,31.63 -25.09,9.46 -53.45,14.19 -85.08,14.19 -60.72,0 -107.63,-15.82 -140.71,-47.45 -33.09,-31.64 -49.63,-75.81 -49.63,-132.53 0,-31.28 7.37,-60.27 22.09,-86.99 14.72,-26.72 36.44,-47.91 65.17,-63.54 30.54,-16.72 67.45,-25.09 110.71,-25.09 18.91,0 41.18,1.72 66.81,5.18 25.63,3.45 39.9,5.36 42.81,5.72 -5.09,31.64 -8,59.99 -8.72,85.08 -0.73,1.1 -2.64,2 -5.73,2.73 -3.09,0.73 -5.99,1 -8.72,0.82 -2.72,-0.18 -4.09,-0.82 -4.09,-1.91zm338.5 -72.53c-1.09,-1.45 -1.45,-4.45 -1.09,-8.99 0.36,-4.55 1.28,-7.18 2.73,-7.91 3.63,0 12.99,0.27 28.09,0.82 15.09,0.54 29.72,0.82 43.9,0.82 15.27,0 30.36,-0.28 45.27,-0.82 14.91,-0.55 23.09,-0.82 24.55,-0.82 1.45,1.09 2.17,3.82 2.17,8.18 0,4.37 -0.73,7.28 -2.17,8.72 -10.55,1.46 -20.18,3.28 -28.91,5.45 -4.36,1.1 -7.63,2.73 -9.81,4.92 -2.18,2.17 -3.55,4.36 -4.09,6.54 -0.55,2.18 -1.01,5.45 -1.37,9.82 -1.1,20.36 -1.64,59.08 -1.64,116.16 0,74.9 0.54,119.98 1.64,135.25 0.36,3.64 1.72,6.91 4.09,9.82 2.36,2.91 4.64,4.73 6.82,5.45 10.91,3.64 40.9,4.91 89.98,3.82 12.73,0 23.82,-6.91 33.27,-20.73 11.27,-15.99 21.99,-36.17 32.17,-60.53 2.18,-0.73 5.45,-0.19 9.82,1.64 4.37,1.81 7.09,3.63 8.18,5.45 -2.17,12.36 -6.45,29.08 -12.81,50.17 -6.36,21.09 -11.73,35.45 -16.09,43.08 -2.54,4.73 -10.18,7.1 -22.9,7.1 -12.72,0 -40.09,-0.46 -82.08,-1.37 -42,-0.91 -67.36,-1.37 -76.08,-1.37 -10.18,0 -25.72,0.27 -46.63,0.82 -20.91,0.55 -32.45,0.82 -34.63,0.82 -1.46,-0.73 -2.18,-3.64 -2.18,-8.72 0,-5.09 0.55,-8 1.64,-8.72 18.9,-2.18 31.64,-4.19 38.18,-6 6.18,-1.46 10.36,-3.82 12.54,-7.09 2.18,-3.27 3.64,-8 4.37,-14.18 1.45,-13.09 2.17,-58.54 2.17,-136.34 0,-60.36 -0.18,-95.27 -0.54,-104.72 -0.73,-11.27 -2.09,-18.9 -4.1,-22.9 -1.99,-4 -6.63,-6.73 -13.9,-8.19 -3.28,-1.09 -13.46,-2.9 -30.55,-5.45zm576.29 0c-1.46,-1.45 -1.99,-4.36 -1.64,-8.72 0.37,-4.36 1.28,-7.27 2.73,-8.72 3.27,0 13.81,0.36 31.63,1.09 17.82,0.73 32.54,1.1 44.18,1.1l107.99 0c29.81,0 50.35,-0.73 61.63,-2.18 1.46,1.46 2.18,2.54 2.18,3.27 -4.74,18.54 -7.83,43.81 -9.27,75.8 -1.46,1.46 -4.83,2.18 -10.09,2.18 -5.27,0 -8.45,-0.54 -9.55,-1.64 -0.73,-8 -2.72,-18.9 -5.99,-32.72 -2.18,-6.91 -5.09,-11.9 -8.72,-15 -3.64,-3.09 -9.64,-4.82 -18.01,-5.18 -5.81,-0.36 -20.17,-0.54 -43.08,-0.54 -22.9,0 -36.36,0.18 -40.36,0.54 -1.81,0.37 -3.45,1.82 -4.91,4.37 -1.46,2.54 -2.18,4.73 -2.18,6.54 -0.73,50.18 -0.91,87.63 -0.54,112.35 0,2.55 0.91,3.82 2.72,3.82 35.99,0.73 63.63,0.37 82.89,-1.09 8.73,-0.73 14.55,-6 17.46,-15.81 2.54,-7.64 4.55,-15.1 6,-22.36 2.17,-1.09 5.81,-1.46 10.91,-1.09 5.08,0.36 8.18,1.27 9.26,2.72 -2.54,26.54 -3.81,44 -3.81,52.35 0,6.91 0.18,16 0.54,27.27 0.37,11.28 0.55,19.09 0.55,23.45 -1.46,1.46 -4.91,2.27 -10.36,2.46 -5.45,0.18 -8.91,-0.46 -10.37,-1.91 -2.54,-13.82 -4.18,-21.64 -4.91,-23.45 -2.54,-9.09 -8.37,-14.18 -17.45,-15.27 -7.64,-0.73 -34.55,-1.09 -80.72,-1.09 -1.81,0 -2.72,1.46 -2.72,4.37 -0.73,29.08 -0.55,64.53 0.54,106.34 0.73,11.28 5.09,18.18 13.09,20.73 7.27,2.17 35.45,3.27 84.54,3.27 10.18,-0.37 17.72,-1.81 22.63,-4.37 4.91,-2.54 10.09,-7.45 15.54,-14.73 8.72,-10.18 17.63,-25.99 26.72,-47.45 1.81,-0.36 5,0.28 9.54,1.91 4.55,1.64 7.37,3.18 8.45,4.64 -1.46,9.45 -4.73,22.45 -9.82,38.99 -5.08,16.54 -9.63,28.99 -13.63,37.36 -1.46,3.27 -4.28,5.63 -8.45,7.09 -4.18,1.46 -12.63,2.18 -25.36,2.18 -16.36,0 -40.35,-0.37 -71.99,-1.1 -31.64,-0.73 -55.99,-1.09 -73.08,-1.09 -13.09,0 -29.72,0.27 -49.9,0.82 -20.18,0.55 -33.36,0.82 -39.54,0.82 -1.09,-1.09 -1.72,-4 -1.9,-8.72 -0.18,-4.73 0.27,-7.64 1.37,-8.72 24.36,-2.91 38.71,-4.92 43.08,-6 6.54,-1.46 11.09,-4.27 13.64,-8.45 2.54,-4.18 4.18,-11.18 4.91,-21 0.36,-6.54 0.55,-49.81 0.55,-129.79 0,-64.72 -0.19,-100.35 -0.55,-106.9 -0.73,-9.81 -2,-16.45 -3.82,-19.9 -1.81,-3.46 -6,-5.91 -12.54,-7.37 -6.18,-1.81 -16.18,-3.63 -30,-5.45zm559.39 304.87c19.99,-2.91 33.54,-7.09 40.63,-12.54 7.09,-5.45 15.17,-18.54 24.27,-39.27 11.99,-28.36 28.27,-69.53 48.81,-123.52 20.54,-54 34.45,-91.54 41.72,-112.63 5.82,-15.63 9.09,-26.54 9.82,-32.72l6.54 0.55c4,0 8,0 12,0 3.27,0 6.36,0 9.27,0 2.9,0 5.17,-0.09 6.81,-0.28 1.64,-0.18 2.64,-0.27 3,-0.27 5.82,18.9 8.91,28.72 9.27,29.45 41.45,118.17 71.81,199.98 91.08,245.42 8,18.54 15.09,30.09 21.27,34.63 6.18,4.55 19.27,8.28 39.27,11.19 1.09,0.73 1.45,3.54 1.09,8.45 -0.36,4.91 -1.09,7.91 -2.18,8.99 -28.36,-1.09 -51.08,-1.64 -68.17,-1.64 -26.54,0 -51.27,0.55 -74.17,1.64 -0.73,-1.09 -1.19,-4.09 -1.37,-8.99 -0.18,-4.92 0.27,-7.73 1.37,-8.45 17.81,-3.28 27.81,-5.27 29.99,-6 6.54,-2.91 8.72,-7.64 6.54,-14.18 -6.54,-22.54 -17.09,-52.35 -31.63,-89.44 -0.73,-2.54 -2.36,-3.82 -4.91,-3.82 -5.82,-0.36 -23.46,-0.55 -52.9,-0.55 -25.82,0 -40.73,0.19 -44.73,0.55 -2.18,0 -4.18,1.64 -5.99,4.91 -18.19,47.64 -27.46,75.81 -27.82,84.54 -0.37,5.45 0.45,9.54 2.45,12.27 2,2.72 7,5 15,6.81 3.64,0.73 12.54,2.36 26.73,4.92 1.09,0.73 1.45,3.54 1.09,8.45 -0.37,4.91 -1.09,7.91 -2.18,8.99 -1.81,0 -11.09,-0.27 -27.82,-0.82 -16.72,-0.55 -31.45,-0.82 -44.17,-0.82 -12.36,0 -25.09,0.27 -38.18,0.82 -13.09,0.55 -20.36,0.82 -21.82,0.82 -1.1,-1.09 -1.64,-4 -1.64,-8.72 0,-4.73 0.54,-7.64 1.64,-8.72zm172.34 -261.24c-0.37,-0.36 -0.82,-0.45 -1.37,-0.27 -0.55,0.18 -1,0.46 -1.37,0.82 -2.17,6.54 -8.54,24.64 -19.08,54.27 -10.55,29.63 -17.64,50.08 -21.27,61.35 0,2.18 0.73,3.46 2.17,3.82 3.64,0.37 18.19,0.55 43.63,0.55 20,0 31.99,-0.18 36,-0.55 0.73,0 1.36,-0.54 1.9,-1.64 0.55,-1.09 0.64,-2.18 0.27,-3.27 -21.82,-63.26 -35.44,-101.62 -40.9,-115.08zm460.12 -43.08c-1.09,-1.09 -1.55,-4 -1.37,-8.72 0.18,-4.73 1,-7.64 2.45,-8.72 3.28,0 13.27,0.27 30,0.82 16.72,0.54 30.72,0.82 42,0.82 13.81,0 21.99,-0.18 24.54,-0.55 2.18,5.45 8.72,15.27 19.63,29.45 60.72,77.08 124.35,154.89 190.88,233.42 0.37,0.37 0.92,0 1.65,-1.09 0,-123.98 -0.55,-193.97 -1.65,-209.97 -0.73,-8.73 -2.45,-15.18 -5.17,-19.36 -2.73,-4.19 -8.1,-7.37 -16.09,-9.55 -9.45,-2.54 -21.99,-4.91 -37.63,-7.09 -1.46,-1.09 -2.09,-4 -1.91,-8.72 0.19,-4.73 0.82,-7.45 1.91,-8.18 2.91,0 12.72,0.27 29.45,0.82 16.72,0.54 31.99,0.82 45.8,0.82 7.28,0 18.63,-0.28 34.09,-0.82 15.45,-0.55 23.91,-0.82 25.36,-0.82 1.46,1.09 2.18,3.91 2.18,8.45 0,4.54 -0.73,7.36 -2.18,8.44 -12,2.55 -20.18,4.55 -24.55,6 -6.91,2.18 -11.64,5.54 -14.18,10.09 -2.54,4.55 -4.18,11 -4.91,19.36 -1.1,16.72 -2.55,87.62 -4.37,212.7 0,26.17 0.37,51.27 1.1,75.27 -8.73,-1.46 -21.82,-1.46 -39.27,0 -20.72,-29.45 -90.53,-118.54 -209.43,-267.25 -1.09,-0.72 -1.99,-0.72 -2.72,0 -1.1,114.53 -0.73,184.89 1.09,211.06 0.37,9.82 2.27,17.09 5.73,21.82 3.45,4.73 8.99,8.01 16.63,9.82 2.91,1.09 14.18,3.09 33.81,6 1.1,1.46 1.46,4.45 1.1,8.99 -0.37,4.55 -1.1,7.37 -2.18,8.45 -3.27,0 -12.82,-0.27 -28.63,-0.82 -15.81,-0.55 -29.72,-0.82 -41.72,-0.82 -13.46,0 -27.64,0.27 -42.54,0.82 -14.91,0.55 -23.45,0.82 -25.63,0.82 -1.09,-0.73 -1.64,-3.64 -1.64,-8.72 0,-5.09 0.55,-8 1.64,-8.72 13.09,-1.82 23.09,-3.82 30,-6 6.54,-2.18 11.54,-5.45 15,-9.82 3.45,-4.36 5.54,-11.27 6.27,-20.72 1.46,-26.18 3.09,-102.71 4.91,-229.61 0,-13.45 -5.27,-22.54 -15.81,-27.27 -9.09,-5.08 -23.63,-8.72 -43.63,-10.91zm684.28 -0.55c-1.46,-1.45 -1.99,-4.36 -1.64,-8.72 0.37,-4.36 1.28,-7.27 2.73,-8.72 3.27,0 13.81,0.36 31.63,1.09 17.82,0.73 32.54,1.1 44.18,1.1l107.99 0c29.81,0 50.35,-0.73 61.63,-2.18 1.46,1.46 2.18,2.54 2.18,3.27 -4.74,18.54 -7.83,43.81 -9.27,75.8 -1.46,1.46 -4.83,2.18 -10.09,2.18 -5.27,0 -8.45,-0.54 -9.55,-1.64 -0.73,-8 -2.72,-18.9 -5.99,-32.72 -2.18,-6.91 -5.09,-11.9 -8.72,-15 -3.64,-3.09 -9.64,-4.82 -18.01,-5.18 -5.81,-0.36 -20.17,-0.54 -43.08,-0.54 -22.9,0 -36.36,0.18 -40.36,0.54 -1.81,0.37 -3.45,1.82 -4.91,4.37 -1.46,2.54 -2.18,4.73 -2.18,6.54 -0.73,50.18 -0.91,87.63 -0.54,112.35 0,2.55 0.91,3.82 2.72,3.82 35.99,0.73 63.63,0.37 82.89,-1.09 8.73,-0.73 14.55,-6 17.46,-15.81 2.54,-7.64 4.55,-15.1 6,-22.36 2.17,-1.09 5.81,-1.46 10.91,-1.09 5.08,0.36 8.18,1.27 9.26,2.72 -2.54,26.54 -3.81,44 -3.81,52.35 0,6.91 0.18,16 0.54,27.27 0.37,11.28 0.55,19.09 0.55,23.45 -1.46,1.46 -4.91,2.27 -10.36,2.46 -5.45,0.18 -8.91,-0.46 -10.37,-1.91 -2.54,-13.82 -4.18,-21.64 -4.91,-23.45 -2.54,-9.09 -8.37,-14.18 -17.45,-15.27 -7.64,-0.73 -34.55,-1.09 -80.72,-1.09 -1.81,0 -2.72,1.46 -2.72,4.37 -0.73,29.08 -0.55,64.53 0.54,106.34 0.73,11.28 5.09,18.18 13.09,20.73 7.27,2.17 35.45,3.27 84.54,3.27 10.18,-0.37 17.72,-1.81 22.63,-4.37 4.91,-2.54 10.09,-7.45 15.54,-14.73 8.72,-10.18 17.63,-25.99 26.72,-47.45 1.81,-0.36 5,0.28 9.54,1.91 4.55,1.64 7.37,3.18 8.45,4.64 -1.46,9.45 -4.73,22.45 -9.82,38.99 -5.08,16.54 -9.63,28.99 -13.63,37.36 -1.46,3.27 -4.28,5.63 -8.45,7.09 -4.18,1.46 -12.63,2.18 -25.36,2.18 -16.36,0 -40.35,-0.37 -71.99,-1.1 -31.64,-0.73 -55.99,-1.09 -73.08,-1.09 -13.09,0 -29.72,0.27 -49.9,0.82 -20.18,0.55 -33.36,0.82 -39.54,0.82 -1.09,-1.09 -1.72,-4 -1.9,-8.72 -0.18,-4.73 0.27,-7.64 1.37,-8.72 24.36,-2.91 38.71,-4.92 43.08,-6 6.54,-1.46 11.09,-4.27 13.64,-8.45 2.54,-4.18 4.18,-11.18 4.91,-21 0.36,-6.54 0.55,-49.81 0.55,-129.79 0,-64.72 -0.19,-100.35 -0.55,-106.9 -0.73,-9.81 -2,-16.45 -3.82,-19.9 -1.81,-3.46 -6,-5.91 -12.54,-7.37 -6.18,-1.81 -16.18,-3.63 -30,-5.45zm574.11 0c-1.1,-1.45 -1.46,-4.54 -1.1,-9.27 0.37,-4.73 1.28,-7.27 2.73,-7.63 3.63,0 13.82,0.27 30.54,0.82 16.72,0.54 28,0.82 33.81,0.82 15.63,0 33.64,-0.18 54,-0.55 20.36,-0.36 33.08,-0.55 38.18,-0.55 30.9,0 55.18,8.1 72.8,24.28 17.64,16.17 26.45,36.26 26.45,60.26 0,40.36 -20.54,69.62 -61.63,87.81 -1.46,1.45 -1.81,2.9 -1.09,4.36 10.54,16.73 24.63,36.91 42.26,60.54 17.63,23.63 32.81,41.82 45.53,54.54 10.55,11.27 19.27,18.46 26.18,21.55 6.91,3.09 19.45,5.9 37.63,8.44 1.1,1.1 1.19,4.19 0.28,9.27 -0.92,5.09 -2.09,7.82 -3.55,8.19 -41.82,1.81 -71.81,-1.64 -89.98,-10.37 -9.46,-5.08 -18.37,-12.72 -26.73,-22.9 -6.18,-7.27 -13.63,-17.18 -22.35,-29.72 -8.73,-12.54 -18.37,-26.91 -28.91,-43.08 -10.54,-16.18 -18,-27.36 -22.35,-33.54 -3.64,-5.09 -8.19,-7.64 -13.64,-7.64 -2.54,-0.37 -15.63,-0.55 -39.26,-0.55 -1.82,0 -2.73,0.91 -2.73,2.73 0,41.81 0.37,73.99 1.1,96.52 0.73,8.37 2.36,14.28 4.91,17.73 2.54,3.46 7.09,5.91 13.64,7.37 2.9,0.73 13.45,2.54 31.63,5.45 1.1,0.73 1.46,3.54 1.1,8.45 -0.37,4.91 -1.28,7.91 -2.73,8.99 -1.46,0 -10.45,-0.27 -27,-0.82 -16.54,-0.55 -32.44,-0.82 -47.72,-0.82 -14.18,0 -29.17,0.27 -45,0.82 -15.81,0.55 -24.45,0.82 -25.9,0.82 -1.46,-1.46 -2.27,-4.46 -2.45,-8.99 -0.18,-4.55 0.46,-7.37 1.9,-8.45 15.27,-2.18 24.73,-3.64 28.37,-4.37 6.54,-1.81 11.27,-4.73 14.18,-8.72 2.91,-4 4.55,-11.09 4.91,-21.27 1.1,-24 1.64,-62.35 1.64,-115.08 0,-73.08 -0.36,-114.71 -1.09,-124.89 -0.36,-8.01 -1.72,-13.82 -4.09,-17.46 -2.36,-3.63 -7,-6.18 -13.91,-7.64 -4.37,-1.45 -14.55,-3.27 -30.54,-5.45zm122.17 3.82c-8.73,0 -15.27,1.1 -19.64,3.27 -2.54,1.1 -3.82,3.64 -3.82,7.64 -1.09,12.73 -1.64,57.27 -1.64,133.62 0,2.18 0.91,3.27 2.73,3.27 39.26,0.36 63.26,-1.46 71.99,-5.45 22.91,-10.55 34.36,-30.91 34.36,-61.08 0,-54.18 -28,-81.27 -83.98,-81.27zm523.38 220.34c10.91,35.27 24.36,58.36 40.35,69.26 13.46,10.18 31.28,15.27 53.45,15.27 15.27,0 28.72,-4.73 40.36,-14.19 11.64,-9.45 17.45,-23.63 17.45,-42.53 0,-16.36 -5.17,-29.91 -15.54,-40.63 -10.36,-10.73 -29.17,-23.73 -56.44,-38.99 -28,-16 -48.73,-31.73 -62.18,-47.18 -13.45,-15.45 -20.18,-34.63 -20.18,-57.54 0,-28.72 10.27,-51.36 30.82,-67.9 20.54,-16.54 46.44,-24.82 77.71,-24.82 15.27,0 32.91,1.55 52.9,4.64 20,3.09 30.73,4.64 32.18,4.64 -3.28,15.63 -6.37,41.45 -9.27,77.44 -0.73,1.46 -3.64,2.18 -8.72,2.18 -5.09,0 -8.01,-0.54 -8.73,-1.64 -1.81,-16.36 -4.18,-28.81 -7.09,-37.36 -2.91,-8.54 -7.64,-15 -14.18,-19.36 -11.27,-7.63 -26.18,-11.45 -44.72,-11.45 -17.46,0 -31.18,5.63 -41.18,16.9 -10,11.28 -15,24 -15,38.18 0,14.19 2.99,25.72 8.99,34.64 6,8.9 15.36,17.54 28.09,25.9 8,5.45 20.36,12.54 37.09,21.27 16.72,8.73 27.45,14.55 32.17,17.46 34.54,21.45 51.82,48.36 51.82,80.71 0,28 -11.1,51.91 -33.27,71.72 -22.18,19.82 -52,29.73 -89.44,29.73 -28.36,0 -54.9,-5.64 -79.62,-16.91 -2.18,-3.27 -5.18,-15.27 -9,-35.99 -3.82,-20.73 -6.27,-36.54 -7.36,-47.45 0.36,-2.18 3.18,-4 8.45,-5.45 5.26,-1.46 8.63,-1.64 10.09,-0.55z"/>
 </g>
</svg>
