<svg width="100" height="100" viewBox="0 0 100 100" fill="none" xmlns="http://www.w3.org/2000/svg">
<path d="M20 16.9483C19.9966 16.1498 20.2813 15.377 20.8017 14.7714C21.3221 14.1659 22.0435 13.7683 22.8333 13.6516C30.5467 12.485 41.305 10.4483 48.77 7.42329C49.5606 7.10075 50.4461 7.10075 51.2367 7.42329C58.755 10.4566 69.485 12.485 77.1667 13.6516C77.9567 13.768 78.6782 14.1655 79.1987 14.7711C79.7192 15.3767 80.0037 16.1498 80 16.9483V38.3333H83.3333V12.6466C83.3588 12.2679 83.249 11.8925 83.0234 11.5872C82.7978 11.282 82.4712 11.0668 82.1017 10.98C75.5217 10.1216 59.2317 7.66662 50.445 3.43162C50.3036 3.3646 50.149 3.32983 49.9925 3.32983C49.836 3.32983 49.6814 3.3646 49.54 3.43162C40.7683 7.66662 24.4783 10.1216 17.8817 10.9833C17.5149 11.0729 17.1918 11.2894 16.9694 11.5944C16.747 11.8995 16.6397 12.2734 16.6667 12.65V38.3333H20V16.9483Z" fill="white"/>
<path d="M23.3329 16.9468V38.3334H76.6662V16.9484C68.8079 15.7551 57.8079 13.6668 49.9862 10.5134C42.2562 13.6668 31.2229 15.7484 23.3329 16.9468ZM59.5079 18.8218C59.8203 19.1343 59.9959 19.5582 59.9959 20.0001C59.9959 20.442 59.8203 20.8659 59.5079 21.1784L46.1746 34.5118C45.862 34.8242 45.4382 34.9997 44.9962 34.9997C44.5543 34.9997 44.1304 34.8242 43.8179 34.5118L40.4846 31.1784C40.181 30.8641 40.013 30.4431 40.0168 30.0061C40.0206 29.5691 40.1958 29.1511 40.5049 28.8421C40.8139 28.5331 41.2319 28.3578 41.6689 28.354C42.1059 28.3502 42.5269 28.5182 42.8412 28.8218L44.9996 30.9768L57.1546 18.8218C57.4671 18.5093 57.8909 18.3338 58.3329 18.3338C58.7748 18.3338 59.1987 18.5093 59.5112 18.8218H59.5079Z" fill="white"/>
<path d="M5.86248 56.4118C6.21423 56.9948 6.3993 57.6631 6.39753 58.344C6.39577 59.0249 6.20725 59.6923 5.85248 60.2734L3.39415 64.3734C3.35632 64.4362 3.33586 64.5079 3.33488 64.5812C3.33389 64.6545 3.35241 64.7267 3.38854 64.7905C3.42466 64.8543 3.4771 64.9073 3.54046 64.9441C3.60383 64.981 3.67585 65.0003 3.74915 65.0001H13.6975C13.5272 63.7977 13.4209 62.5871 13.3791 61.3734C12.396 61.0383 11.5419 60.4047 10.936 59.561C10.3301 58.7173 10.0026 57.7055 9.99915 56.6668V51.6667H3.74915C3.67621 51.6666 3.60454 51.6858 3.54142 51.7224C3.47829 51.7589 3.42596 51.8115 3.38974 51.8748C3.35351 51.9381 3.33469 52.0099 3.33517 52.0828C3.33565 52.1557 3.35542 52.2273 3.39248 52.2901L5.86248 56.4118Z" fill="white"/>
<path d="M14.9999 58.3332H84.9999C85.4419 58.3332 85.8659 58.1576 86.1784 57.845C86.491 57.5324 86.6666 57.1085 86.6666 56.6665V43.3332C86.6666 42.8911 86.491 42.4672 86.1784 42.1547C85.8659 41.8421 85.4419 41.6665 84.9999 41.6665H14.9999C14.5579 41.6665 14.134 41.8421 13.8214 42.1547C13.5088 42.4672 13.3333 42.8911 13.3333 43.3332V56.6665C13.3333 57.1085 13.5088 57.5324 13.8214 57.845C14.134 58.1576 14.5579 58.3332 14.9999 58.3332ZM58.3333 54.9998H41.6666C41.2246 54.9998 40.8006 54.8242 40.4881 54.5117C40.1755 54.1991 39.9999 53.7752 39.9999 53.3332C39.9999 52.8911 40.1755 52.4672 40.4881 52.1546C40.8006 51.8421 41.2246 51.6665 41.6666 51.6665H58.3333C58.7753 51.6665 59.1992 51.8421 59.5118 52.1546C59.8243 52.4672 59.9999 52.8911 59.9999 53.3332C59.9999 53.7752 59.8243 54.1991 59.5118 54.5117C59.1992 54.8242 58.7753 54.9998 58.3333 54.9998ZM36.6666 44.9998H63.3333C63.7753 44.9998 64.1992 45.1754 64.5118 45.488C64.8243 45.8005 64.9999 46.2245 64.9999 46.6665C64.9999 47.1085 64.8243 47.5325 64.5118 47.845C64.1992 48.1576 63.7753 48.3332 63.3333 48.3332H36.6666C36.2246 48.3332 35.8006 48.1576 35.4881 47.845C35.1755 47.5325 34.9999 47.1085 34.9999 46.6665C34.9999 46.2245 35.1755 45.8005 35.4881 45.488C35.8006 45.1754 36.2246 44.9998 36.6666 44.9998Z" fill="white"/>
<path d="M94.1371 60.2551C93.7854 59.6721 93.6003 59.0038 93.6021 58.3229C93.6038 57.642 93.7924 56.9746 94.1471 56.3934L96.6055 52.2934C96.6433 52.2306 96.6638 52.1589 96.6647 52.0856C96.6657 52.0124 96.6472 51.9401 96.6111 51.8764C96.575 51.8126 96.5225 51.7596 96.4592 51.7227C96.3958 51.6859 96.3238 51.6666 96.2505 51.6667H90.0005V56.6668C89.997 57.7055 89.6695 58.7173 89.0636 59.561C88.4577 60.4047 87.6036 61.0383 86.6205 61.3734C86.5787 62.5871 86.4724 63.7977 86.3021 65.0001H96.2505C96.3234 65.0002 96.3951 64.981 96.4582 64.9445C96.5213 64.908 96.5737 64.8554 96.6099 64.7921C96.6461 64.7288 96.6649 64.657 96.6644 64.584C96.664 64.5111 96.6442 64.4396 96.6071 64.3768L94.1371 60.2551Z" fill="white"/>
<path d="M50.0127 89.7431C56.0543 87.4615 75.4193 78.8465 76.6077 61.6665H23.391C24.581 78.8331 43.946 87.4598 50.0127 89.7431Z" fill="white"/>
<path d="M83.2758 61.6665H79.9425C78.7758 80.9715 57.7391 90.3899 51.1591 92.8632C50.7895 93.003 50.3976 93.0747 50.0025 93.0749C49.604 93.0746 49.2089 93.0029 48.8358 92.8632C42.2608 90.3882 21.2158 80.9649 20.0575 61.6665H16.7241C17.9358 84.6665 43.8808 94.7165 49.1841 96.5299C49.7122 96.712 50.286 96.712 50.8141 96.5299C56.1191 94.7165 82.0641 84.6665 83.2758 61.6665Z" fill="white"/>
</svg>
