<svg width="46" height="45" viewBox="0 0 46 45" fill="none" xmlns="http://www.w3.org/2000/svg">
<g clip-path="url(#clip0_0_529)">
<path d="M8.39756 45.0001H4.30665C3.40291 45.0001 2.67029 44.2674 2.67029 43.3637V27.0001C2.67029 26.0963 3.40291 25.3637 4.30665 25.3637H8.39756C9.3013 25.3637 10.0339 26.0963 10.0339 27.0001V43.3637C10.0339 44.2674 9.3013 45.0001 8.39756 45.0001ZM39.0082 34.7016C38.7026 35.0099 38.2862 35.1829 37.8521 35.1819H32.1248C31.673 35.1819 31.3066 35.5482 31.3066 36.0001C31.3066 36.4519 31.673 36.8182 32.1248 36.8182H36.2157C37.1195 36.8182 37.8521 37.5509 37.8521 38.4546C37.8521 39.3584 37.1195 40.091 36.2157 40.091H32.1248C31.673 40.091 31.3066 40.4573 31.3066 40.9092C31.3066 41.361 31.673 41.7273 32.1248 41.7273H34.5794C35.4831 41.7273 36.2157 42.46 36.2157 43.3637C36.2157 44.2674 35.4831 45.0001 34.5794 45.0001H19.8521C18.7071 45.0201 17.5688 44.8224 16.4976 44.4175C16.0829 44.2366 15.6813 44.0272 15.2956 43.7908C14.9553 43.5928 14.6133 43.3964 14.259 43.2271C13.4461 42.8447 12.5672 42.6225 11.6703 42.5725V27.7782C13.2075 27.642 14.6892 27.1368 15.9895 26.3054C21.3158 22.9165 23.6108 19.3762 22.8106 15.7812C22.4408 14.126 22.6069 13.4502 23.4963 12.9993C24.9396 12.263 26.1398 13.4902 26.6201 14.3289C29.0656 18.6112 24.6475 25.6697 24.6025 25.7409C24.4412 25.9929 24.4304 26.3129 24.5742 26.5753C24.7181 26.8377 24.9938 27.0006 25.293 27.0001H37.0339C37.9377 27.0001 38.6703 27.7327 38.6703 28.6364C38.6703 29.5402 37.9377 30.2728 37.0339 30.2728H32.1248C31.673 30.2728 31.3066 30.6391 31.3066 31.091C31.3066 31.5428 31.673 31.9092 32.1248 31.9092H37.8521C38.5133 31.91 39.1091 32.3086 39.362 32.9196C39.615 33.5305 39.4753 34.2337 39.0082 34.7016Z" fill="white"/>
<path d="M39.4883 18.0001C39.0365 18.0001 38.6702 17.6338 38.6702 17.182V15.5456C38.6702 15.0937 39.0365 14.7274 39.4883 14.7274C39.9402 14.7274 40.3065 15.0937 40.3065 15.5456V17.182C40.3065 17.6338 39.9402 18.0001 39.4883 18.0001Z" fill="white"/>
<path d="M39.4883 22.9092C39.0365 22.9092 38.6702 22.5429 38.6702 22.091V20.4547C38.6702 20.0028 39.0365 19.6365 39.4883 19.6365C39.9402 19.6365 40.3065 20.0028 40.3065 20.4547V22.091C40.3065 22.5429 39.9402 22.9092 39.4883 22.9092Z" fill="white"/>
<path d="M42.7611 19.6364H41.1247C40.6728 19.6364 40.3065 19.2701 40.3065 18.8182C40.3065 18.3663 40.6728 18 41.1247 18H42.7611C43.2129 18 43.5793 18.3663 43.5793 18.8182C43.5793 19.2701 43.2129 19.6364 42.7611 19.6364Z" fill="white"/>
<path d="M37.852 19.6364H36.2156C35.7638 19.6364 35.3975 19.2701 35.3975 18.8182C35.3975 18.3663 35.7638 18 36.2156 18H37.852C38.3039 18 38.6702 18.3663 38.6702 18.8182C38.6702 19.2701 38.3039 19.6364 37.852 19.6364Z" fill="white"/>
<path d="M20.6704 6.54546C20.4534 6.54542 20.2453 6.45919 20.0919 6.30574L18.8647 5.07846C18.652 4.87304 18.5667 4.56884 18.6416 4.28278C18.7164 3.99672 18.9398 3.77331 19.2259 3.69844C19.512 3.62356 19.8162 3.70886 20.0216 3.92155L21.2489 5.14883C21.4828 5.38282 21.5527 5.73468 21.4261 6.04036C21.2995 6.34605 21.0013 6.54539 20.6704 6.54546Z" fill="white"/>
<path d="M16.9883 2.86371C16.7713 2.86367 16.5632 2.77744 16.4098 2.62399L15.1826 1.39671C14.8725 1.07568 14.8769 0.565372 15.1925 0.249772C15.5081 -0.0658285 16.0184 -0.0702628 16.3395 0.239805L17.5667 1.46708C17.8007 1.70107 17.8706 2.05293 17.744 2.35861C17.6174 2.6643 17.3191 2.86364 16.9883 2.86371Z" fill="white"/>
<path d="M15.7611 6.54546C15.4303 6.54539 15.132 6.34605 15.0054 6.04036C14.8788 5.73468 14.9488 5.38282 15.1827 5.14883L16.41 3.92155C16.6154 3.70886 16.9196 3.62356 17.2057 3.69844C17.4917 3.77331 17.7151 3.99672 17.79 4.28278C17.8649 4.56884 17.7796 4.87304 17.5669 5.07846L16.3396 6.30574C16.1862 6.45919 15.9781 6.54542 15.7611 6.54546Z" fill="white"/>
<path d="M19.4432 2.8637C19.1123 2.86363 18.814 2.66429 18.6874 2.3586C18.5608 2.05291 18.6308 1.70106 18.8647 1.46706L20.092 0.239792C20.2974 0.0271 20.6016 -0.0582003 20.8877 0.0166759C21.1737 0.0915522 21.3971 0.314953 21.472 0.601013C21.5469 0.887074 21.4616 1.19128 21.2489 1.3967L20.0216 2.62397C19.8682 2.77742 19.6601 2.86365 19.4432 2.8637Z" fill="white"/>
<path d="M37.4766 7.1093C35.7485 7.95413 34.3516 9.35109 33.5067 11.0791C33.4116 11.3063 33.1893 11.4542 32.943 11.4542C32.6967 11.4542 32.4745 11.3063 32.3793 11.0791C31.5367 9.34946 30.1391 7.95185 28.4095 7.1093C28.1823 7.01414 28.0344 6.79189 28.0344 6.54557C28.0344 6.29925 28.1823 6.07701 28.4095 5.98184C30.1395 5.13976 31.5372 3.74201 32.3793 2.01202C32.4745 1.78483 32.6967 1.63696 32.943 1.63696C33.1893 1.63696 33.4116 1.78483 33.5067 2.01202C34.3516 3.74005 35.7485 5.13701 37.4766 5.98184C37.7038 6.07701 37.8516 6.29925 37.8516 6.54557C37.8516 6.79189 37.7038 7.01414 37.4766 7.1093Z" fill="white"/>
<path d="M13.8745 14.2847C12.7224 14.848 11.791 15.7794 11.2276 16.9315C11.1629 17.0813 11.0153 17.1783 10.8521 17.1783C10.6889 17.1783 10.5413 17.0813 10.4766 16.9315C9.9147 15.7783 8.98289 14.8465 7.82974 14.2847C7.67991 14.2199 7.58289 14.0723 7.58289 13.9091C7.58289 13.7459 7.67991 13.5983 7.82974 13.5336C8.98289 12.9717 9.9147 12.0399 10.4766 10.8867C10.5413 10.7369 10.6889 10.6399 10.8521 10.6399C11.0153 10.6399 11.1629 10.7369 11.2276 10.8867C11.7913 12.0386 12.7226 12.9699 13.8745 13.5336C14.0243 13.5983 14.1213 13.7459 14.1213 13.9091C14.1213 14.0723 14.0243 14.2199 13.8745 14.2847Z" fill="white"/>
</g>
<defs>
<clipPath id="clip0_0_529">
<rect width="45" height="45" fill="white" transform="translate(0.625)"/>
</clipPath>
</defs>
</svg>
