<svg width="46" height="46" viewBox="0 0 46 46" fill="none" xmlns="http://www.w3.org/2000/svg">
<g clip-path="url(#clip0_0_488)">
<path d="M12.5536 18.1786H6.92857C6.48477 18.1786 6.125 18.5384 6.125 18.9822V31.8393C6.125 32.2831 6.48477 32.6429 6.92857 32.6429H12.5536C12.9974 32.6429 13.3571 32.2831 13.3571 31.8393V18.9822C13.3571 18.5384 12.9974 18.1786 12.5536 18.1786Z" fill="white"/>
<path d="M14.9643 18.9822V22.1965H21.3929V18.1786C21.3929 17.7348 21.7527 17.3751 22.1965 17.3751C22.6403 17.3751 23 17.7348 23 18.1786V22.1965H24.6072L24.6072 17.3751C24.6224 14.3869 22.2954 11.9099 19.3121 11.7386C16.3288 11.5674 13.7337 13.7619 13.407 16.7322C14.3427 17.0864 14.9624 17.9817 14.9643 18.9822Z" fill="white"/>
<path d="M10.4164 41.5898C10.4896 42.0283 10.8962 42.3306 11.3373 42.2745C11.7671 42.2056 12.0639 41.8068 12.0066 41.3753L11.0271 34.25H9.40869L10.4164 41.5898Z" fill="white"/>
<path d="M10.9464 10.5624V7.73218H6.125V10.5648C7.68321 10.0039 9.38822 10.0039 10.9464 10.5648V10.5624Z" fill="white"/>
<path d="M35.8566 7.73218H37.4638V10.9465H35.8566V7.73218Z" fill="white"/>
<path d="M21.3925 10.5623V4.68579C19.8394 5.27484 18.1243 5.27484 16.5711 4.68579V10.5647C18.1292 10.0033 19.8344 10.0033 21.3925 10.5647V10.5623ZM18.1782 7.73213C18.1782 7.28833 18.538 6.92856 18.9818 6.92856C19.4256 6.92856 19.7854 7.28833 19.7854 7.73213C19.7854 8.17593 19.4256 8.5357 18.9818 8.5357C18.538 8.5357 18.1782 8.17593 18.1782 7.73213Z" fill="white"/>
<path d="M27.0184 0.5H29.4291V2.91071H27.0184V0.5Z" fill="white"/>
<path d="M33.5175 18.1022C33.021 19.5971 32.2488 20.9858 31.241 22.1964H41.7228C41.1302 20.2497 40.3483 18.3657 39.3884 16.5714H34.0262L33.5175 18.1022Z" fill="white"/>
<path d="M27.4622 11.063C27.734 11.2015 28.0611 11.1718 28.3035 10.9867L30.7142 9.17866C30.915 9.0256 31.0337 8.78826 31.0357 8.5358V4.51794H29.4285V7.73223C29.4285 7.98516 29.3094 8.22333 29.1071 8.37509L27.3392 9.70098C27.1375 9.85323 27.0186 10.0911 27.0178 10.3438C27.0146 10.6493 27.1876 10.9293 27.4622 11.063Z" fill="white"/>
<path d="M34.25 13.3572V14.9643H39.0714V13.3572C39.0714 12.9134 38.7117 12.5536 38.2679 12.5536H35.0536C34.6098 12.5536 34.25 12.9134 34.25 13.3572Z" fill="white"/>
<path d="M10.9464 5.32136C10.9464 3.98996 9.86712 2.91064 8.53571 2.91064C7.20431 2.91064 6.125 3.98996 6.125 5.32136V6.12493H10.9464V5.32136Z" fill="white"/>
<path d="M14.9641 31.8393C14.9599 33.1317 13.9373 34.1908 12.6458 34.2404L13.5981 41.1559C13.6856 41.7894 13.5173 42.4316 13.1304 42.9408C12.7436 43.45 12.1699 43.7842 11.5361 43.8696C11.4295 43.8834 11.3222 43.8912 11.2147 43.8929C10.0129 43.8862 8.99728 43.0005 8.82727 41.8108L7.78745 34.25H6.92843C5.59703 34.25 4.51771 33.1707 4.51771 31.8393V28.625H2.30066L5.56236 43.6012C5.80243 44.7061 6.77813 45.4956 7.90878 45.5H38.0909C39.2208 45.498 40.197 44.71 40.4374 43.606L43.6991 28.625H14.9641V31.8393ZM32.4016 41.1543L33.615 32.315C33.7162 31.4479 34.2781 30.7033 35.0842 30.3682C35.8903 30.0331 36.8146 30.1601 37.5005 30.7C38.1865 31.2399 38.527 32.1085 38.3907 32.9707L37.1781 41.81C36.9862 43.1188 35.7755 44.0286 34.465 43.8486C33.1545 43.6687 32.2337 42.4664 32.4016 41.1543ZM25.1799 32.5263C25.2441 31.1963 26.3743 30.17 27.7044 30.2342C29.0344 30.2983 30.0607 31.4285 29.9966 32.7586L29.5707 41.5979C29.5089 42.8823 28.4499 43.8922 27.164 43.8929H27.0491C26.4099 43.8629 25.8088 43.58 25.3783 43.1066C24.9479 42.6332 24.7233 42.008 24.7541 41.3689L25.1799 32.5263ZM18.2957 30.2321C19.6232 30.1747 20.7492 31.1971 20.8198 32.5239L21.2457 41.3632C21.278 42.0028 21.0545 42.6289 20.6246 43.1035C20.1946 43.5781 19.5935 43.8621 18.9539 43.8929H18.8358C17.5486 43.8944 16.4872 42.8844 16.425 41.5987L15.9991 32.7594C15.9675 32.1194 16.1919 31.4932 16.6228 31.019C17.0537 30.5448 17.6557 30.2617 18.2957 30.2321Z" fill="white"/>
<path d="M18.8356 42.2858H18.8798C19.3216 42.2624 19.6614 41.8863 19.64 41.4444L19.2141 32.6052C19.2023 32.3906 19.1051 32.1898 18.9441 32.0475C18.8007 31.916 18.6139 31.8419 18.4194 31.8394H18.3792C18.1652 31.8479 17.9634 31.9416 17.8187 32.0995C17.674 32.2575 17.5983 32.4667 17.6086 32.6807L18.0345 41.52C18.0546 41.948 18.4071 42.285 18.8356 42.2858Z" fill="white"/>
<path d="M44.6966 23.8036H14.9645V27.0179H44.6966C45.1404 27.0179 45.5002 26.6581 45.5002 26.2143V24.6072C45.5002 24.1634 45.1404 23.8036 44.6966 23.8036Z" fill="white"/>
<path d="M4.51767 18.9822C4.51767 17.6508 5.59698 16.5714 6.92838 16.5714H11.8117C11.9258 15.5519 12.258 14.5689 12.7856 13.689C12.7004 13.5902 12.612 13.4914 12.5148 13.3941C10.9058 11.7837 8.48472 11.3018 6.3817 12.1735C4.27867 13.0452 2.90841 15.0985 2.91052 17.375L2.91052 22.1964H4.51767V18.9822Z" fill="white"/>
<path d="M33.2856 3.23215L35.4552 6.125H37.9238L40.7588 3.15902C40.9089 3.002 41.1161 2.91243 41.3334 2.91072H41.3422C41.5553 2.91076 41.7597 2.99546 41.9103 3.14617L43.188 4.42384C43.504 4.72609 44.0019 4.72609 44.3178 4.42384L45.266 3.47322C45.5755 3.16017 45.5755 2.65644 45.266 2.3434L43.6589 0.736254C43.5083 0.584401 43.303 0.499299 43.0892 0.500004L31.0356 0.5V2.91072H32.6427C32.8957 2.91072 33.1338 3.0298 33.2856 3.23215Z" fill="white"/>
<path d="M27.1235 42.2858H27.1644C27.5936 42.2863 27.9474 41.9495 27.968 41.5208L28.3939 32.6815C28.4044 32.4682 28.3295 32.2595 28.1858 32.1015C28.0421 31.9435 27.8415 31.8492 27.6281 31.8394H27.5871C27.1563 31.8347 26.8001 32.1739 26.7836 32.6044L26.3577 41.4437C26.3472 41.657 26.4221 41.8657 26.5657 42.0237C26.7094 42.1817 26.9101 42.2761 27.1235 42.2858Z" fill="white"/>
<path d="M4.51786 23.8036H1.30357C0.859771 23.8036 0.5 24.1634 0.5 24.6072V26.2143C0.5 26.6581 0.859771 27.0179 1.30357 27.0179H4.51786V23.8036Z" fill="white"/>
<path d="M34.6793 42.2786C34.8905 42.3076 35.1046 42.2515 35.2745 42.1227C35.4443 41.9938 35.556 41.8027 35.5849 41.5915L36.7983 32.7522C36.8274 32.5409 36.7712 32.3267 36.6422 32.1568C36.5131 31.9869 36.3219 31.8753 36.1105 31.8466C36.0732 31.8418 36.0356 31.8393 35.998 31.8394C35.824 31.8385 35.6545 31.895 35.5158 32.0001C35.3445 32.1288 35.2317 32.3206 35.2025 32.5328L33.9899 41.3721C33.9608 41.5833 34.0169 41.7974 34.1457 41.9673C34.2746 42.1372 34.4657 42.2488 34.6769 42.2778L34.6793 42.2786Z" fill="white"/>
</g>
<defs>
<clipPath id="clip0_0_488">
<rect width="45" height="45" fill="white" transform="translate(0.5 0.5)"/>
</clipPath>
</defs>
</svg>
