<svg width="46" height="46" viewBox="0 0 46 46" fill="none" xmlns="http://www.w3.org/2000/svg">
<g clip-path="url(#clip0_0_622)">
<path d="M37.502 12.4531V35.0477C36.1918 35.4095 35.0926 36.2954 34.4296 37.502H43.2102C42.5478 36.3038 41.4478 35.4138 40.1386 35.0495V12.4531H37.502Z" fill="white"/>
<path d="M24.318 8.41016L26.8646 3.31566L25.2424 2.93325C24.1828 2.68479 23.2469 2.24445 22.3289 1.81317C20.8895 1.13729 19.5287 0.5 17.7262 0.5C15.9237 0.5 14.5629 1.13729 13.1106 1.81836C12.2055 2.24454 11.2696 2.68479 10.21 2.93334L8.58777 3.31575L11.1344 8.41016H24.318Z" fill="white"/>
<path d="M33.5469 40.1387L32.2285 45.5H45.5L44.0941 40.1387H33.5469Z" fill="white"/>
<path d="M25.637 37.5019V32.8123L23.3431 32.4587L20.1302 37.5019H25.637Z" fill="white"/>
<path d="M9.81641 40.1387H25.6367V45.5H9.81641V40.1387Z" fill="white"/>
<path d="M9.81641 37.502H15.333L12.175 32.5062L9.81641 32.9619V37.502Z" fill="white"/>
<path d="M25.6367 19.1286C25.6367 17.8914 24.8102 16.8343 23.6038 16.5589L23.121 16.4481L22.6846 16.6838C21.7177 17.2052 18.0252 18.9214 11.1141 19.1106L9.81641 19.1466V21.7653C9.81641 24.6967 11.4067 27.2479 13.7715 28.5979V30.0955L17.7309 36.3594L21.6816 30.1581V28.6159C24.1304 27.2344 25.6367 24.6093 25.6367 21.7653V19.1286Z" fill="white"/>
<path d="M7.17969 33.4714L4.62893 33.9473C2.19813 34.4881 0.5 36.606 0.5 39.0959V45.5001H7.17969V33.4714Z" fill="white"/>
<path d="M30.4853 33.5596L28.2734 33.2188V45.4999H29.5105L31.3479 38.0619C31.6586 36.8209 32.2657 35.7222 33.0716 34.816C32.3598 34.1881 31.4797 33.7367 30.4853 33.5596Z" fill="white"/>
<path d="M3.2244 16.4932L3.22572 20.3183C3.16262 22.1542 2.61805 23.1854 2.43392 23.3477L1.37817 24.1382L2.16998 25.1926C3.52552 27.0001 5.3859 28.3572 7.6533 28.3572C8.14417 28.3572 8.71493 28.2854 9.34177 28.1021C7.98685 26.3046 7.17948 24.0948 7.17948 21.7653V16.5833L11.0393 16.4752C17.5345 16.2975 20.8369 14.6843 21.433 14.3624L22.7423 13.6556L24.1933 13.9891C26.6034 14.5387 28.2732 16.6528 28.2732 19.1286V21.7653C28.2732 24.1005 27.4942 26.3102 26.1375 28.1071C26.8877 28.3242 27.5531 28.3806 28.0904 28.3494C30.0151 28.2477 31.8112 27.1559 33.2827 25.1925L34.1144 24.2179L33.1063 23.421C33.0973 23.4119 32.2244 22.4155 32.2283 20.3658V14.2401C32.2283 11.6042 30.6869 8.57941 28.1526 6.63615L25.9481 11.0469H9.50463L7.14907 6.33398C4.72812 8.58601 3.0749 12.0478 3.2244 16.4932Z" fill="white"/>
</g>
<defs>
<clipPath id="clip0_0_622">
<rect width="45" height="45" fill="white" transform="translate(0.5 0.5)"/>
</clipPath>
</defs>
</svg>
